<svg width="24" height="24" viewBox="0 0 24 24" fill="none" xmlns="http://www.w3.org/2000/svg">
<path d="M20 12.2V13.9C20 17.05 18.2 18.4 15.5 18.4H6.5C3.8 18.4 2 17.05 2 13.9V8.5C2 5.35 3.8 4 6.5 4H9.2C9.07 4.38 9 4.8 9 5.25V9.15C9 10.12 9.32 10.94 9.89 11.51C10.46 12.08 11.28 12.4 12.25 12.4V13.79C12.25 14.3 12.83 14.61 13.26 14.33L16.15 12.4H18.75C19.2 12.4 19.62 12.33 20 12.2Z" stroke="white" stroke-width="1.5" stroke-miterlimit="10" stroke-linecap="round" stroke-linejoin="round"/>
<path d="M7.3999 22H14.5999M10.9999 18.4V22M21.9999 5.25V9.15C21.9999 10.64 21.2399 11.76 19.9999 12.2C19.6199 12.33 19.1999 12.4 18.7499 12.4H16.1499L13.2599 14.33C12.8299 14.61 12.2499 14.3 12.2499 13.79V12.4C11.2799 12.4 10.4599 12.08 9.8899 11.51C9.3199 10.94 8.9999 10.12 8.9999 9.15V5.25C8.9999 4.8 9.0699 4.38 9.1999 4C9.6399 2.76 10.7599 2 12.2499 2H18.7499C20.6999 2 21.9999 3.3 21.9999 5.25Z" stroke="white" stroke-width="1.5" stroke-miterlimit="10" stroke-linecap="round" stroke-linejoin="round"/>
<path d="M18.495 7.25H18.505M15.696 7.25H15.705M12.895 7.25H12.905" stroke="white" stroke-width="1.5" stroke-linecap="round" stroke-linejoin="round"/>
</svg>
