<svg width="24" height="24" viewBox="0 0 24 24" fill="none" xmlns="http://www.w3.org/2000/svg">
<path d="M12 22C17.523 22 22 17.523 22 12C22 6.477 17.523 2 12 2C6.477 2 2 6.477 2 12C2 17.523 6.477 22 12 22Z" stroke="white" stroke-width="1.5" stroke-linecap="round" stroke-linejoin="round"/>
<path d="M8.00007 3H9.00007C7.05011 8.84157 7.05011 15.1584 9.00007 21H8.00007M15.0001 3C16.95 8.84157 16.95 15.1584 15.0001 21" stroke="white" stroke-width="1.5" stroke-linecap="round" stroke-linejoin="round"/>
<path d="M3 16V15C8.84157 16.9499 15.1584 16.9499 21 15V16M3 8.99995C8.84157 7.04998 15.1584 7.04998 21 8.99995" stroke="white" stroke-width="1.5" stroke-linecap="round" stroke-linejoin="round"/>
</svg>
