<svg xmlns="http://www.w3.org/2000/svg" width="23.997" height="24.002" viewBox="0 0 23.997 24.002">
  <g id="dashboard" transform="translate(-507.832 -208.534)">
    <path id="Path_1331" data-name="Path 1331" d="M518.743,214.195c-.018.644.053,1.464-.026,2.277a3.234,3.234,0,0,1-3.231,2.972q-2.2.03-4.391,0a3.257,3.257,0,0,1-3.253-3.278q-.021-2.17,0-4.34a3.256,3.256,0,0,1,3.254-3.277q2.2-.03,4.391,0a3.262,3.262,0,0,1,3.254,3.278C518.752,212.559,518.743,213.29,518.743,214.195Zm-2.183-.189c0-.7,0-1.4,0-2.093a1.092,1.092,0,0,0-1.172-1.184q-2.093,0-4.187,0a1.091,1.091,0,0,0-1.177,1.178q0,2.093,0,4.187a1.089,1.089,0,0,0,1.159,1.171q2.106,0,4.212,0a1.091,1.091,0,0,0,1.165-1.165C516.562,215.4,516.56,214.7,516.56,214.006Z" transform="translate(0 0)" fill="#6236ff"/>
    <path id="Path_1332" data-name="Path 1332" d="M699.765,213.83c.017-.654-.054-1.482.026-2.3a3.232,3.232,0,0,1,3.229-2.973q2.2-.029,4.391,0a3.251,3.251,0,0,1,3.252,3.251q.032,2.2,0,4.391a3.253,3.253,0,0,1-3.251,3.253q-2.2.031-4.391,0a3.263,3.263,0,0,1-3.255-3.277C699.757,215.448,699.765,214.725,699.765,213.83Zm8.721.194c0-.706,0-1.413,0-2.119a1.09,1.09,0,0,0-1.158-1.172q-2.119,0-4.238,0a1.082,1.082,0,0,0-1.14,1.138q0,2.132,0,4.263a1.083,1.083,0,0,0,1.144,1.134q2.119,0,4.238,0a1.088,1.088,0,0,0,1.154-1.151C708.488,215.42,708.486,214.722,708.486,214.024Z" transform="translate(-178.851 -0.005)" fill="#6236ff"/>
    <path id="Path_1333" data-name="Path 1333" d="M518.743,406.207c-.018.651.053,1.479-.027,2.3a3.233,3.233,0,0,1-3.229,2.973q-2.2.03-4.391,0a3.258,3.258,0,0,1-3.254-3.278q-.021-2.17,0-4.34a3.26,3.26,0,0,1,3.278-3.279q2.17-.022,4.34,0a3.266,3.266,0,0,1,3.28,3.278C518.752,404.587,518.743,405.31,518.743,406.207Zm-5.458,3.1c.706,0,1.413,0,2.119,0a1.088,1.088,0,0,0,1.155-1.149q0-2.119,0-4.238a1.086,1.086,0,0,0-1.155-1.149q-2.106,0-4.212,0a1.088,1.088,0,0,0-1.168,1.162q0,2.106,0,4.212a1.09,1.09,0,0,0,1.168,1.162C511.889,409.3,512.587,409.3,513.285,409.3Z" transform="translate(0 -178.963)" fill="#6236ff"/>
    <path id="Path_1334" data-name="Path 1334" d="M705.063,411.45c-.659-.018-1.487.053-2.309-.027a3.229,3.229,0,0,1-2.972-3.2q-.036-2.22,0-4.442a3.247,3.247,0,0,1,3.249-3.227q2.2-.03,4.391,0a3.251,3.251,0,0,1,3.253,3.251q.032,2.195,0,4.391a3.263,3.263,0,0,1-3.276,3.256C706.676,411.459,705.952,411.45,705.063,411.45ZM701.96,406c0,.706,0,1.413,0,2.119a1.087,1.087,0,0,0,1.156,1.149q2.119,0,4.238,0a1.084,1.084,0,0,0,1.142-1.137q.005-2.132,0-4.263a1.083,1.083,0,0,0-1.143-1.135q-2.119,0-4.238,0a1.086,1.086,0,0,0-1.155,1.149C701.957,404.586,701.96,405.292,701.96,406Z" transform="translate(-178.862 -178.926)" fill="#6236ff"/>
  </g>
</svg>
