<svg width="20" height="16" viewBox="0 0 20 16" fill="none" xmlns="http://www.w3.org/2000/svg">
<path d="M1 3.7L8.34843 8.8439C8.94348 9.26044 9.24101 9.46871 9.56464 9.54938C9.85051 9.62063 10.1495 9.62063 10.4354 9.54938C10.759 9.46871 11.0565 9.26044 11.6516 8.8439L19 3.7M5.32 15.4H14.68C16.1921 15.4 16.9482 15.4 17.5258 15.1057C18.0338 14.8469 18.4469 14.4338 18.7057 13.9258C19 13.3482 19 12.5921 19 11.08V5.32C19 3.80786 19 3.05179 18.7057 2.47423C18.4469 1.96619 18.0338 1.55314 17.5258 1.29428C16.9482 1 16.1921 1 14.68 1H5.32C3.80786 1 3.05179 1 2.47423 1.29428C1.96619 1.55314 1.55314 1.96619 1.29428 2.47423C1 3.05179 1 3.80786 1 5.32V11.08C1 12.5921 1 13.3482 1.29428 13.9258C1.55314 14.4338 1.96619 14.8469 2.47423 15.1057C3.05179 15.4 3.80786 15.4 5.32 15.4Z" stroke="white" stroke-linecap="round" stroke-linejoin="round"/>
</svg>
