<svg width="18" height="19" viewBox="0 0 18 19" fill="none" xmlns="http://www.w3.org/2000/svg">
<path d="M17.9688 8.29959C17.9294 7.73769 17.8289 7.18611 17.6839 6.64252C17.5463 6.12896 17.1511 5.8182 16.6239 5.81351C16.3136 5.81069 16.0033 5.81492 15.693 5.81257C15.4475 5.81069 15.2504 5.91209 15.0955 6.09517C14.8739 6.35711 14.8556 6.64768 14.965 6.96736C15.3518 8.09586 15.4133 9.24643 15.1504 10.4097C14.1735 14.7303 9.08446 16.7291 5.45298 14.2233C5.33375 14.1407 5.2868 14.0829 5.40322 13.9613C5.48725 13.8731 5.55344 13.767 5.6215 13.6647C5.86044 13.3051 5.8764 12.9281 5.6769 12.5517C5.47457 12.17 5.15536 11.948 4.71316 11.9653C3.75413 12.0024 2.79462 12.0423 1.83699 12.1024C1.09623 12.1489 0.608968 12.823 0.794391 13.5403C1.03239 14.4627 1.28635 15.3809 1.54547 16.2977C1.70038 16.845 2.27027 17.1638 2.82701 17.0464C3.18941 16.9699 3.41895 16.7314 3.60344 16.4362C3.6762 16.3197 3.72831 16.2972 3.85458 16.3869C4.8892 17.122 6.03366 17.6032 7.27999 17.8477C7.67665 17.9257 8.07942 17.9496 8.47749 18.0116H9.56656C9.61163 18.0017 9.65622 17.9862 9.70129 17.9825C11.5522 17.8388 13.199 17.1793 14.6476 16.0212C14.895 15.8236 15.1293 15.6118 15.3522 15.387C15.4447 15.294 15.4677 15.1847 15.4062 15.0664C15.3555 14.9687 15.2682 14.9232 15.1602 14.9284C15.0598 14.9331 14.9917 15.0016 14.9237 15.0673C13.4342 16.5028 11.6616 17.3107 9.5952 17.4576C7.93531 17.5755 6.37212 17.2464 4.91736 16.4282C4.25172 16.0536 3.64146 15.6011 3.05844 15.1096C2.90587 14.9809 2.74157 14.9852 2.64065 15.1119C2.53925 15.2387 2.5646 15.3795 2.71669 15.5081C2.8148 15.5912 2.91714 15.6696 3.01806 15.7499C3.29643 15.97 3.29033 15.9658 3.08707 16.2568C2.93732 16.4718 2.74486 16.5751 2.48761 16.5291C2.23037 16.4831 2.08672 16.3174 2.02006 16.0653C1.79004 15.2011 1.55111 14.3392 1.31874 13.4755C1.19293 13.0075 1.43704 12.6502 1.92195 12.623C2.84532 12.5704 3.76962 12.5343 4.69392 12.4911C4.93098 12.4798 5.09856 12.5906 5.20747 12.792C5.31685 12.9943 5.31074 13.1962 5.17273 13.3868C5.04552 13.5623 4.9183 13.737 4.79109 13.9125C4.60942 14.1637 4.62397 14.2627 4.87136 14.4505C7.2936 16.2944 10.6373 16.3207 13.0765 14.489C14.5707 13.3671 15.4729 11.871 15.7569 10.0163C15.9254 8.91454 15.8189 7.83486 15.4602 6.77959C15.3659 6.50169 15.4799 6.34443 15.77 6.34161C16.0451 6.33927 16.3207 6.33927 16.5958 6.34161C16.9112 6.34396 17.0976 6.4862 17.1793 6.79367C17.5182 8.07004 17.5651 9.35768 17.314 10.6547C17.0732 11.8977 16.5685 13.0258 15.8198 14.0458C15.7057 14.2017 15.7184 14.3571 15.8405 14.451C15.9686 14.5495 16.1282 14.5125 16.246 14.3528C17.0783 13.222 17.62 11.9672 17.8641 10.5829C17.9252 10.2379 17.9402 9.88766 17.9998 9.5431V8.45403C17.9895 8.40287 17.9731 8.35264 17.9693 8.301L17.9688 8.29959Z" fill="white"/>
<path d="M2.163 11.3855C2.61083 11.3428 2.91925 10.9212 2.86104 10.472C2.84367 10.3386 2.80846 10.2081 2.78828 10.0753C2.49395 8.10887 2.95633 6.34195 4.2834 4.85669C5.79214 3.16816 7.70458 2.49312 9.9536 2.78464C10.2385 2.82172 10.516 2.89261 10.7925 2.96818C10.9216 3.00339 11.0384 2.97804 11.1126 2.85271C11.1727 2.75037 11.16 2.65038 11.0901 2.55744C11.037 2.48749 10.9563 2.46684 10.877 2.44524C8.97907 1.93685 7.16145 2.13918 5.48748 3.17238C3.445 4.4328 2.34091 6.29078 2.18506 8.69425C2.14751 9.27446 2.19774 9.85185 2.32073 10.4222C2.38175 10.7067 2.2827 10.8602 2.03297 10.8682C1.74615 10.8776 1.45886 10.8785 1.17251 10.8668C0.88616 10.855 0.690878 10.6724 0.646283 10.3912C0.485739 9.38149 0.495127 8.37316 0.696981 7.37C1.0852 5.44206 2.01325 3.81409 3.52997 2.56729C6.02028 0.519656 8.82228 0.0342692 11.8783 1.05433C12.6246 1.3036 13.3067 1.69557 13.978 2.10162C14.1766 2.2218 14.3334 2.20865 14.4244 2.06782C14.5183 1.9223 14.4535 1.77256 14.2409 1.64769C14.1047 1.56789 13.9695 1.48574 13.8297 1.41251C13.7433 1.36744 13.7217 1.32754 13.7902 1.24398C13.8902 1.12193 13.9785 0.990021 14.0714 0.862337C14.2118 0.669403 14.4071 0.613541 14.63 0.653912C14.8478 0.693813 15.0046 0.818681 15.0647 1.03884C15.3154 1.95235 15.5689 2.86444 15.8088 3.78076C15.9073 4.15724 15.6435 4.5295 15.2666 4.55062C14.3136 4.60507 13.3602 4.64685 12.4068 4.69098C12.1702 4.70178 12.0031 4.58113 11.898 4.37975C11.7952 4.18353 11.7999 3.98543 11.9327 3.80001C12.035 3.6573 12.1411 3.51741 12.2406 3.37283C12.3435 3.22355 12.3256 3.07709 12.2017 2.98461C12.0796 2.89355 11.9266 2.92171 11.8186 3.0616C11.7219 3.18647 11.6341 3.31838 11.5389 3.44418C11.2563 3.81785 11.2173 4.21827 11.4342 4.62949C11.6506 5.03929 12.0008 5.23974 12.4693 5.21815C12.9138 5.19702 13.3584 5.17496 13.8024 5.15336C13.8024 5.1543 13.8024 5.15571 13.8024 5.15665C14.2935 5.13177 14.7849 5.10971 15.276 5.08107C15.9637 5.0407 16.4932 4.38726 16.3308 3.72349C16.0932 2.75272 15.8224 1.78992 15.5459 0.829478C15.4304 0.427648 15.1187 0.204202 14.7159 0.133788C14.3005 0.0614959 13.9376 0.176505 13.6696 0.520595C13.5724 0.644993 13.472 0.768922 13.3922 0.904586C13.3048 1.05339 13.2255 1.0717 13.0645 0.990491C11.3229 0.112663 9.47338 -0.21218 7.55906 0.144115C3.92898 0.81915 1.53021 2.95551 0.381526 6.46213C-0.0442435 7.7615 -0.0869614 9.10594 0.121933 10.4565C0.201736 10.9705 0.548173 11.3244 1.05797 11.3822C1.42412 11.424 1.79638 11.4202 2.163 11.3855Z" fill="white"/>
<path d="M8.31566 13.1765C8.58652 13.3943 8.95971 13.3248 9.16391 13.0089C9.47843 12.5221 9.78919 12.0334 10.0934 11.5405C10.1605 11.4316 10.2342 11.3959 10.36 11.3969C11.0566 11.403 11.7537 11.4053 12.4508 11.3983C13.2315 11.3908 13.8432 10.8044 13.8507 10.0473C13.8601 9.06945 13.8605 8.09116 13.8497 7.11335C13.8441 6.62233 13.6117 6.24115 13.1991 5.97358C12.9386 5.80459 12.6466 5.76562 12.3424 5.76562C10.2459 5.7675 8.14948 5.76656 6.05302 5.76703C5.97698 5.76703 5.90093 5.76985 5.82488 5.77501C5.11511 5.82149 4.55133 6.40123 4.54522 7.11382C4.53678 8.09163 4.53724 9.06992 4.54522 10.0477C4.55039 10.7138 5.04376 11.2781 5.70142 11.3729C6.15489 11.4382 6.61352 11.3908 7.0698 11.3978C7.25757 11.4006 7.38197 11.2875 7.38432 11.1363C7.38713 10.9763 7.26367 10.8744 7.05994 10.8735C6.70271 10.872 6.34548 10.8744 5.98824 10.8725C5.42258 10.8692 5.07051 10.5143 5.07004 9.94775C5.06911 9.03987 5.06911 8.13247 5.07004 7.2246C5.07004 6.64909 5.40756 6.29702 5.9812 6.29608C8.1246 6.29232 10.268 6.29232 12.4114 6.29608C12.986 6.29702 13.3268 6.64815 13.3277 7.21991C13.3287 8.12168 13.3282 9.02344 13.3277 9.92568C13.3277 10.5265 12.9813 10.8725 12.379 10.8735C11.6293 10.8744 10.8797 10.8772 10.1305 10.8711C9.96428 10.8697 9.85819 10.9307 9.77182 11.0697C9.51739 11.4767 9.25404 11.8776 8.99398 12.2808C8.89071 12.4409 8.78649 12.6005 8.68322 12.7601C8.6682 12.7549 8.65271 12.7498 8.63769 12.7446C8.63769 12.6812 8.63769 12.6174 8.63769 12.554C8.63769 11.863 8.63956 11.172 8.63581 10.481C8.63487 10.274 8.52972 10.1609 8.36307 10.166C8.20394 10.1712 8.11193 10.2792 8.11146 10.482C8.10911 11.2199 8.11052 11.9578 8.11052 12.6958C8.11052 12.8864 8.16356 13.0535 8.31801 13.1774L8.31566 13.1765Z" fill="white"/>
<path d="M6.84329 9.64177C6.85503 9.64224 6.86676 9.64177 6.8785 9.64177C8.483 9.64177 10.0875 9.64177 11.692 9.64177C11.9136 9.64177 12.0333 9.54647 12.0342 9.37701C12.0351 9.20473 11.9215 9.11554 11.6958 9.11554C10.8935 9.11507 10.0913 9.11554 9.289 9.11554C8.47502 9.11554 7.66103 9.1146 6.84705 9.11601C6.64848 9.11601 6.54098 9.21037 6.54004 9.37373C6.53957 9.53521 6.64989 9.63332 6.84329 9.64224V9.64177Z" fill="white"/>
<path d="M6.54397 8.33754C6.5604 8.46241 6.63785 8.53658 6.76084 8.55676C6.81811 8.56615 6.87773 8.56193 6.93641 8.56193C7.72129 8.56193 8.5057 8.56193 9.29058 8.56193C10.0755 8.56193 10.8599 8.56193 11.6448 8.56193C11.6973 8.56193 11.7508 8.56474 11.8025 8.55817C11.9344 8.54174 12.0161 8.4671 12.032 8.33285C12.0485 8.19108 11.9832 8.09391 11.8485 8.05213C11.794 8.03523 11.733 8.0357 11.6753 8.0357C10.0825 8.03476 8.48927 8.03523 6.89651 8.0357C6.8322 8.0357 6.76835 8.03147 6.70639 8.05823C6.58293 8.11222 6.52707 8.2061 6.54397 8.33801V8.33754Z" fill="white"/>
<path d="M6.81312 7.48793C7.18678 7.49544 7.56045 7.49497 7.93411 7.48793C8.11061 7.48464 8.2153 7.36823 8.20826 7.21285C8.20168 7.06451 8.09982 6.97062 7.92566 6.96593C7.74493 6.96076 7.56373 6.96499 7.383 6.96452C7.19617 6.96452 7.00934 6.96029 6.82251 6.96546C6.646 6.97015 6.54696 7.06169 6.54038 7.21191C6.53334 7.3701 6.63474 7.4837 6.81312 7.48746V7.48793Z" fill="white"/>
</svg>
