<svg xmlns="http://www.w3.org/2000/svg" width="22.893" height="25.39" viewBox="0 0 22.893 25.39">
  <g id="google-play-hover" transform="translate(-63.284 17.719)">
    <path id="Path_20890" data-name="Path 20890" d="M66.456-17.719a8.218,8.218,0,0,1,2.28,1.1q7.955,4.54,15.905,9.088a2.759,2.759,0,0,1,1.536,2.508,2.728,2.728,0,0,1-1.5,2.478L75.393,2.761Q71.482,5,67.57,7.232a2.732,2.732,0,0,1-3.1-.09,2.694,2.694,0,0,1-1.174-2.086c-.009-.107-.01-.215-.01-.322q0-9.764,0-19.528a2.778,2.778,0,0,1,1.655-2.68,7.5,7.5,0,0,1,.772-.245ZM64.974-5.052V1.416c0,1.115,0,2.231,0,3.346a1.132,1.132,0,0,0,.695,1.126.317.317,0,0,0,.45-.13q3.789-5.3,7.6-10.585a.284.284,0,0,0,0-.4q-3.807-5.287-7.6-10.585a.321.321,0,0,0-.472-.12,1.161,1.161,0,0,0-.674,1.166Q64.975-9.91,64.974-5.052Zm19.517.024a1.18,1.18,0,0,0-.668-1.023Q81.382-7.439,78.949-8.84c-.154-.089-.225-.077-.33.071q-1.267,1.787-2.554,3.56a.256.256,0,0,0,0,.364c.767,1.054,1.524,2.116,2.285,3.174.13.18.235.457.406.508.189.056.4-.176.6-.288C80.843-2.3,82.33-3.156,83.821-4A1.181,1.181,0,0,0,84.491-5.028ZM69.274-14.364a.766.766,0,0,0,.045.113q2.734,3.811,5.468,7.622c.091.127.135.121.223,0q1.07-1.5,2.152-2.995c.1-.138.078-.191-.064-.27-.827-.464-1.647-.939-2.471-1.41Zm.009,18.606.03.037c.035-.017.071-.032.1-.051q3.844-2.2,7.69-4.391c.164-.094.131-.157.046-.275q-.864-1.193-1.721-2.391L74.9-3.575Z" fill="#7d36ff"/>
  </g>
</svg>
