<svg width="286" height="160" viewBox="0 0 286 160" fill="none" xmlns="http://www.w3.org/2000/svg">
<path d="M95.5065 135.248L98.8727 130.442L107.223 143.168H100.219L95.5065 135.248Z" fill="white"/>
<path d="M105.53 122.755C90.6442 128.085 87.9138 141.653 87.9138 141.653C88.4281 126.15 102.585 119.146 102.585 119.146L102.734 119.305C103.352 120.689 104.315 121.877 105.53 122.755Z" fill="white"/>
<path d="M102.005 115.845C102.005 116.565 102.099 117.267 102.267 117.931L102.239 118.127C97.3578 120.736 93.5615 125.542 93.5615 125.542C94.001 122.802 100.5 115.481 102.351 113.442C102.127 114.209 102.005 115.004 102.005 115.845Z" fill="white"/>
<path d="M91.9626 124.411L91.8784 119.184L89.8119 118.379L89.681 108.599H88.0821L87.9979 118.464C87.9979 118.464 86.4083 118.884 86.0624 119.389C86.0624 122.849 85.894 133.546 85.894 133.546C85.9595 134.004 88.5964 127.328 91.9626 124.401V124.411Z" fill="white"/>
<path d="M27.0137 131.367C26.9015 132.985 26.5649 134.49 25.9852 135.884C25.4054 137.277 24.5919 138.492 23.526 139.521C22.46 140.55 21.1322 141.354 19.5426 141.943C17.953 142.532 16.111 142.822 13.9978 142.822C11.6134 142.822 9.5469 142.448 7.79835 141.709C6.0498 140.97 4.60047 139.932 3.45035 138.586C2.30024 137.249 1.43998 135.641 0.860248 133.761C0.280515 131.882 0 129.824 0 127.58C0 125.336 0.289869 123.186 0.878953 121.278C1.46804 119.38 2.35634 117.744 3.54386 116.369C4.73138 115.004 6.20876 113.929 7.97601 113.171C9.74327 112.404 11.8191 112.021 14.1941 112.021C17.8034 112.021 20.6366 112.919 22.6751 114.714C24.7135 116.509 26.0039 119.062 26.5555 122.372L18.7104 123.279C18.5702 122.653 18.3925 122.064 18.1775 121.512C17.9624 120.96 17.6632 120.493 17.2985 120.1C16.9245 119.707 16.4663 119.389 15.924 119.155C15.3723 118.922 14.7178 118.81 13.951 118.81C10.2014 118.81 8.32199 121.671 8.32199 127.393C8.32199 128.983 8.46224 130.329 8.7334 131.442C9.00457 132.555 9.39729 133.443 9.90222 134.135C10.4072 134.818 11.0149 135.313 11.7069 135.612C12.4082 135.912 13.1749 136.061 14.0258 136.061C16.8964 136.061 18.5421 134.5 18.9535 131.377H27.0044L27.0137 131.367Z" fill="white"/>
<path d="M30.3051 120.521H37.533V123.148C38.2998 122.11 39.1787 121.353 40.1605 120.867C41.1423 120.39 42.2831 120.147 43.5641 120.147C44.3589 120.147 45.0602 120.212 45.6586 120.352L44.8358 126.72C44.5366 126.636 44.1813 126.58 43.7698 126.533C43.3584 126.486 42.947 126.468 42.5356 126.468C41.9371 126.468 41.3387 126.533 40.7496 126.655C40.1605 126.776 39.6369 127.001 39.1694 127.328C38.6738 127.711 38.3091 128.188 38.0847 128.768C37.8509 129.338 37.7387 130.096 37.7387 131.031V142.074H30.3051V120.521Z" fill="white"/>
<path d="M55.963 112.769V118.146H48.4452V112.769H55.963ZM55.9256 120.521V142.074H48.4919V120.521H55.9256Z" fill="white"/>
<path d="M80.5923 133.789C80.452 135.108 80.1715 136.314 79.7321 137.426C79.2926 138.539 78.6661 139.484 77.8432 140.26C77.0204 141.036 76.0012 141.653 74.7856 142.083C73.5701 142.523 72.1394 142.738 70.4937 142.738C68.633 142.738 67.0153 142.457 65.6501 141.896C64.285 141.335 63.1629 140.568 62.3026 139.596C61.4424 138.623 60.7879 137.436 60.3484 136.043C59.9089 134.649 59.6938 133.125 59.6938 131.489C59.6938 129.684 59.937 128.057 60.4325 126.627C60.9281 125.196 61.6388 123.971 62.5645 122.971C63.4902 121.97 64.6403 121.203 66.0148 120.67C67.38 120.137 68.9415 119.866 70.6994 119.866C72.289 119.866 73.6542 120.081 74.8043 120.502C75.9544 120.923 76.9175 121.502 77.703 122.222C78.4791 122.952 79.0962 123.803 79.5263 124.785C79.9658 125.766 80.237 126.814 80.3492 127.908L73.2428 128.609C73.1306 127.842 72.8688 127.178 72.4667 126.617C72.0553 126.056 71.4007 125.776 70.4937 125.776C69.3716 125.776 68.5395 126.243 68.0065 127.178C67.4735 128.113 67.2023 129.497 67.2023 131.339C67.2023 133.069 67.4548 134.416 67.9597 135.379C68.4647 136.342 69.3062 136.819 70.4844 136.819C72.2049 136.819 73.1773 135.809 73.4017 133.78H80.583L80.5923 133.789Z" fill="white"/>
<path d="M128.794 130.703C128.794 129.058 128.57 127.571 128.14 126.234C127.7 124.887 127.046 123.747 126.167 122.802C125.297 121.867 124.213 121.138 122.922 120.633C121.632 120.128 120.145 119.875 118.443 119.875C118.303 119.875 118.163 119.875 118.023 119.875C116.583 122.55 113.768 124.373 110.523 124.373C110.131 124.373 109.738 124.345 109.355 124.298C108.906 124.99 108.522 125.776 108.214 126.627C107.7 128.085 107.438 129.759 107.438 131.648C107.438 135.21 108.354 137.95 110.187 139.867C112.02 141.784 114.75 142.738 118.359 142.738C121.267 142.738 123.586 142.111 125.335 140.849C127.083 139.596 128.177 137.688 128.617 135.145H121.679C121.267 136.65 120.136 137.398 118.266 137.398C117.059 137.398 116.181 137.062 115.619 136.398C115.058 135.725 114.703 134.603 114.572 133.05H128.776V130.713L128.794 130.703ZM114.591 128.815C114.703 127.674 115.058 126.767 115.657 126.112C116.255 125.448 117.19 125.121 118.453 125.121C119.603 125.121 120.454 125.411 121.024 125.981C121.576 126.561 121.894 127.506 121.94 128.815H114.591Z" fill="white"/>
<path d="M134.134 126.318H130.683V120.53H134.134V114.864H141.567V120.53H146.252V126.318H141.567V134.023C141.567 135.014 141.782 135.678 142.222 136.024C142.661 136.37 143.26 136.538 144.026 136.538C144.653 136.538 145.345 136.454 146.084 136.295L147.028 141.681C145.354 142.195 143.662 142.457 141.941 142.457C139.117 142.457 137.116 141.803 135.929 140.484C134.741 139.166 134.143 137.118 134.143 134.322V126.318H134.134Z" fill="white"/>
<path d="M159.015 112.769H169.974C172.274 112.769 174.182 113.031 175.706 113.545C177.221 114.069 178.427 114.77 179.315 115.658C180.204 116.547 180.83 117.585 181.186 118.763C181.541 119.941 181.718 121.203 181.718 122.54C181.718 123.878 181.531 125.205 181.167 126.421C180.793 127.636 180.157 128.702 179.259 129.619C178.352 130.535 177.155 131.255 175.669 131.769C174.173 132.293 172.312 132.545 170.068 132.545H166.664V142.074H159.025V112.76L159.015 112.769ZM166.655 126.271H170.021C171.667 126.271 172.807 125.963 173.453 125.346C174.098 124.728 174.416 123.803 174.416 122.578C174.416 121.353 174.088 120.446 173.434 119.866C172.779 119.286 171.629 119.006 169.984 119.006H166.655V126.271Z" fill="white"/>
<path d="M196.745 142.083V139.745C195.866 140.68 194.921 141.391 193.893 141.905C192.864 142.41 191.639 142.663 190.218 142.663C189.255 142.663 188.339 142.541 187.469 142.289C186.59 142.046 185.823 141.653 185.15 141.12C184.477 140.587 183.944 139.914 183.551 139.11C183.158 138.305 182.953 137.324 182.953 136.173C182.953 134.855 183.224 133.761 183.757 132.873C184.29 131.984 185.019 131.255 185.954 130.694C186.88 130.133 187.983 129.722 189.236 129.46C190.499 129.198 191.845 129.03 193.304 128.946L196.548 128.777V127.917C196.548 126.851 196.287 126.112 195.772 125.701C195.249 125.289 194.594 125.084 193.799 125.084C192.098 125.084 191.134 125.794 190.882 127.216L184.187 126.683C184.57 124.382 185.599 122.671 187.263 121.549C188.928 120.427 191.219 119.866 194.117 119.866C195.922 119.866 197.437 120.081 198.652 120.502C199.868 120.923 200.85 121.521 201.588 122.288C202.327 123.055 202.86 123.98 203.187 125.056C203.515 126.14 203.683 127.347 203.683 128.693V142.074H196.745V142.083ZM196.502 132.966L194.117 133.088C192.556 133.172 191.499 133.434 190.938 133.864C190.377 134.303 190.097 134.874 190.097 135.584C190.097 136.295 190.312 136.8 190.732 137.099C191.153 137.398 191.752 137.548 192.518 137.548C193.668 137.548 194.622 137.23 195.37 136.585C196.118 135.94 196.502 134.977 196.502 133.686V132.948V132.966Z" fill="white"/>
<path d="M215.221 120.521V123.064C216.1 121.914 217.073 121.091 218.158 120.605C219.242 120.109 220.439 119.866 221.748 119.866C223.964 119.866 225.685 120.521 226.9 121.82C228.116 123.12 228.724 125.074 228.724 127.674V142.083H221.29V128.861C221.29 127.739 221.075 126.982 220.654 126.58C220.233 126.187 219.635 125.981 218.868 125.981C217.886 125.981 217.064 126.299 216.409 126.926C216.11 127.225 215.867 127.571 215.689 127.954C215.511 128.338 215.418 128.889 215.418 129.6V142.083H207.984V120.53H215.212L215.221 120.521Z" fill="white"/>
<path d="M247.331 142.083V139.661C245.798 141.718 243.703 142.738 241.048 142.738C238.392 142.738 236.157 141.765 234.661 139.82C233.165 137.875 232.426 135.136 232.426 131.61C232.426 129.75 232.641 128.085 233.062 126.627C233.483 125.159 234.1 123.934 234.886 122.933C235.68 121.933 236.634 121.175 237.738 120.652C238.85 120.128 240.085 119.876 241.45 119.876C243.862 119.876 245.742 120.726 247.116 122.419V112.769H254.55V142.083H247.322H247.331ZM247.125 131.031C247.125 130.049 247.051 129.226 246.901 128.572C246.751 127.917 246.536 127.393 246.265 127.01C245.938 126.542 245.536 126.225 245.059 126.047C244.582 125.869 244.096 125.776 243.6 125.776C242.506 125.776 241.618 126.187 240.954 127.01C240.281 127.833 239.944 129.254 239.944 131.283C239.944 133.312 240.272 134.687 240.926 135.51C241.581 136.332 242.46 136.744 243.554 136.744C244.077 136.744 244.563 136.65 245.031 136.454C245.498 136.267 245.91 135.902 246.265 135.388C246.836 134.565 247.125 133.322 247.125 131.648V131.031Z" fill="white"/>
<path d="M266.547 112.769V118.146H259.029V112.769H266.547ZM266.5 120.521V142.074H259.066V120.521H266.5Z" fill="white"/>
<path d="M272.783 126.318H269.333V120.53H272.783V114.864H280.217V120.53H284.902V126.318H280.217V134.023C280.217 135.014 280.432 135.678 280.872 136.024C281.311 136.37 281.91 136.538 282.676 136.538C283.303 136.538 283.995 136.454 284.724 136.295L285.668 141.681C283.995 142.195 282.302 142.457 280.582 142.457C277.758 142.457 275.757 141.803 274.569 140.484C273.382 139.166 272.783 137.118 272.783 134.322V126.318Z" fill="white"/>
<path d="M110.439 122.868C114.318 122.868 117.462 119.724 117.462 115.845C117.462 111.967 114.318 108.823 110.439 108.823C106.561 108.823 103.417 111.967 103.417 115.845C103.417 119.724 106.561 122.868 110.439 122.868Z" fill="#CB2129"/>
<path d="M110.093 108.832C111.29 109.337 112.356 110.179 113.142 111.329C115.33 114.536 114.507 118.903 111.309 121.091C110.196 121.848 108.943 122.25 107.69 122.307C109.822 123.214 112.356 123.045 114.404 121.643C117.611 119.455 118.434 115.079 116.237 111.881C114.806 109.786 112.45 108.711 110.093 108.823V108.832Z" fill="#A91F25"/>
<path d="M105.783 119.791C103.754 116.818 104.511 112.76 107.485 110.731C109.224 109.543 111.328 109.309 113.188 109.917C111.159 108.935 108.672 109.038 106.671 110.403C103.698 112.432 102.931 116.491 104.969 119.464C105.811 120.698 107.008 121.549 108.326 121.979C107.335 121.502 106.447 120.764 105.773 119.782L105.783 119.791Z" fill="#DF2D41"/>
<mask id="mask0_1439_2936" style="mask-type:luminance" maskUnits="userSpaceOnUse" x="103" y="108" width="15" height="15">
<path d="M110.439 122.868C114.318 122.868 117.462 119.724 117.462 115.845C117.462 111.967 114.318 108.823 110.439 108.823C106.561 108.823 103.417 111.967 103.417 115.845C103.417 119.724 106.561 122.868 110.439 122.868Z" fill="white"/>
</mask>
<g mask="url(#mask0_1439_2936)">
<path d="M105.963 109.126L105.8 109.237L114.506 121.975L114.668 121.864L105.963 109.126Z" fill="white"/>
<path d="M106.147 112.292C106.091 112.33 106.007 112.32 105.96 112.255L105.652 111.797C105.614 111.74 105.624 111.656 105.689 111.61C105.755 111.563 105.829 111.581 105.876 111.647L106.185 112.105C106.222 112.161 106.213 112.245 106.147 112.292Z" fill="white"/>
<path d="M105.521 111.385C105.465 111.423 105.381 111.413 105.334 111.348L105.025 110.89C104.988 110.833 104.997 110.749 105.063 110.703C105.128 110.656 105.203 110.674 105.25 110.74L105.558 111.198C105.596 111.254 105.586 111.338 105.521 111.385Z" fill="white"/>
<path d="M106.765 113.199C106.708 113.237 106.624 113.227 106.578 113.162L106.269 112.704C106.232 112.647 106.241 112.563 106.306 112.517C106.372 112.47 106.447 112.489 106.493 112.554L106.802 113.012C106.839 113.068 106.83 113.152 106.765 113.199Z" fill="white"/>
<path d="M108.008 115.023C107.952 115.06 107.868 115.051 107.821 114.985L107.513 114.527C107.475 114.471 107.485 114.387 107.55 114.34C107.615 114.293 107.69 114.312 107.737 114.377L108.046 114.836C108.083 114.892 108.074 114.976 108.008 115.023Z" fill="white"/>
<path d="M107.391 114.115C107.335 114.153 107.251 114.144 107.204 114.078L106.895 113.62C106.858 113.564 106.867 113.48 106.933 113.433C106.998 113.386 107.073 113.405 107.12 113.47L107.428 113.928C107.466 113.985 107.456 114.069 107.391 114.115Z" fill="white"/>
<path d="M108.635 115.93C108.579 115.967 108.494 115.958 108.448 115.892L108.139 115.434C108.102 115.378 108.111 115.294 108.176 115.247C108.242 115.2 108.317 115.219 108.363 115.284L108.672 115.742C108.709 115.799 108.7 115.883 108.635 115.93Z" fill="white"/>
<path d="M109.878 117.753C109.822 117.79 109.738 117.781 109.691 117.715L109.383 117.257C109.345 117.201 109.355 117.117 109.42 117.07C109.485 117.024 109.56 117.042 109.607 117.108L109.916 117.566C109.953 117.622 109.944 117.706 109.878 117.753Z" fill="white"/>
<path d="M109.252 116.837C109.196 116.874 109.111 116.865 109.065 116.799L108.756 116.341C108.719 116.285 108.728 116.201 108.794 116.154C108.859 116.107 108.934 116.126 108.981 116.191L109.289 116.65C109.327 116.706 109.317 116.79 109.252 116.837Z" fill="white"/>
<path d="M110.495 118.66C110.439 118.697 110.355 118.688 110.308 118.623L110 118.164C109.962 118.108 109.972 118.024 110.037 117.977C110.103 117.931 110.177 117.949 110.224 118.015L110.533 118.473C110.57 118.529 110.561 118.613 110.495 118.66Z" fill="white"/>
<path d="M111.739 120.483C111.683 120.521 111.599 120.511 111.552 120.446L111.243 119.988C111.206 119.932 111.215 119.847 111.281 119.801C111.346 119.754 111.421 119.773 111.468 119.838L111.776 120.296C111.814 120.352 111.804 120.436 111.739 120.483Z" fill="white"/>
<path d="M111.122 119.567C111.066 119.604 110.982 119.595 110.935 119.529L110.626 119.071C110.589 119.015 110.598 118.931 110.664 118.884C110.729 118.838 110.804 118.856 110.851 118.922L111.159 119.38C111.197 119.436 111.187 119.52 111.122 119.567Z" fill="white"/>
<path d="M112.356 121.39C112.3 121.428 112.216 121.418 112.169 121.353L111.86 120.895C111.823 120.839 111.832 120.754 111.898 120.708C111.963 120.661 112.038 120.68 112.085 120.745L112.393 121.203C112.431 121.259 112.422 121.343 112.356 121.39Z" fill="white"/>
<path d="M112.973 122.288C112.917 122.325 112.833 122.316 112.786 122.25L112.478 121.792C112.44 121.736 112.45 121.652 112.515 121.605C112.581 121.559 112.655 121.577 112.702 121.643L113.011 122.101C113.048 122.157 113.039 122.241 112.973 122.288Z" fill="white"/>
<path d="M108.345 110.048C108.289 110.085 108.204 110.076 108.158 110.011L107.849 109.552C107.812 109.496 107.821 109.412 107.887 109.365C107.952 109.319 108.027 109.337 108.074 109.403L108.382 109.861C108.42 109.917 108.41 110.001 108.345 110.048Z" fill="white"/>
<path d="M109.588 111.871C109.532 111.909 109.448 111.899 109.401 111.834L109.093 111.376C109.055 111.32 109.065 111.236 109.13 111.189C109.196 111.142 109.27 111.161 109.317 111.226L109.626 111.684C109.663 111.74 109.654 111.825 109.588 111.871Z" fill="white"/>
<path d="M108.971 110.964C108.915 111.002 108.831 110.992 108.784 110.927L108.476 110.469C108.438 110.413 108.448 110.329 108.513 110.282C108.578 110.235 108.653 110.254 108.7 110.319L109.009 110.777C109.046 110.833 109.037 110.918 108.971 110.964Z" fill="white"/>
<path d="M110.215 112.778C110.159 112.816 110.075 112.806 110.028 112.741L109.719 112.283C109.682 112.227 109.691 112.143 109.757 112.096C109.822 112.049 109.897 112.068 109.944 112.133L110.252 112.591C110.29 112.647 110.28 112.732 110.215 112.778Z" fill="white"/>
<path d="M111.449 114.602C111.393 114.639 111.309 114.63 111.262 114.564L110.954 114.106C110.916 114.05 110.925 113.966 110.991 113.919C111.056 113.872 111.131 113.891 111.178 113.957L111.487 114.415C111.524 114.471 111.515 114.555 111.449 114.602Z" fill="white"/>
<path d="M110.832 113.695C110.776 113.732 110.692 113.723 110.645 113.657L110.336 113.199C110.299 113.143 110.308 113.059 110.374 113.012C110.439 112.965 110.514 112.984 110.561 113.05L110.869 113.508C110.907 113.564 110.897 113.648 110.832 113.695Z" fill="white"/>
<path d="M112.076 115.509C112.019 115.546 111.935 115.537 111.889 115.471L111.58 115.013C111.543 114.957 111.552 114.873 111.617 114.826C111.683 114.779 111.758 114.798 111.804 114.864L112.113 115.322C112.15 115.378 112.141 115.462 112.076 115.509Z" fill="white"/>
<path d="M113.319 117.332C113.263 117.369 113.179 117.36 113.132 117.295L112.824 116.837C112.786 116.78 112.796 116.696 112.861 116.65C112.926 116.603 113.001 116.621 113.048 116.687L113.357 117.145C113.394 117.201 113.385 117.285 113.319 117.332Z" fill="white"/>
<path d="M112.693 116.416C112.637 116.453 112.552 116.444 112.506 116.378L112.197 115.92C112.16 115.864 112.169 115.78 112.235 115.733C112.3 115.686 112.375 115.705 112.422 115.771L112.73 116.229C112.768 116.285 112.758 116.369 112.693 116.416Z" fill="white"/>
<path d="M113.936 118.239C113.88 118.277 113.796 118.267 113.749 118.202L113.441 117.744C113.403 117.687 113.413 117.603 113.478 117.557C113.544 117.51 113.618 117.528 113.665 117.594L113.974 118.052C114.011 118.108 114.002 118.192 113.936 118.239Z" fill="white"/>
<path d="M115.18 120.062C115.124 120.1 115.04 120.091 114.993 120.025L114.684 119.567C114.647 119.511 114.656 119.427 114.722 119.38C114.787 119.333 114.862 119.352 114.909 119.417L115.217 119.875C115.255 119.932 115.245 120.016 115.18 120.062Z" fill="white"/>
<path d="M114.563 119.146C114.507 119.183 114.423 119.174 114.376 119.109L114.067 118.651C114.03 118.594 114.039 118.51 114.105 118.464C114.17 118.417 114.245 118.435 114.292 118.501L114.6 118.959C114.638 119.015 114.628 119.099 114.563 119.146Z" fill="white"/>
<path d="M115.806 120.969C115.75 121.007 115.666 120.998 115.619 120.932L115.311 120.474C115.273 120.418 115.283 120.334 115.348 120.287C115.414 120.24 115.488 120.259 115.535 120.324L115.844 120.782C115.881 120.839 115.872 120.923 115.806 120.969Z" fill="white"/>
</g>
<path d="M45.4904 159.428L48.492 151.275H49.5299L52.5221 159.428H51.4841L50.7361 157.334H47.267L46.5096 159.428H45.4811H45.4904ZM47.5663 156.539H50.4556L49.0156 152.509L47.5756 156.539H47.5663Z" fill="#727373"/>
<path d="M60.7224 159.428V151.275H61.7042L66.0429 157.811V151.275H67.0247V159.428H66.0429L61.7042 152.892V159.428H60.7224Z" fill="#727373"/>
<path d="M75.2158 159.428L78.2173 151.275H79.2552L82.2474 159.428H81.2095L80.4614 157.334H76.9924L76.235 159.428H75.2064H75.2158ZM77.2916 156.539H80.1809L78.7409 152.509L77.3009 156.539H77.2916Z" fill="#727373"/>
<path d="M90.4479 159.428V151.275H91.4297V158.643H95.226V159.419H90.4479V159.428Z" fill="#727373"/>
<path d="M104.408 159.428V156.333L101.753 151.284H102.856L104.894 155.408L106.933 151.284H108.027L105.381 156.333V159.428H104.399H104.408Z" fill="#727373"/>
<path d="M115.76 159.428V158.662L119.781 152.125H115.825V151.275H120.921V152.041L116.891 158.577H120.968V159.428H115.76Z" fill="#727373"/>
<path d="M129.318 159.428V151.275H134.358V152.079H130.291V154.921H134.003V155.716H130.291V158.624H134.358V159.428H129.318Z" fill="#727373"/>
<path d="M155.359 159.569C154.798 159.569 154.312 159.466 153.882 159.26C153.461 159.054 153.125 158.764 152.891 158.4C152.657 158.035 152.536 157.596 152.536 157.091C152.536 156.539 152.694 156.053 153.022 155.623C153.34 155.192 153.807 154.856 154.424 154.603C154.163 154.314 153.966 154.042 153.854 153.781C153.742 153.519 153.676 153.238 153.676 152.939C153.676 152.415 153.863 151.995 154.228 151.649C154.593 151.312 155.107 151.144 155.752 151.144C156.173 151.144 156.538 151.228 156.846 151.387C157.155 151.546 157.398 151.761 157.566 152.041C157.734 152.322 157.819 152.64 157.8 152.995H156.837C156.837 152.649 156.734 152.378 156.519 152.2C156.304 152.023 156.042 151.929 155.752 151.929C155.406 151.929 155.135 152.023 154.939 152.21C154.742 152.397 154.649 152.63 154.649 152.92C154.649 153.173 154.714 153.407 154.854 153.64C154.995 153.874 155.191 154.136 155.462 154.416L158.034 157.016C158.258 156.689 158.501 156.296 158.763 155.838L159.128 155.211H160.166L159.651 156.118C159.305 156.735 158.987 157.24 158.669 157.652L160.427 159.419H159.193L158.108 158.325C157.697 158.764 157.267 159.082 156.827 159.279C156.388 159.475 155.892 159.559 155.35 159.559L155.359 159.569ZM153.517 157.053C153.517 157.53 153.686 157.932 154.032 158.25C154.368 158.568 154.817 158.727 155.369 158.727C155.78 158.727 156.154 158.643 156.491 158.484C156.827 158.325 157.164 158.063 157.482 157.698L155.013 155.192C154.499 155.398 154.125 155.651 153.882 155.959C153.639 156.268 153.517 156.632 153.517 157.044V157.053Z" fill="#727373"/>
<path d="M180.437 159.428V152.079H178.006V151.275H183.85V152.079H181.419V159.428H180.437Z" fill="#727373"/>
<path d="M192.032 159.428V151.275H194.66C195.296 151.275 195.819 151.377 196.221 151.593C196.623 151.808 196.923 152.088 197.119 152.453C197.315 152.817 197.409 153.22 197.409 153.659C197.409 154.173 197.269 154.631 196.997 155.043C196.726 155.454 196.296 155.744 195.707 155.912L197.493 159.419H196.343L194.688 156.053H193.014V159.419H192.032V159.428ZM193.005 155.295H194.585C195.211 155.295 195.67 155.146 195.959 154.837C196.249 154.538 196.39 154.145 196.39 153.668C196.39 153.191 196.249 152.808 195.969 152.518C195.688 152.238 195.221 152.097 194.576 152.097H193.005V155.286V155.295Z" fill="#727373"/>
<path d="M205.403 159.428L208.405 151.275H209.443L212.435 159.428H211.397L210.649 157.334H207.18L206.423 159.428H205.394H205.403ZM207.479 156.539H210.369L208.929 152.509L207.489 156.539H207.479Z" fill="#727373"/>
<path d="M220.635 159.428V151.275H223.141C224.581 151.275 225.638 151.639 226.311 152.369C226.985 153.098 227.33 154.098 227.33 155.37C227.33 156.642 226.994 157.605 226.311 158.334C225.629 159.064 224.572 159.419 223.141 159.419H220.635V159.428ZM221.617 158.615H223.123C223.918 158.615 224.544 158.484 225.012 158.222C225.479 157.96 225.816 157.586 226.021 157.1C226.227 156.614 226.321 156.043 226.321 155.37C226.321 154.697 226.218 154.098 226.021 153.612C225.816 153.126 225.488 152.743 225.012 152.481C224.544 152.219 223.908 152.088 223.123 152.088H221.617V158.605V158.615Z" fill="#727373"/>
<path d="M235.727 159.428V151.275H240.767V152.079H236.7V154.921H240.412V155.716H236.7V158.624H240.767V159.428H235.727Z" fill="#727373"/>
<path d="M278.431 157.745L275.411 159.578L276.215 156.146L273.56 153.837L277.057 153.537L278.431 150.312L279.806 153.537L283.331 153.837L280.657 156.146L281.461 159.578L278.441 157.745H278.431Z" fill="#D81F26"/>
<path d="M7.21868 157.493L4.19845 159.325L5.0026 155.894L2.34705 153.584L5.84415 153.285L7.21868 150.059L8.59321 153.285L12.1184 153.584L9.4441 155.894L10.2483 159.325L7.22802 157.493H7.21868Z" fill="#D81F26"/>
<path d="M40.4598 153.827C40.3009 154.183 40.1793 154.566 40.1045 154.968H15.5874C15.5126 154.566 15.391 154.183 15.2321 153.827H40.4598Z" fill="#412E86"/>
<path d="M40.3383 157.895H15.3536C15.4939 157.53 15.5874 157.147 15.6342 156.754H40.0484C40.1045 157.147 40.198 157.53 40.3289 157.895H40.3383Z" fill="#D81F26"/>
<path d="M271.334 153.827C271.175 154.183 271.054 154.566 270.979 154.968H246.462C246.387 154.566 246.265 154.183 246.106 153.827H271.334Z" fill="#412E86"/>
<path d="M271.213 157.895H246.228C246.368 157.53 246.462 157.147 246.508 156.754H270.923C270.979 157.147 271.072 157.53 271.203 157.895H271.213Z" fill="#D81F26"/>
<path d="M116.227 69.2652C116.379 69.2652 119.136 68.9758 123.781 67.3919C118.755 60.6451 115.785 52.2839 115.785 43.2222C115.785 20.8344 133.954 1.75143 156.312 2.69568C165.967 3.10688 172.775 4.46233 179.857 10.5238C171.618 2.81751 163.348 0 151.179 0C125.73 0 105.094 20.6364 105.094 46.0854C105.094 54.5684 107.394 62.5183 111.384 69.3413C111.795 69.3413 112.237 69.3565 112.694 69.3565C113.79 69.3565 114.978 69.3261 116.196 69.2499L116.227 69.2652Z" fill="white"/>
<path d="M136.863 61.3457V33.9016L125.715 41.9581V66.6913C127.284 66.0974 129.02 65.3663 130.924 64.4678C132.705 63.6301 134.685 62.5945 136.863 61.3457Z" fill="white"/>
<path d="M151.392 22.9513L140.244 31.0079V59.3049C143.641 57.1575 147.372 54.5075 151.392 51.2483V22.9513Z" fill="white"/>
<path d="M166.181 37.3283V11.7117L155.032 19.7683V48.1567C158.596 45.0498 162.327 41.4555 166.181 37.3283Z" fill="white"/>
<path d="M156.327 83.764C149.702 83.764 143.458 82.1801 137.945 79.3625C135.31 80.5809 130.604 82.5608 125.091 84.0685C132.523 89.1858 141.524 92.186 151.225 92.186C165.495 92.186 178.258 85.6981 186.71 75.5094C184.395 75.9815 182.02 76.2861 179.598 76.4384C173.019 81.053 164.993 83.764 156.342 83.764H156.327Z" fill="white"/>
<path d="M176.857 30.3835L170.171 38.8817C137.153 73.5295 116.501 73.2554 116.501 73.2554C88.2192 74.9459 100.007 58.117 100.007 58.117C97.0068 60.8431 95.3772 63.4779 94.5853 65.8689C92.7577 71.3364 95.3468 77.2913 100.449 79.9717C114.338 87.2211 138.356 74.7631 138.356 74.7631C163.79 61.2695 177.694 44.2578 184.182 34.3585C181.167 34.2214 178.517 32.6984 176.857 30.3987V30.3835Z" fill="white"/>
<path d="M184.624 32.0131C188.628 32.0131 191.873 28.7674 191.873 24.7637C191.873 20.76 188.628 17.5143 184.624 17.5143C180.62 17.5143 177.375 20.76 177.375 24.7637C177.375 28.7674 180.62 32.0131 184.624 32.0131Z" fill="#CB2129"/>
<path d="M184.274 17.5296C185.507 18.0474 186.604 18.9307 187.426 20.1034C189.68 23.4083 188.843 27.9163 185.538 30.1856C184.395 30.9775 183.101 31.3735 181.806 31.4344C183.999 32.3634 186.619 32.1959 188.736 30.7491C192.041 28.495 192.894 23.9718 190.624 20.6669C189.147 18.5043 186.71 17.3925 184.289 17.5144L184.274 17.5296Z" fill="#A91F25"/>
<path d="M179.827 28.8301C177.725 25.7536 178.517 21.5654 181.593 19.479C183.39 18.2453 185.568 18.0169 187.487 18.6413C185.385 17.6362 182.827 17.7428 180.756 19.1439C177.679 21.2456 176.902 25.4338 178.989 28.495C179.857 29.7743 181.091 30.6576 182.461 31.0993C181.441 30.6119 180.512 29.8352 179.827 28.8301Z" fill="#DF2D41"/>
<mask id="mask1_1439_2936" style="mask-type:luminance" maskUnits="userSpaceOnUse" x="177" y="17" width="15" height="16">
<path d="M184.624 32.0131C188.628 32.0131 191.873 28.7674 191.873 24.7637C191.873 20.76 188.628 17.5143 184.624 17.5143C180.62 17.5143 177.375 20.76 177.375 24.7637C177.375 28.7674 180.62 32.0131 184.624 32.0131Z" fill="white"/>
</mask>
<g mask="url(#mask1_1439_2936)">
<path d="M180.009 17.8423L179.846 17.954L188.826 31.0936L188.989 30.9819L180.009 17.8423Z" fill="white"/>
<path d="M180.192 21.0932C180.192 21.0932 180.04 21.1237 180.009 21.0628L179.689 20.5906C179.689 20.5906 179.659 20.4383 179.72 20.4079C179.781 20.3774 179.872 20.3774 179.903 20.4383L180.223 20.9105C180.223 20.9105 180.253 21.0628 180.192 21.0932Z" fill="white"/>
<path d="M179.552 20.1643C179.552 20.1643 179.4 20.1947 179.37 20.1338L179.05 19.6617C179.05 19.6617 179.019 19.5094 179.08 19.4789C179.141 19.4485 179.233 19.4485 179.263 19.5094L179.583 19.9815C179.583 19.9815 179.613 20.1338 179.552 20.1643Z" fill="white"/>
<path d="M180.832 22.0375C180.832 22.0375 180.679 22.0679 180.649 22.007L180.329 21.5349C180.329 21.5349 180.299 21.3826 180.36 21.3521C180.421 21.3217 180.512 21.3217 180.542 21.3826L180.862 21.8547C180.862 21.8547 180.893 22.007 180.832 22.0375Z" fill="white"/>
<path d="M182.126 23.9108C182.126 23.9108 181.974 23.9413 181.944 23.8803L181.624 23.4082C181.624 23.4082 181.593 23.2559 181.654 23.2255C181.715 23.195 181.806 23.195 181.837 23.2559L182.157 23.728C182.157 23.728 182.187 23.8803 182.126 23.9108Z" fill="white"/>
<path d="M181.471 22.9665C181.471 22.9665 181.319 22.997 181.289 22.9361L180.969 22.464C180.969 22.464 180.938 22.3117 180.999 22.2812C181.06 22.2507 181.152 22.2507 181.182 22.3117L181.502 22.7838C181.502 22.7838 181.532 22.9361 181.471 22.9665Z" fill="white"/>
<path d="M182.766 24.855C182.766 24.855 182.614 24.8855 182.583 24.8246L182.263 24.3525C182.263 24.3525 182.233 24.2002 182.294 24.1697C182.355 24.1392 182.446 24.1392 182.477 24.2002L182.796 24.6723C182.796 24.6723 182.827 24.8246 182.766 24.855Z" fill="white"/>
<path d="M184.045 26.7283C184.045 26.7283 183.893 26.7587 183.862 26.6978L183.543 26.2257C183.543 26.2257 183.512 26.0734 183.573 26.0429C183.634 26.0125 183.725 26.0125 183.756 26.0734L184.076 26.5455C184.076 26.5455 184.106 26.6978 184.045 26.7283Z" fill="white"/>
<path d="M183.406 25.784C183.406 25.784 183.253 25.8145 183.223 25.7536L182.903 25.2814C182.903 25.2814 182.873 25.1291 182.933 25.0987C182.994 25.0682 183.086 25.0682 183.116 25.1291L183.436 25.6013C183.436 25.6013 183.467 25.7536 183.406 25.784Z" fill="white"/>
<path d="M184.685 27.6725C184.685 27.6725 184.533 27.703 184.502 27.6421L184.182 27.1699C184.182 27.1699 184.152 27.0176 184.213 26.9872C184.274 26.9567 184.365 26.9567 184.396 27.0176L184.715 27.4898C184.715 27.4898 184.746 27.6421 184.685 27.6725Z" fill="white"/>
<path d="M185.964 29.5457C185.964 29.5457 185.812 29.5762 185.781 29.5153L185.462 29.0432C185.462 29.0432 185.431 28.8909 185.492 28.8604C185.553 28.8299 185.644 28.8299 185.675 28.8909L185.995 29.363C185.995 29.363 186.025 29.5153 185.964 29.5457Z" fill="white"/>
<path d="M185.325 28.6015C185.325 28.6015 185.172 28.632 185.142 28.571L184.822 28.0989C184.822 28.0989 184.791 27.9466 184.852 27.9162C184.913 27.8857 185.005 27.8857 185.035 27.9466L185.355 28.4187C185.355 28.4187 185.385 28.571 185.325 28.6015Z" fill="white"/>
<path d="M186.604 30.4901C186.604 30.4901 186.452 30.5205 186.421 30.4596L186.101 29.9875C186.101 29.9875 186.071 29.8352 186.132 29.8047C186.193 29.7743 186.284 29.7743 186.314 29.8352L186.634 30.3073C186.634 30.3073 186.665 30.4596 186.604 30.4901Z" fill="white"/>
<path d="M187.243 31.4038C187.243 31.4038 187.091 31.4343 187.061 31.3734L186.741 30.9012C186.741 30.9012 186.71 30.749 186.771 30.7185C186.832 30.688 186.924 30.688 186.954 30.749L187.274 31.2211C187.274 31.2211 187.304 31.3734 187.243 31.4038Z" fill="white"/>
<path d="M182.461 18.7784C182.461 18.7784 182.309 18.8089 182.278 18.7479L181.959 18.2758C181.959 18.2758 181.928 18.1235 181.989 18.0931C182.05 18.0626 182.141 18.0626 182.172 18.1235L182.492 18.5957C182.492 18.5957 182.522 18.7479 182.461 18.7784Z" fill="white"/>
<path d="M183.756 20.6669C183.756 20.6669 183.603 20.6974 183.573 20.6364L183.253 20.1643C183.253 20.1643 183.223 20.012 183.284 19.9816C183.344 19.9511 183.436 19.9511 183.466 20.012L183.786 20.4841C183.786 20.4841 183.817 20.6364 183.756 20.6669Z" fill="white"/>
<path d="M183.101 19.7226C183.101 19.7226 182.948 19.7531 182.918 19.6922L182.598 19.22C182.598 19.22 182.568 19.0677 182.629 19.0373C182.69 19.0068 182.781 19.0068 182.811 19.0677L183.131 19.5399C183.131 19.5399 183.162 19.6922 183.101 19.7226Z" fill="white"/>
<path d="M184.395 21.5959C184.395 21.5959 184.243 21.6263 184.213 21.5654L183.893 21.0933C183.893 21.0933 183.862 20.941 183.923 20.9105C183.984 20.8801 184.076 20.8801 184.106 20.941L184.426 21.4131C184.426 21.4131 184.456 21.5654 184.395 21.5959Z" fill="white"/>
<path d="M185.675 23.4844C185.675 23.4844 185.522 23.5149 185.492 23.454L185.172 22.9818C185.172 22.9818 185.142 22.8296 185.203 22.7991C185.263 22.7686 185.355 22.7686 185.385 22.8295L185.705 23.3017C185.705 23.3017 185.736 23.454 185.675 23.4844Z" fill="white"/>
<path d="M185.035 22.5401C185.035 22.5401 184.883 22.5706 184.852 22.5096L184.533 22.0375C184.533 22.0375 184.502 21.8852 184.563 21.8548C184.624 21.8243 184.715 21.8243 184.746 21.8852L185.066 22.3573C185.066 22.3573 185.096 22.5096 185.035 22.5401Z" fill="white"/>
<path d="M186.314 24.4134C186.314 24.4134 186.162 24.4439 186.132 24.383L185.812 23.9109C185.812 23.9109 185.781 23.7586 185.842 23.7281C185.903 23.6976 185.994 23.6976 186.025 23.7586L186.345 24.2307C186.345 24.2307 186.375 24.383 186.314 24.4134Z" fill="white"/>
<path d="M187.594 26.3019C187.594 26.3019 187.441 26.3324 187.411 26.2714L187.091 25.7993C187.091 25.7993 187.061 25.647 187.122 25.6166C187.182 25.5861 187.274 25.5861 187.304 25.647L187.624 26.1191C187.624 26.1191 187.655 26.2714 187.594 26.3019Z" fill="white"/>
<path d="M186.954 25.3577C186.954 25.3577 186.802 25.3882 186.771 25.3272L186.451 24.8551C186.451 24.8551 186.421 24.7028 186.482 24.6724C186.543 24.6419 186.634 24.6419 186.665 24.7028L186.985 25.1749C186.985 25.1749 187.015 25.3272 186.954 25.3577Z" fill="white"/>
<path d="M188.248 27.2309C188.248 27.2309 188.096 27.2614 188.066 27.2005L187.746 26.7283C187.746 26.7283 187.715 26.576 187.776 26.5456C187.837 26.5151 187.929 26.5151 187.959 26.576L188.279 27.0482C188.279 27.0482 188.309 27.2005 188.248 27.2309Z" fill="white"/>
<path d="M189.528 29.1194C189.528 29.1194 189.376 29.1498 189.345 29.0889L189.025 28.6168C189.025 28.6168 188.995 28.4645 189.056 28.434C189.117 28.4036 189.208 28.4036 189.239 28.4645L189.558 28.9366C189.558 28.9366 189.589 29.0889 189.528 29.1194Z" fill="white"/>
<path d="M188.888 28.1752C188.888 28.1752 188.736 28.2056 188.705 28.1447L188.386 27.6726C188.386 27.6726 188.355 27.5203 188.416 27.4898C188.477 27.4594 188.568 27.4594 188.599 27.5203L188.919 27.9924C188.919 27.9924 188.949 28.1447 188.888 28.1752Z" fill="white"/>
<path d="M190.168 30.0485C190.168 30.0485 190.015 30.0789 189.985 30.018L189.665 29.5459C189.665 29.5459 189.635 29.3936 189.695 29.3631C189.756 29.3327 189.848 29.3327 189.878 29.3936L190.198 29.8657C190.198 29.8657 190.228 30.018 190.168 30.0485Z" fill="white"/>
</g>
</svg>
