<svg width="343" height="52" viewBox="0 0 343 52" fill="none" xmlns="http://www.w3.org/2000/svg">
<path d="M152.508 27.2478L155.874 22.4416L164.224 35.1677H157.221L152.508 27.2478Z" fill="white"/>
<path d="M162.532 14.7555C147.646 20.0853 144.916 33.6529 144.916 33.6529C145.43 18.1497 159.587 11.1462 159.587 11.1462L159.736 11.3051C160.353 12.689 161.316 13.8765 162.532 14.7555Z" fill="white"/>
<path d="M159.007 7.84541C159.007 8.5654 159.1 9.26669 159.269 9.93058L159.241 10.1269C154.36 12.7357 150.563 17.5419 150.563 17.5419C151.003 14.8022 157.501 7.48074 159.353 5.44232C159.128 6.20907 159.007 7.00386 159.007 7.84541Z" fill="white"/>
<path d="M148.964 16.4105L148.88 11.1836L146.814 10.3794L146.683 0.598755H145.084L145 10.4636C145 10.4636 143.41 10.8844 143.064 11.3893C143.064 14.849 142.896 25.546 142.896 25.546C142.961 26.0042 145.598 19.3279 148.964 16.4012V16.4105Z" fill="white"/>
<path d="M84.0154 23.3673C83.9032 24.9849 83.5666 26.4904 82.9869 27.8836C82.4071 29.2768 81.5936 30.4924 80.5277 31.5209C79.4617 32.5495 78.1339 33.3537 76.5443 33.9427C74.9548 34.5318 73.1127 34.8217 70.9995 34.8217C68.6151 34.8217 66.5486 34.4477 64.8001 33.709C63.0515 32.9703 61.6022 31.9324 60.4521 30.5859C59.3019 29.2488 58.4417 27.6405 57.862 25.761C57.2822 23.8816 57.0017 21.8244 57.0017 19.5803C57.0017 17.3362 57.2916 15.1855 57.8807 13.278C58.4697 11.3799 59.358 9.74353 60.5456 8.369C61.7331 7.00382 63.2105 5.92851 64.9777 5.17111C66.745 4.40437 68.8208 4.021 71.1958 4.021C74.8051 4.021 77.6384 4.91865 79.6768 6.71395C81.7152 8.50926 83.0056 11.062 83.5573 14.372L75.7121 15.279C75.5719 14.6526 75.3942 14.0635 75.1792 13.5118C74.9641 12.9601 74.6649 12.4926 74.3002 12.0999C73.9262 11.7071 73.468 11.3892 72.9257 11.1555C72.374 10.9217 71.7195 10.8095 70.9527 10.8095C67.2032 10.8095 65.3237 13.6708 65.3237 19.3933C65.3237 20.9829 65.4639 22.3294 65.7351 23.4421C66.0063 24.5548 66.399 25.4431 66.9039 26.135C67.4089 26.8176 68.0166 27.3132 68.7086 27.6124C69.4099 27.9116 70.1766 28.0612 71.0275 28.0612C73.8981 28.0612 75.5438 26.4997 75.9553 23.3766H84.0061L84.0154 23.3673Z" fill="white"/>
<path d="M87.3069 12.5207H94.5349V15.1482C95.3016 14.1103 96.1806 13.3529 97.1624 12.8667C98.1442 12.3898 99.2849 12.1467 100.566 12.1467C101.361 12.1467 102.062 12.2121 102.66 12.3524L101.838 18.7201C101.538 18.6359 101.183 18.5798 100.772 18.5331C100.36 18.4863 99.9488 18.4676 99.5374 18.4676C98.939 18.4676 98.3405 18.5331 97.7514 18.6546C97.1624 18.7762 96.6387 19.0006 96.1712 19.3279C95.6756 19.7113 95.311 20.1881 95.0865 20.7679C94.8528 21.3383 94.7406 22.0956 94.7406 23.0307V34.0737H87.3069V12.5207Z" fill="white"/>
<path d="M112.965 4.7691V10.1457H105.447V4.7691H112.965ZM112.927 12.5207V34.0737H105.494V12.5207H112.927Z" fill="white"/>
<path d="M137.594 25.7891C137.454 27.1075 137.173 28.3138 136.734 29.4265C136.294 30.5392 135.668 31.4836 134.845 32.2597C134.022 33.0358 133.003 33.6529 131.787 34.083C130.572 34.5225 129.141 34.7376 127.495 34.7376C125.635 34.7376 124.017 34.4571 122.652 33.896C121.287 33.335 120.165 32.5683 119.304 31.5958C118.444 30.6233 117.79 29.4358 117.35 28.0426C116.911 26.6494 116.696 25.1252 116.696 23.4889C116.696 21.6842 116.939 20.0572 117.434 18.6266C117.93 17.196 118.64 15.971 119.566 14.9705C120.492 13.97 121.642 13.2033 123.017 12.6703C124.382 12.1373 125.943 11.8661 127.701 11.8661C129.291 11.8661 130.656 12.0812 131.806 12.502C132.956 12.9228 133.919 13.5025 134.705 14.2225C135.481 14.9518 136.098 15.8027 136.528 16.7845C136.968 17.7663 137.239 18.8136 137.351 19.9076L130.244 20.6089C130.132 19.8422 129.87 19.1783 129.468 18.6172C129.057 18.0562 128.402 17.7757 127.495 17.7757C126.373 17.7757 125.541 18.2432 125.008 19.1783C124.475 20.1133 124.204 21.4972 124.204 23.3393C124.204 25.0691 124.457 26.4156 124.961 27.3787C125.466 28.3418 126.308 28.8187 127.486 28.8187C129.207 28.8187 130.179 27.8088 130.403 25.7798H137.585L137.594 25.7891Z" fill="white"/>
<path d="M185.796 22.7034C185.796 21.0577 185.572 19.571 185.142 18.2339C184.702 16.8874 184.048 15.7466 183.169 14.8022C182.299 13.8672 181.214 13.1378 179.924 12.6329C178.634 12.128 177.147 11.8755 175.445 11.8755C175.305 11.8755 175.165 11.8755 175.024 11.8755C173.584 14.5497 170.77 16.3731 167.525 16.3731C167.132 16.3731 166.74 16.345 166.356 16.2983C165.907 16.9902 165.524 17.7757 165.216 18.6266C164.701 20.0853 164.439 21.759 164.439 23.6478C164.439 27.2104 165.356 29.9501 167.189 31.867C169.021 33.7838 171.752 34.7376 175.361 34.7376C178.269 34.7376 180.588 34.1111 182.336 32.8488C184.085 31.5958 185.179 29.6883 185.618 27.1449H178.68C178.269 28.6504 177.137 29.3984 175.267 29.3984C174.061 29.3984 173.182 29.0618 172.621 28.3979C172.06 27.7247 171.705 26.6026 171.574 25.0504H185.777V22.7128L185.796 22.7034ZM171.593 20.8146C171.705 19.6738 172.06 18.7668 172.659 18.1123C173.257 17.4484 174.192 17.1211 175.454 17.1211C176.605 17.1211 177.455 17.411 178.026 17.9814C178.577 18.5611 178.895 19.5055 178.942 20.8146H171.593Z" fill="white"/>
<path d="M191.135 18.3181H187.685V12.5301H191.135V6.86365H198.569V12.5301H203.253V18.3181H198.569V26.0229C198.569 27.0141 198.784 27.678 199.223 28.0239C199.663 28.3699 200.261 28.5382 201.028 28.5382C201.655 28.5382 202.346 28.4541 203.085 28.2951L204.03 33.681C202.356 34.1953 200.663 34.4571 198.943 34.4571C196.119 34.4571 194.118 33.8026 192.93 32.4841C191.743 31.1657 191.145 29.1179 191.145 26.3221V18.3181H191.135Z" fill="white"/>
<path d="M216.017 4.76912H226.976C229.276 4.76912 231.184 5.03093 232.708 5.54521C234.223 6.06884 235.429 6.77013 236.317 7.65843C237.205 8.54674 237.832 9.58465 238.187 10.7628C238.543 11.941 238.72 13.2033 238.72 14.5404C238.72 15.8776 238.533 17.2053 238.169 18.4209C237.795 19.6365 237.159 20.7024 236.261 21.6188C235.354 22.5351 234.157 23.2551 232.67 23.7694C231.174 24.293 229.314 24.5455 227.069 24.5455H223.666V34.0737H216.026V4.75977L216.017 4.76912ZM223.656 18.2713H227.023C228.668 18.2713 229.809 17.9627 230.454 17.3456C231.1 16.7285 231.417 15.8028 231.417 14.5778C231.417 13.3529 231.09 12.4459 230.436 11.8662C229.781 11.2864 228.631 11.0059 226.985 11.0059H223.656V18.2713Z" fill="white"/>
<path d="M253.746 34.083V31.7454C252.867 32.6805 251.923 33.3911 250.894 33.9054C249.866 34.4103 248.641 34.6628 247.22 34.6628C246.257 34.6628 245.34 34.5412 244.471 34.2888C243.592 34.0456 242.825 33.6529 242.152 33.1199C241.478 32.587 240.945 31.9137 240.553 31.1096C240.16 30.3054 239.954 29.3236 239.954 28.1735C239.954 26.8551 240.225 25.7611 240.758 24.8728C241.291 23.9845 242.021 23.2551 242.956 22.6941C243.882 22.133 244.985 21.7216 246.238 21.4598C247.5 21.198 248.847 21.0297 250.305 20.9455L253.55 20.7772V19.917C253.55 18.851 253.288 18.1123 252.774 17.7009C252.25 17.2895 251.596 17.0838 250.801 17.0838C249.099 17.0838 248.136 17.7944 247.884 19.2157L241.189 18.6827C241.572 16.3825 242.601 14.6713 244.265 13.5492C245.929 12.4272 248.22 11.8661 251.119 11.8661C252.924 11.8661 254.438 12.0812 255.654 12.502C256.869 12.9228 257.851 13.5212 258.59 14.2879C259.329 15.0547 259.862 15.9804 260.189 17.0557C260.516 18.1404 260.684 19.3466 260.684 20.6931V34.0737H253.746V34.083ZM253.503 24.9663L251.119 25.0878C249.557 25.172 248.501 25.4338 247.94 25.8639C247.379 26.3034 247.098 26.8738 247.098 27.5844C247.098 28.2951 247.313 28.8 247.734 29.0992C248.155 29.3984 248.753 29.548 249.52 29.548C250.67 29.548 251.624 29.2301 252.372 28.5849C253.12 27.9397 253.503 26.9766 253.503 25.6863V24.9476V24.9663Z" fill="white"/>
<path d="M272.223 12.5207V15.064C273.102 13.9139 274.075 13.0911 275.159 12.6048C276.244 12.1093 277.441 11.8661 278.75 11.8661C280.966 11.8661 282.686 12.5207 283.902 13.8204C285.118 15.1201 285.725 17.0744 285.725 19.6739V34.083H278.292V20.8614C278.292 19.7393 278.077 18.9819 277.656 18.5798C277.235 18.1871 276.637 17.9814 275.87 17.9814C274.888 17.9814 274.065 18.2993 273.411 18.9258C273.111 19.225 272.868 19.571 272.691 19.9544C272.513 20.3377 272.42 20.8894 272.42 21.6001V34.083H264.986V12.53H272.214L272.223 12.5207Z" fill="white"/>
<path d="M304.333 34.0831V31.6613C302.8 33.7184 300.705 34.7376 298.049 34.7376C295.394 34.7376 293.159 33.7651 291.663 31.8202C290.167 29.8753 289.428 27.1356 289.428 23.6104C289.428 21.7497 289.643 20.0853 290.064 18.6266C290.485 17.1586 291.102 15.9337 291.887 14.9331C292.682 13.9326 293.636 13.1752 294.739 12.6516C295.852 12.128 297.086 11.8755 298.452 11.8755C300.864 11.8755 302.743 12.7264 304.118 14.4189V4.7691H311.552V34.0831H304.324H304.333ZM304.127 23.0307C304.127 22.0489 304.052 21.2261 303.903 20.5715C303.753 19.917 303.538 19.3934 303.267 19.01C302.94 18.5425 302.538 18.2245 302.061 18.0469C301.584 17.8692 301.098 17.7757 300.602 17.7757C299.508 17.7757 298.62 18.1871 297.956 19.01C297.283 19.8328 296.946 21.2541 296.946 23.2832C296.946 25.3122 297.273 26.6868 297.928 27.5096C298.582 28.3325 299.461 28.7439 300.555 28.7439C301.079 28.7439 301.565 28.6504 302.033 28.454C302.5 28.267 302.912 27.9023 303.267 27.3881C303.837 26.5652 304.127 25.3216 304.127 23.6478V23.0307Z" fill="white"/>
<path d="M323.548 4.7691V10.1457H316.031V4.7691H323.548ZM323.502 12.5207V34.0737H316.068V12.5207H323.502Z" fill="white"/>
<path d="M329.785 18.3181H326.335V12.5301H329.785V6.86365H337.219V12.5301H341.903V18.3181H337.219V26.0229C337.219 27.0141 337.434 27.678 337.873 28.0239C338.313 28.3699 338.911 28.5382 339.678 28.5382C340.304 28.5382 340.996 28.4541 341.726 28.2951L342.67 33.681C340.996 34.1953 339.304 34.4571 337.583 34.4571C334.76 34.4571 332.759 33.8026 331.571 32.4841C330.384 31.1657 329.785 29.1179 329.785 26.3221V18.3181Z" fill="white"/>
<path d="M167.441 14.8676C171.319 14.8676 174.463 11.7237 174.463 7.84538C174.463 3.96709 171.319 0.82312 167.441 0.82312C163.563 0.82312 160.419 3.96709 160.419 7.84538C160.419 11.7237 163.563 14.8676 167.441 14.8676Z" fill="#CB2129"/>
<path d="M167.095 0.832506C168.292 1.33744 169.358 2.17898 170.143 3.3291C172.331 6.53634 171.508 10.903 168.311 13.0911C167.198 13.8485 165.945 14.2505 164.692 14.3066C166.824 15.2136 169.358 15.0453 171.406 13.6428C174.613 11.4547 175.436 7.07867 173.238 3.88078C171.808 1.78626 169.451 0.710949 167.095 0.823155V0.832506Z" fill="#A91F25"/>
<path d="M162.784 11.7913C160.755 8.81785 161.513 4.75971 164.486 2.73064C166.225 1.54313 168.329 1.30936 170.19 1.91715C168.161 0.93534 165.674 1.0382 163.673 2.40338C160.699 4.43244 159.932 8.49058 161.971 11.4641C162.812 12.6983 164.009 13.5492 165.328 13.9793C164.336 13.5025 163.448 12.7638 162.775 11.782L162.784 11.7913Z" fill="#DF2D41"/>
<mask id="mask0_1439_3058" style="mask-type:luminance" maskUnits="userSpaceOnUse" x="160" y="0" width="15" height="15">
<path d="M167.441 14.8676C171.319 14.8676 174.463 11.7237 174.463 7.84538C174.463 3.96709 171.319 0.82312 167.441 0.82312C163.563 0.82312 160.419 3.96709 160.419 7.84538C160.419 11.7237 163.563 14.8676 167.441 14.8676Z" fill="white"/>
</mask>
<g mask="url(#mask0_1439_3058)">
<path d="M162.964 1.12602L162.802 1.23682L171.508 13.9746L171.67 13.8638L162.964 1.12602Z" fill="white"/>
<path d="M163.149 4.29212C163.093 4.32952 163.009 4.32017 162.962 4.25471L162.653 3.79654C162.616 3.74043 162.625 3.65628 162.691 3.60953C162.756 3.56278 162.831 3.58148 162.878 3.64693L163.186 4.10511C163.224 4.16121 163.214 4.24536 163.149 4.29212Z" fill="white"/>
<path d="M162.523 3.38513C162.466 3.42254 162.382 3.41319 162.336 3.34773L162.027 2.88956C161.99 2.83345 161.999 2.7493 162.064 2.70255C162.13 2.65579 162.205 2.67449 162.251 2.73995L162.56 3.19812C162.597 3.25423 162.588 3.33838 162.523 3.38513Z" fill="white"/>
<path d="M163.766 5.19916C163.71 5.23656 163.626 5.22721 163.579 5.16176L163.271 4.70358C163.233 4.64748 163.243 4.56332 163.308 4.51657C163.374 4.46982 163.448 4.48852 163.495 4.55397L163.804 5.01215C163.841 5.06825 163.832 5.15241 163.766 5.19916Z" fill="white"/>
<path d="M165.01 7.02253C164.954 7.05993 164.87 7.05058 164.823 6.98512L164.514 6.52695C164.477 6.47084 164.486 6.38669 164.552 6.33994C164.617 6.29318 164.692 6.31188 164.739 6.37734L165.047 6.83551C165.085 6.89162 165.075 6.97577 165.01 7.02253Z" fill="white"/>
<path d="M164.393 6.11548C164.337 6.15288 164.252 6.14353 164.206 6.07808L163.897 5.6199C163.86 5.5638 163.869 5.47964 163.935 5.43289C164 5.38614 164.075 5.40484 164.122 5.47029L164.43 5.92847C164.467 5.98457 164.458 6.06873 164.393 6.11548Z" fill="white"/>
<path d="M165.636 7.92951C165.58 7.96691 165.496 7.95756 165.449 7.89211L165.141 7.43393C165.103 7.37782 165.113 7.29367 165.178 7.24692C165.244 7.20017 165.318 7.21887 165.365 7.28432L165.674 7.7425C165.711 7.7986 165.702 7.88275 165.636 7.92951Z" fill="white"/>
<path d="M166.88 9.75287C166.824 9.79028 166.74 9.78092 166.693 9.71547L166.384 9.25729C166.347 9.20119 166.356 9.11703 166.422 9.07028C166.487 9.02353 166.562 9.04223 166.609 9.10769L166.917 9.56586C166.955 9.62196 166.945 9.70612 166.88 9.75287Z" fill="white"/>
<path d="M166.254 8.83655C166.197 8.87395 166.113 8.8646 166.067 8.79915L165.758 8.34097C165.721 8.28487 165.73 8.20071 165.795 8.15396C165.861 8.10721 165.936 8.12591 165.982 8.19136L166.291 8.64954C166.328 8.70564 166.319 8.7898 166.254 8.83655Z" fill="white"/>
<path d="M167.497 10.6599C167.441 10.6973 167.357 10.688 167.31 10.6225L167.002 10.1643C166.964 10.1082 166.974 10.0241 167.039 9.97733C167.104 9.93057 167.179 9.94927 167.226 10.0147L167.535 10.4729C167.572 10.529 167.563 10.6132 167.497 10.6599Z" fill="white"/>
<path d="M168.741 12.4832C168.684 12.5206 168.6 12.5113 168.554 12.4458L168.245 11.9876C168.208 11.9315 168.217 11.8474 168.282 11.8006C168.348 11.7539 168.423 11.7726 168.469 11.838L168.778 12.2962C168.815 12.3523 168.806 12.4365 168.741 12.4832Z" fill="white"/>
<path d="M168.124 11.5669C168.068 11.6043 167.983 11.5949 167.937 11.5295L167.628 11.0713C167.591 11.0152 167.6 10.9311 167.665 10.8843C167.731 10.8376 167.806 10.8563 167.852 10.9217L168.161 11.3799C168.198 11.436 168.189 11.5201 168.124 11.5669Z" fill="white"/>
<path d="M169.358 13.3903C169.302 13.4277 169.218 13.4183 169.171 13.3529L168.862 12.8947C168.825 12.8386 168.834 12.7544 168.9 12.7077C168.965 12.6609 169.04 12.6796 169.087 12.7451L169.395 13.2033C169.433 13.2594 169.423 13.3435 169.358 13.3903Z" fill="white"/>
<path d="M169.975 14.2878C169.919 14.3252 169.835 14.3159 169.788 14.2504L169.479 13.7923C169.442 13.7362 169.451 13.652 169.517 13.6053C169.582 13.5585 169.657 13.5772 169.704 13.6427L170.012 14.1008C170.05 14.1569 170.04 14.2411 169.975 14.2878Z" fill="white"/>
<path d="M165.347 2.04804C165.29 2.08544 165.206 2.07609 165.16 2.01064L164.851 1.55246C164.814 1.49636 164.823 1.4122 164.888 1.36545C164.954 1.3187 165.029 1.3374 165.075 1.40285L165.384 1.86103C165.421 1.91713 165.412 2.00129 165.347 2.04804Z" fill="white"/>
<path d="M166.59 3.8714C166.534 3.9088 166.45 3.89945 166.403 3.834L166.095 3.37582C166.057 3.31972 166.067 3.23557 166.132 3.18881C166.197 3.14206 166.272 3.16076 166.319 3.22621L166.628 3.68439C166.665 3.7405 166.656 3.82465 166.59 3.8714Z" fill="white"/>
<path d="M165.973 2.96436C165.917 3.00176 165.833 2.99241 165.786 2.92696L165.477 2.46878C165.44 2.41268 165.449 2.32852 165.515 2.28177C165.58 2.23502 165.655 2.25372 165.702 2.31917L166.01 2.77735C166.048 2.83345 166.038 2.91761 165.973 2.96436Z" fill="white"/>
<path d="M167.217 4.77839C167.161 4.81579 167.076 4.80644 167.03 4.74098L166.721 4.28281C166.684 4.2267 166.693 4.14255 166.758 4.09579C166.824 4.04904 166.899 4.06774 166.946 4.1332L167.254 4.59137C167.291 4.64748 167.282 4.73163 167.217 4.77839Z" fill="white"/>
<path d="M168.451 6.60175C168.395 6.63915 168.311 6.6298 168.264 6.56435L167.955 6.10617C167.918 6.05007 167.927 5.96591 167.993 5.91916C168.058 5.87241 168.133 5.89111 168.18 5.95656L168.488 6.41474C168.526 6.47084 168.516 6.555 168.451 6.60175Z" fill="white"/>
<path d="M167.834 5.69477C167.778 5.73217 167.694 5.72282 167.647 5.65736L167.338 5.19919C167.301 5.14308 167.31 5.05893 167.376 5.01218C167.441 4.96542 167.516 4.98412 167.563 5.04958L167.871 5.50775C167.909 5.56386 167.899 5.64801 167.834 5.69477Z" fill="white"/>
<path d="M169.078 7.50879C169.021 7.5462 168.937 7.53684 168.891 7.47139L168.582 7.01321C168.545 6.95711 168.554 6.87296 168.619 6.8262C168.685 6.77945 168.76 6.79815 168.806 6.86361L169.115 7.32178C169.152 7.37789 169.143 7.46204 169.078 7.50879Z" fill="white"/>
<path d="M170.321 9.3321C170.265 9.3695 170.181 9.36015 170.134 9.29469L169.826 8.83652C169.788 8.78041 169.798 8.69626 169.863 8.64951C169.928 8.60275 170.003 8.62145 170.05 8.68691L170.359 9.14509C170.396 9.20119 170.387 9.28534 170.321 9.3321Z" fill="white"/>
<path d="M169.694 8.41577C169.638 8.45318 169.554 8.44383 169.507 8.37837L169.199 7.9202C169.161 7.86409 169.171 7.77994 169.236 7.73319C169.302 7.68643 169.377 7.70513 169.423 7.77059L169.732 8.22876C169.769 8.28487 169.76 8.36902 169.694 8.41577Z" fill="white"/>
<path d="M170.938 10.2391C170.882 10.2765 170.798 10.2672 170.751 10.2017L170.443 9.74356C170.405 9.68746 170.414 9.6033 170.48 9.55655C170.545 9.5098 170.62 9.5285 170.667 9.59395L170.976 10.0521C171.013 10.1082 171.004 10.1924 170.938 10.2391Z" fill="white"/>
<path d="M172.182 12.0625C172.126 12.0999 172.042 12.0906 171.995 12.0251L171.686 11.5669C171.649 11.5108 171.658 11.4267 171.724 11.3799C171.789 11.3332 171.864 11.3519 171.911 11.4173L172.219 11.8755C172.257 11.9316 172.247 12.0158 172.182 12.0625Z" fill="white"/>
<path d="M171.565 11.1461C171.508 11.1835 171.424 11.1741 171.378 11.1087L171.069 10.6505C171.032 10.5944 171.041 10.5102 171.106 10.4635C171.172 10.4167 171.247 10.4354 171.293 10.5009L171.602 10.959C171.639 11.0152 171.63 11.0993 171.565 11.1461Z" fill="white"/>
<path d="M172.808 12.9695C172.752 13.0069 172.668 12.9975 172.621 12.9321L172.313 12.4739C172.275 12.4178 172.285 12.3336 172.35 12.2869C172.415 12.2401 172.49 12.2588 172.537 12.3243L172.846 12.7825C172.883 12.8386 172.874 12.9227 172.808 12.9695Z" fill="white"/>
</g>
<path d="M102.492 51.4283L105.494 43.2746H106.531L109.524 51.4283H108.486L107.738 49.3337H104.269L103.511 51.4283H102.483H102.492ZM104.568 48.539H107.457L106.017 44.5089L104.577 48.539H104.568Z" fill="#727373"/>
<path d="M117.724 51.4283V43.2746H118.706L123.045 49.8106V43.2746H124.026V51.4283H123.045L118.706 44.8922V51.4283H117.724Z" fill="#727373"/>
<path d="M132.217 51.4283L135.219 43.2746H136.257L139.249 51.4283H138.211L137.463 49.3337H133.994L133.237 51.4283H132.208H132.217ZM134.293 48.539H137.182L135.743 44.5089L134.303 48.539H134.293Z" fill="#727373"/>
<path d="M147.449 51.4283V43.2746H148.431V50.6428H152.228V51.4189H147.449V51.4283Z" fill="#727373"/>
<path d="M161.41 51.4283V48.3333L158.754 43.284H159.858L161.896 47.4076L163.934 43.284H165.028L162.382 48.3333V51.4283H161.4H161.41Z" fill="#727373"/>
<path d="M172.761 51.4283V50.6615L176.782 44.1255H172.827V43.2746H177.923V44.0413L173.893 50.5774H177.97V51.4283H172.761Z" fill="#727373"/>
<path d="M186.32 51.4283V43.2746H191.36V44.0787H187.292V46.9213H191.004V47.7161H187.292V50.6241H191.36V51.4283H186.32Z" fill="#727373"/>
<path d="M212.361 51.5685C211.8 51.5685 211.314 51.4657 210.884 51.2599C210.463 51.0542 210.126 50.7644 209.892 50.3997C209.659 50.035 209.537 49.5956 209.537 49.0906C209.537 48.5389 209.696 48.0527 210.023 47.6226C210.341 47.1925 210.809 46.8558 211.426 46.6034C211.164 46.3135 210.968 46.0423 210.856 45.7805C210.743 45.5187 210.678 45.2382 210.678 44.939C210.678 44.4153 210.865 43.9946 211.23 43.6486C211.594 43.312 212.108 43.1437 212.754 43.1437C213.174 43.1437 213.539 43.2278 213.848 43.3868C214.156 43.5457 214.399 43.7608 214.568 44.0413C214.736 44.3218 214.82 44.6398 214.801 44.9951H213.838C213.838 44.6491 213.735 44.3779 213.52 44.2003C213.305 44.0226 213.044 43.9291 212.754 43.9291C212.408 43.9291 212.137 44.0226 211.94 44.2096C211.744 44.3966 211.65 44.6304 211.65 44.9203C211.65 45.1727 211.716 45.4065 211.856 45.6403C211.996 45.874 212.193 46.1359 212.464 46.4164L215.035 49.0158C215.26 48.6885 215.503 48.2958 215.765 47.8376L216.129 47.2112H217.167L216.653 48.1182C216.307 48.7353 215.989 49.2402 215.671 49.6517L217.429 51.4189H216.195L215.11 50.3249C214.699 50.7644 214.268 51.0823 213.829 51.2786C213.39 51.475 212.894 51.5592 212.352 51.5592L212.361 51.5685ZM210.519 49.0532C210.519 49.5301 210.687 49.9322 211.033 50.2501C211.37 50.568 211.819 50.727 212.37 50.727C212.782 50.727 213.156 50.6428 213.492 50.4839C213.829 50.3249 214.166 50.0631 214.484 49.6984L212.015 47.1925C211.501 47.3982 211.127 47.6506 210.884 47.9592C210.64 48.2678 210.519 48.6324 210.519 49.0439V49.0532Z" fill="#727373"/>
<path d="M237.439 51.4283V44.0787H235.008V43.2746H240.852V44.0787H238.421V51.4283H237.439Z" fill="#727373"/>
<path d="M249.034 51.4283V43.2746H251.661C252.297 43.2746 252.821 43.3775 253.223 43.5925C253.625 43.8076 253.924 44.0881 254.12 44.4528C254.317 44.8174 254.41 45.2195 254.41 45.659C254.41 46.1733 254.27 46.6314 253.999 47.0429C253.728 47.4543 253.298 47.7442 252.708 47.9125L254.494 51.4189H253.344L251.689 48.0527H250.015V51.4189H249.034V51.4283ZM250.006 47.2953H251.586C252.213 47.2953 252.671 47.1457 252.961 46.8372C253.251 46.5379 253.391 46.1452 253.391 45.6683C253.391 45.1915 253.251 44.8081 252.97 44.5182C252.69 44.2377 252.222 44.0974 251.577 44.0974H250.006V47.286V47.2953Z" fill="#727373"/>
<path d="M262.405 51.4283L265.407 43.2746H266.445L269.437 51.4283H268.399L267.651 49.3337H264.182L263.424 51.4283H262.396H262.405ZM264.481 48.539H267.37L265.93 44.5089L264.49 48.539H264.481Z" fill="#727373"/>
<path d="M277.637 51.4283V43.2746H280.143C281.583 43.2746 282.64 43.6393 283.313 44.3686C283.986 45.098 284.332 46.0985 284.332 47.3701C284.332 48.6418 283.995 49.6049 283.313 50.3343C282.63 51.0636 281.574 51.4189 280.143 51.4189H277.637V51.4283ZM278.619 50.6148H280.124C280.919 50.6148 281.545 50.4839 282.013 50.2221C282.481 49.9602 282.817 49.5862 283.023 49.1C283.229 48.6138 283.322 48.0434 283.322 47.3701C283.322 46.6969 283.219 46.0985 283.023 45.6122C282.817 45.126 282.49 44.7426 282.013 44.4808C281.545 44.219 280.91 44.0881 280.124 44.0881H278.619V50.6054V50.6148Z" fill="#727373"/>
<path d="M292.729 51.4283V43.2746H297.769V44.0787H293.701V46.9213H297.413V47.7161H293.701V50.6241H297.769V51.4283H292.729Z" fill="#727373"/>
<path d="M335.433 49.7452L332.412 51.5779L333.217 48.1463L330.561 45.8367L334.058 45.5375L335.433 42.3116L336.807 45.5375L340.332 45.8367L337.658 48.1463L338.462 51.5779L335.442 49.7452H335.433Z" fill="#D81F26"/>
<path d="M64.2203 49.4928L61.2 51.3255L62.0042 47.8938L59.3486 45.5842L62.8457 45.285L64.2203 42.0591L65.5948 45.285L69.1199 45.5842L66.4457 47.8938L67.2498 51.3255L64.2296 49.4928H64.2203Z" fill="#D81F26"/>
<path d="M97.4614 45.8273C97.3024 46.1827 97.1809 46.566 97.1061 46.9681H72.589C72.5142 46.566 72.3926 46.1827 72.2336 45.8273H97.4614Z" fill="#412E86"/>
<path d="M97.3399 49.8948H72.3552C72.4955 49.5301 72.589 49.1468 72.6357 48.754H97.05C97.1061 49.1468 97.1996 49.5301 97.3305 49.8948H97.3399Z" fill="#D81F26"/>
<path d="M328.336 45.8273C328.177 46.1827 328.055 46.566 327.98 46.9681H303.463C303.388 46.566 303.267 46.1827 303.108 45.8273H328.336Z" fill="#412E86"/>
<path d="M328.214 49.8948H303.229C303.37 49.5301 303.463 49.1468 303.51 48.754H327.924C327.98 49.1468 328.074 49.5301 328.205 49.8948H328.214Z" fill="#D81F26"/>
<path d="M11.5732 40.0654C11.6525 40.0654 13.0878 39.9147 15.5064 39.09C12.8895 35.5771 11.3432 31.2235 11.3432 26.5052C11.3432 14.8482 20.8036 4.91194 32.4448 5.4036C37.4724 5.61771 41.0171 6.32348 44.7045 9.4796C40.4144 5.46704 36.1084 4 29.7724 4C16.5215 4 5.77637 14.7451 5.77637 27.996C5.77637 32.413 6.97379 36.5524 9.05144 40.1051C9.26554 40.1051 9.49551 40.113 9.73341 40.113C10.3044 40.113 10.9229 40.0971 11.5573 40.0575L11.5732 40.0654Z" fill="white"/>
<path d="M22.3181 35.9418V21.6521L16.5134 25.847V38.7252C17.3302 38.416 18.2342 38.0353 19.2255 37.5675C20.1533 37.1313 21.1842 36.5921 22.3181 35.9418Z" fill="white"/>
<path d="M29.8833 15.9505L24.0786 20.1454V34.8793C25.847 33.7611 27.7898 32.3813 29.8833 30.6843V15.9505Z" fill="white"/>
<path d="M37.5833 23.4363V10.0981L31.7786 14.293V29.0745C33.6342 27.4567 35.577 25.5853 37.5833 23.4363Z" fill="white"/>
<path d="M32.4526 47.6147C29.003 47.6147 25.7518 46.79 22.8811 45.323C21.5092 45.9574 19.0589 46.9883 16.1882 47.7733C20.058 50.4378 24.7446 52 29.796 52C37.2264 52 43.8717 48.6218 48.2728 43.3167C47.0675 43.5625 45.8304 43.7211 44.5695 43.8004C41.1438 46.2032 36.9647 47.6147 32.4605 47.6147H32.4526Z" fill="white"/>
<path d="M43.1423 19.8203L39.6611 24.2452C22.469 42.2858 11.7159 42.1431 11.7159 42.1431C-3.00997 43.0233 3.12781 34.2607 3.12781 34.2607C1.56561 35.6802 0.717104 37.0521 0.304747 38.2971C-0.646847 41.1439 0.701245 44.2445 3.35778 45.6402C10.5899 49.4149 23.0954 42.9282 23.0954 42.9282C36.3384 35.9022 43.5785 27.0445 46.9566 21.89C45.3865 21.8186 44.0067 21.0256 43.1423 19.8282V19.8203Z" fill="white"/>
<path d="M47.1865 20.6686C49.2712 20.6686 50.9612 18.9786 50.9612 16.8939C50.9612 14.8092 49.2712 13.1193 47.1865 13.1193C45.1018 13.1193 43.4119 14.8092 43.4119 16.8939C43.4119 18.9786 45.1018 20.6686 47.1865 20.6686Z" fill="#CB2129"/>
<path d="M47.0041 13.1274C47.6465 13.397 48.2174 13.8569 48.6456 14.4675C49.8193 16.1883 49.3831 18.5356 47.6623 19.7172C47.0676 20.1295 46.3935 20.3357 45.7195 20.3674C46.8614 20.8512 48.2253 20.7639 49.3276 20.0106C51.0484 18.837 51.4925 16.4818 50.3109 14.761C49.5417 13.6349 48.2729 13.056 47.0121 13.1195L47.0041 13.1274Z" fill="#A91F25"/>
<path d="M44.6887 19.0114C43.5944 17.4096 44.0068 15.2289 45.6086 14.1424C46.5443 13.5001 47.6783 13.3812 48.6775 13.7063C47.5832 13.1829 46.2509 13.2384 45.1725 13.968C43.5706 15.0623 43.1662 17.2431 44.2526 18.837C44.7046 19.5031 45.3469 19.963 46.0606 20.193C45.5293 19.9392 45.0456 19.5348 44.6887 19.0114Z" fill="#DF2D41"/>
<mask id="mask1_1439_3058" style="mask-type:luminance" maskUnits="userSpaceOnUse" x="43" y="13" width="8" height="8">
<path d="M47.1865 20.6686C49.2712 20.6686 50.9612 18.9786 50.9612 16.8939C50.9612 14.8092 49.2712 13.1193 47.1865 13.1193C45.1018 13.1193 43.4119 14.8092 43.4119 16.8939C43.4119 18.9786 45.1018 20.6686 47.1865 20.6686Z" fill="white"/>
</mask>
<g mask="url(#mask1_1439_3058)">
<path d="M44.7836 13.2902L44.6985 13.3484L49.3743 20.19L49.4594 20.1318L44.7836 13.2902Z" fill="white"/>
<path d="M44.8787 14.9829C44.8787 14.9829 44.7994 14.9988 44.7835 14.9671L44.617 14.7212C44.617 14.7212 44.6011 14.6419 44.6329 14.6261C44.6646 14.6102 44.7122 14.6102 44.728 14.6419L44.8946 14.8878C44.8946 14.8878 44.9104 14.9671 44.8787 14.9829Z" fill="white"/>
<path d="M44.5459 14.4993C44.5459 14.4993 44.4666 14.5151 44.4508 14.4834L44.2842 14.2376C44.2842 14.2376 44.2684 14.1583 44.3001 14.1424C44.3318 14.1265 44.3794 14.1265 44.3953 14.1583L44.5618 14.4041C44.5618 14.4041 44.5776 14.4834 44.5459 14.4993Z" fill="white"/>
<path d="M45.2122 15.4746C45.2122 15.4746 45.1329 15.4905 45.117 15.4587L44.9505 15.2129C44.9505 15.2129 44.9346 15.1336 44.9664 15.1177C44.9981 15.1019 45.0457 15.1019 45.0615 15.1336L45.228 15.3794C45.228 15.3794 45.2439 15.4587 45.2122 15.4746Z" fill="white"/>
<path d="M45.886 16.45C45.886 16.45 45.8067 16.4659 45.7909 16.4342L45.6243 16.1883C45.6243 16.1883 45.6085 16.109 45.6402 16.0932C45.6719 16.0773 45.7195 16.0773 45.7353 16.109L45.9019 16.3549C45.9019 16.3549 45.9177 16.4342 45.886 16.45Z" fill="white"/>
<path d="M45.545 15.9584C45.545 15.9584 45.4657 15.9742 45.4498 15.9425L45.2833 15.6967C45.2833 15.6967 45.2674 15.6174 45.2991 15.6015C45.3308 15.5857 45.3784 15.5857 45.3943 15.6174L45.5608 15.8632C45.5608 15.8632 45.5767 15.9425 45.545 15.9584Z" fill="white"/>
<path d="M46.219 16.9416C46.219 16.9416 46.1397 16.9575 46.1239 16.9258L45.9573 16.6799C45.9573 16.6799 45.9415 16.6006 45.9732 16.5848C46.0049 16.5689 46.0525 16.5689 46.0684 16.6006L46.2349 16.8465C46.2349 16.8465 46.2507 16.9258 46.219 16.9416Z" fill="white"/>
<path d="M46.8853 17.9171C46.8853 17.9171 46.806 17.9329 46.7901 17.9012L46.6236 17.6554C46.6236 17.6554 46.6077 17.5761 46.6395 17.5602C46.6712 17.5444 46.7188 17.5444 46.7346 17.5761L46.9011 17.8219C46.9011 17.8219 46.917 17.9012 46.8853 17.9171Z" fill="white"/>
<path d="M46.5523 17.4254C46.5523 17.4254 46.473 17.4413 46.4571 17.4095L46.2906 17.1637C46.2906 17.1637 46.2747 17.0844 46.3064 17.0686C46.3382 17.0527 46.3857 17.0527 46.4016 17.0844L46.5681 17.3302C46.5681 17.3302 46.584 17.4095 46.5523 17.4254Z" fill="white"/>
<path d="M47.2183 18.4087C47.2183 18.4087 47.139 18.4245 47.1231 18.3928L46.9566 18.147C46.9566 18.147 46.9407 18.0677 46.9725 18.0518C47.0042 18.036 47.0518 18.036 47.0676 18.0677L47.2342 18.3135C47.2342 18.3135 47.25 18.3928 47.2183 18.4087Z" fill="white"/>
<path d="M47.8843 19.3841C47.8843 19.3841 47.805 19.3999 47.7891 19.3682L47.6226 19.1224C47.6226 19.1224 47.6068 19.0431 47.6385 19.0272C47.6702 19.0113 47.7178 19.0113 47.7336 19.0431L47.9002 19.2889C47.9002 19.2889 47.916 19.3682 47.8843 19.3841Z" fill="white"/>
<path d="M47.5511 18.8924C47.5511 18.8924 47.4718 18.9082 47.4559 18.8765L47.2894 18.6307C47.2894 18.6307 47.2735 18.5514 47.3052 18.5355C47.3369 18.5197 47.3845 18.5197 47.4004 18.5514L47.5669 18.7972C47.5669 18.7972 47.5828 18.8765 47.5511 18.8924Z" fill="white"/>
<path d="M48.2173 19.8758C48.2173 19.8758 48.138 19.8916 48.1222 19.8599L47.9556 19.6141C47.9556 19.6141 47.9398 19.5348 47.9715 19.5189C48.0032 19.5031 48.0508 19.5031 48.0666 19.5348L48.2332 19.7806C48.2332 19.7806 48.249 19.8599 48.2173 19.8758Z" fill="white"/>
<path d="M48.5506 20.3515C48.5506 20.3515 48.4713 20.3674 48.4554 20.3357L48.2889 20.0899C48.2889 20.0899 48.273 20.0106 48.3047 19.9947C48.3365 19.9788 48.384 19.9788 48.3999 20.0106L48.5664 20.2564C48.5664 20.2564 48.5823 20.3357 48.5506 20.3515Z" fill="white"/>
<path d="M46.0603 13.7777C46.0603 13.7777 45.981 13.7935 45.9652 13.7618L45.7986 13.516C45.7986 13.516 45.7828 13.4367 45.8145 13.4208C45.8462 13.405 45.8938 13.405 45.9097 13.4367L46.0762 13.6825C46.0762 13.6825 46.092 13.7618 46.0603 13.7777Z" fill="white"/>
<path d="M46.7344 14.761C46.7344 14.761 46.6551 14.7769 46.6392 14.7451L46.4727 14.4993C46.4727 14.4993 46.4569 14.42 46.4886 14.4042C46.5203 14.3883 46.5679 14.3883 46.5837 14.42L46.7503 14.6658C46.7503 14.6658 46.7661 14.7451 46.7344 14.761Z" fill="white"/>
<path d="M46.3938 14.2693C46.3938 14.2693 46.3145 14.2852 46.2987 14.2534L46.1321 14.0076C46.1321 14.0076 46.1163 13.9283 46.148 13.9125C46.1797 13.8966 46.2273 13.8966 46.2432 13.9283L46.4097 14.1741C46.4097 14.1741 46.4255 14.2534 46.3938 14.2693Z" fill="white"/>
<path d="M47.0677 15.2447C47.0677 15.2447 46.9884 15.2606 46.9725 15.2288L46.806 14.983C46.806 14.983 46.7901 14.9037 46.8218 14.8879C46.8535 14.872 46.9011 14.872 46.917 14.9037L47.0835 15.1495C47.0835 15.1495 47.0994 15.2288 47.0677 15.2447Z" fill="white"/>
<path d="M47.7337 16.228C47.7337 16.228 47.6544 16.2439 47.6385 16.2122L47.472 15.9664C47.472 15.9664 47.4561 15.8871 47.4878 15.8712C47.5196 15.8553 47.5671 15.8553 47.583 15.8871L47.7495 16.1329C47.7495 16.1329 47.7654 16.2122 47.7337 16.228Z" fill="white"/>
<path d="M47.4007 15.7364C47.4007 15.7364 47.3214 15.7522 47.3055 15.7205L47.139 15.4747C47.139 15.4747 47.1231 15.3954 47.1548 15.3795C47.1866 15.3637 47.2341 15.3637 47.25 15.3954L47.4165 15.6412C47.4165 15.6412 47.4324 15.7205 47.4007 15.7364Z" fill="white"/>
<path d="M48.0669 16.7117C48.0669 16.7117 47.9876 16.7276 47.9718 16.6959L47.8052 16.4501C47.8052 16.4501 47.7894 16.3708 47.8211 16.3549C47.8528 16.339 47.9004 16.339 47.9163 16.3708L48.0828 16.6166C48.0828 16.6166 48.0986 16.6959 48.0669 16.7117Z" fill="white"/>
<path d="M48.7327 17.6951C48.7327 17.6951 48.6534 17.7109 48.6375 17.6792L48.471 17.4334C48.471 17.4334 48.4551 17.3541 48.4869 17.3382C48.5186 17.3224 48.5662 17.3224 48.582 17.3541L48.7486 17.5999C48.7486 17.5999 48.7644 17.6792 48.7327 17.6951Z" fill="white"/>
<path d="M48.3999 17.2034C48.3999 17.2034 48.3206 17.2193 48.3048 17.1876L48.1382 16.9417C48.1382 16.9417 48.1224 16.8624 48.1541 16.8466C48.1858 16.8307 48.2334 16.8307 48.2493 16.8624L48.4158 17.1083C48.4158 17.1083 48.4317 17.1876 48.3999 17.2034Z" fill="white"/>
<path d="M49.0738 18.1788C49.0738 18.1788 48.9945 18.1946 48.9786 18.1629L48.8121 17.9171C48.8121 17.9171 48.7962 17.8378 48.8279 17.8219C48.8597 17.8061 48.9072 17.8061 48.9231 17.8378L49.0896 18.0836C49.0896 18.0836 49.1055 18.1629 49.0738 18.1788Z" fill="white"/>
<path d="M49.74 19.1621C49.74 19.1621 49.6607 19.178 49.6449 19.1462L49.4783 18.9004C49.4783 18.9004 49.4625 18.8211 49.4942 18.8052C49.5259 18.7894 49.5735 18.7894 49.5894 18.8211L49.7559 19.0669C49.7559 19.0669 49.7717 19.1462 49.74 19.1621Z" fill="white"/>
<path d="M49.407 18.6704C49.407 18.6704 49.3277 18.6863 49.3119 18.6546L49.1453 18.4087C49.1453 18.4087 49.1295 18.3294 49.1612 18.3136C49.1929 18.2977 49.2405 18.2977 49.2563 18.3294L49.4229 18.5753C49.4229 18.5753 49.4387 18.6546 49.407 18.6704Z" fill="white"/>
<path d="M50.073 19.6459C50.073 19.6459 49.9937 19.6617 49.9779 19.63L49.8113 19.3842C49.8113 19.3842 49.7955 19.3049 49.8272 19.289C49.8589 19.2732 49.9065 19.2732 49.9224 19.3049L50.0889 19.5507C50.0889 19.5507 50.1047 19.63 50.073 19.6459Z" fill="white"/>
</g>
</svg>
