<svg xmlns="http://www.w3.org/2000/svg" xmlns:xlink="http://www.w3.org/1999/xlink" width="250" height="50" viewBox="0 0 250 50">
  <defs>
    <clipPath id="clip-Logo_Trans_white">
      <rect width="250" height="50"/>
    </clipPath>
  </defs>
  <g id="Logo_Trans_white" data-name="Logo Trans white" clip-path="url(#clip-Logo_Trans_white)">
    <g id="logo_1_" data-name="logo (1)" transform="translate(59 5)">
      <path id="Path_6417" data-name="Path 6417" d="M45.24,23.75a3.18,3.18,0,1,0-2.249-.932A3.181,3.181,0,0,0,45.24,23.75Z" transform="translate(-23.091 -9.547)" fill="#fff"/>
      <path id="Path_6418" data-name="Path 6418" d="M45.24,48a3.18,3.18,0,1,0-2.249-.932A3.18,3.18,0,0,0,45.24,48Z" transform="translate(-23.091 -22.86)" fill="#fff"/>
      <path id="Path_6419" data-name="Path 6419" d="M86.836,12.034a7.989,7.989,0,0,0-6.526-2.841,8.349,8.349,0,0,0-4.184,1.071,7.035,7.035,0,0,0-2.841,2.864c.017-1.522.065-2.954.078-4.3.016-2.075.031-3.505.045-4.271q.025-1.22.025-1.868A2.35,2.35,0,0,0,70.8,0Q67.91,0,67.91,2.989l.012,5.84.038,14.861q0,.747-.075,3.088t-.074,3.536a2.116,2.116,0,0,0,.747,1.719,2.932,2.932,0,0,0,1.942.622,3.288,3.288,0,0,0,2.067-.6,2.071,2.071,0,0,0,.772-1.744q0-1.046-.05-4.632t-.05-5.18a6.5,6.5,0,0,1,1.694-4.608,5.277,5.277,0,0,1,3.985-1.818,4.456,4.456,0,0,1,3.563,1.469,6.165,6.165,0,0,1,1.27,4.16q0,5.778-.249,10.508a2.043,2.043,0,0,0,.8,1.743,3.147,3.147,0,0,0,1.942.6q2.889,0,2.939-2.341V19.307a11.053,11.053,0,0,0-2.341-7.272" transform="translate(-37.226)" fill="#fff"/>
      <path id="Path_6420" data-name="Path 6420" d="M141.877,27.8l.05-3.833q0-3.038-2.59-3.038a2.135,2.135,0,0,0-2.192,1.544q-.049.249-.174,1t-.124.847a7.659,7.659,0,0,0-6.774-3.487,10.785,10.785,0,0,0-8.2,3.457,12.375,12.375,0,0,0-3.263,8.842A11.072,11.072,0,0,0,121.6,41a10.225,10.225,0,0,0,7.82,3.188,7.82,7.82,0,0,0,7.322-3.985,9.016,9.016,0,0,0,.8,2.964,1.743,1.743,0,0,0,1.644.872q2.839,0,2.839-2.291-.2-2.841-.2-6.376Zm-7.1,9.763a6.2,6.2,0,0,1-4.657,1.942,5.59,5.59,0,0,1-4.259-1.843,6.6,6.6,0,0,1-1.718-4.682,8.046,8.046,0,0,1,1.768-5.38,5.592,5.592,0,0,1,4.458-2.092,6,6,0,0,1,4.433,1.868,6.949,6.949,0,0,1,1.843,5.106A7.024,7.024,0,0,1,134.777,37.564Z" transform="translate(-65.117 -11.434)" fill="#fff"/>
      <path id="Path_6421" data-name="Path 6421" d="M201.67,30.857a3.683,3.683,0,0,0-1,.2,4.39,4.39,0,0,1-1.295.2,2.107,2.107,0,0,1-2.042-1.173,8.136,8.136,0,0,1-.6-3.563V17.757h4.483q2.092,0,2.092-2.341a2.361,2.361,0,0,0-.6-1.743,2.141,2.141,0,0,0-1.693-.548h-4.284q0-.847.05-2.366t.05-2.017q0-2.49-2.241-2.49-2.841,0-2.939,3.288l-.1,3.636H183.09v-.05q0-.847.05-2.366t.05-2.017q0-2.49-2.241-2.49-2.841,0-2.939,3.288l-.1,3.636h-2.54a2.341,2.341,0,0,0-1.694.622,2.273,2.273,0,0,0-.648,1.719q0,2.291,2.142,2.291h2.74q.049,1.694-.025,4.956t-.074,4.458q0,8.916,7.372,8.916a7.751,7.751,0,0,0,3.736-.747,2.388,2.388,0,0,0,1.1-2.241,2.512,2.512,0,0,0-.548-1.594,1.747,1.747,0,0,0-1.443-.7,3.686,3.686,0,0,0-1,.2,4.39,4.39,0,0,1-1.295.2,2.106,2.106,0,0,1-2.042-1.173,8.143,8.143,0,0,1-.6-3.563V17.807h8.469q.05,1.694-.025,4.956t-.075,4.458q0,8.916,7.372,8.916a7.754,7.754,0,0,0,3.736-.747,2.388,2.388,0,0,0,1.1-2.241,2.512,2.512,0,0,0-.548-1.594,1.747,1.747,0,0,0-1.443-.7" transform="translate(-94.991 -3.432)" fill="#fff"/>
      <path id="Path_6422" data-name="Path 6422" d="M263.627,21.463a3.511,3.511,0,0,0-2.067-.648q-1.594,0-2.441,2.142-4.533,11.656-5.828,14.445-.1-.2-6.376-15.342a2.209,2.209,0,0,0-2.141-1.345,3.277,3.277,0,0,0-1.968.672,2,2,0,0,0-.922,1.669,7.529,7.529,0,0,0,.847,2.69l6.226,13.5,1.544,3.238q-1.894,3.736-2.242,4.284a8.335,8.335,0,0,1-1.843,2.39,3.863,3.863,0,0,1-2.341.6q-2.64,0-2.64,2.54,0,2.69,3.885,2.69,4.434,0,7.422-5.43Q257.774,39.445,264,25.15a4.682,4.682,0,0,0,.548-2.092,1.9,1.9,0,0,0-.922-1.594" transform="translate(-132.549 -11.372)" fill="#fff"/>
      <path id="Path_6423" data-name="Path 6423" d="M16.273,33.03a16.273,16.273,0,0,1,0-32.547,2.664,2.664,0,0,1,0,5.328,10.946,10.946,0,1,0,0,21.891,2.664,2.664,0,0,1,0,5.328Z" transform="translate(0 -0.265)" fill="#fff"/>
    </g>
  </g>
</svg>
