<svg width="17" height="18" viewBox="0 0 17 18" fill="none" xmlns="http://www.w3.org/2000/svg">
<path d="M16.6206 4.28887C15.2706 2.94598 13.9254 1.59793 12.5783 0.251761C12.4919 0.165806 12.4012 0.084077 12.3129 0H4.71826C4.70887 0.00657586 4.70088 0.0169093 4.69055 0.0197276C3.94607 0.227806 3.60083 0.679662 3.60036 1.4481C3.60036 2.3504 3.60036 3.2527 3.60036 4.155C3.60036 4.36136 3.49578 4.46454 3.2866 4.46454C2.69947 4.46454 2.65297 4.50728 2.65579 5.09112C2.65626 5.21231 2.62855 5.28276 2.50642 5.32597C2.38618 5.36825 2.25889 5.42039 2.16542 5.50305C1.90755 5.73133 1.66894 5.77736 1.37772 5.5458C1.22366 5.42367 1.02826 5.49225 0.925399 5.66604C0.630895 6.16487 0.341087 6.66698 0.0564468 7.17191C-0.0468881 7.35463 0.00430963 7.52654 0.181858 7.64302C0.274859 7.70409 0.372088 7.75857 0.470256 7.81024C0.541651 7.84782 0.566545 7.89244 0.556212 7.97792C0.537893 8.1287 0.509711 8.28652 0.536484 8.43213C0.598485 8.76609 0.514878 8.98732 0.177161 9.1193C-0.00508445 9.1907 -0.0464184 9.39643 0.0517498 9.57069C0.335451 10.0756 0.625258 10.5777 0.919293 11.077C1.02967 11.2644 1.20957 11.3034 1.40497 11.2006C1.49797 11.1517 1.59003 11.0991 1.67787 11.0413C1.74644 10.9962 1.79952 11 1.86669 11.0498C1.98364 11.1372 2.10013 11.2377 2.23399 11.287C2.54682 11.4016 2.71967 11.5693 2.6619 11.9385C2.63089 12.1376 2.78355 12.2767 2.9827 12.279C3.57453 12.2865 4.16636 12.2865 4.75771 12.2781C4.95076 12.2752 5.06349 12.1414 5.07242 11.9455C5.07758 11.8403 5.0804 11.7341 5.07242 11.6294C5.06537 11.5331 5.09731 11.4819 5.1889 11.4439C5.32371 11.388 5.46979 11.3354 5.57641 11.2419C5.83334 11.0164 6.06678 10.977 6.35142 11.2048C6.50361 11.3264 6.70417 11.2593 6.80516 11.0878C7.09966 10.589 7.389 10.0869 7.67317 9.58149C7.7812 9.38939 7.72672 9.22076 7.53695 9.10005C7.45804 9.04979 7.37819 8.99859 7.29365 8.96054C7.19125 8.91404 7.1626 8.845 7.18045 8.73744C7.21004 8.55801 7.23775 8.3706 7.19548 8.1954C7.13113 7.92813 7.23775 7.79756 7.46979 7.6853C7.75725 7.54627 7.79294 7.37154 7.63606 7.09676C7.389 6.6651 7.13958 6.23438 6.89158 5.80319C6.68538 5.44528 6.55762 5.40488 6.20299 5.62799C6.03625 5.73274 5.9052 5.77642 5.74879 5.61719C5.67317 5.54016 5.56889 5.47675 5.46603 5.44434C5.14757 5.34476 5.02263 5.15312 5.06725 4.814C5.09496 4.60216 4.93761 4.47205 4.71685 4.46454C4.58205 4.45984 4.44583 4.45045 4.31291 4.46642C4.1471 4.48661 4.12314 4.41616 4.12408 4.26961C4.13019 3.32034 4.1269 2.37107 4.12737 1.42179C4.12737 0.838422 4.44442 0.525129 5.03202 0.525129C7.27016 0.525129 9.50877 0.525129 11.7469 0.525129C11.776 0.525129 11.8056 0.527947 11.8347 0.525129C11.924 0.514796 11.9592 0.548145 11.9573 0.642555C11.9522 0.912165 11.9522 1.18178 11.9573 1.45092C11.9592 1.54861 11.9315 1.58901 11.8291 1.58196C11.7183 1.57445 11.6065 1.58008 11.4952 1.58008C10.8446 1.58008 10.1945 1.57915 9.544 1.58102C9.35283 1.58149 9.23869 1.6853 9.2401 1.84594C9.24151 2.00564 9.35565 2.10287 9.54823 2.10756C9.58909 2.1085 9.63043 2.10756 9.67129 2.10756C10.3801 2.10756 11.0893 2.10991 11.7981 2.10521C11.9169 2.10427 11.9606 2.13152 11.9578 2.25881C11.9498 2.64537 11.9508 3.03241 11.9573 3.41898C11.9592 3.53264 11.9273 3.57116 11.8108 3.57116C9.85353 3.56834 7.89675 3.56834 5.93949 3.57116C5.80187 3.57116 5.75584 3.51949 5.75865 3.38422C5.76523 3.03288 5.76993 2.6806 5.75725 2.32973C5.75067 2.14749 5.81502 2.1024 5.98928 2.10427C6.7394 2.11273 7.48904 2.10944 8.23916 2.10662C8.41624 2.10615 8.5285 1.99765 8.5285 1.84453C8.5285 1.69093 8.41671 1.58243 8.23963 1.58196C7.43691 1.57961 6.63418 1.57727 5.83146 1.58337C5.51112 1.58572 5.2495 1.82856 5.24104 2.14232C5.22789 2.60498 5.2293 3.06811 5.24057 3.53077C5.24762 3.82104 5.47073 4.04556 5.76006 4.08361C5.8526 4.09582 5.94701 4.09676 6.04048 4.09676C7.99163 4.09723 9.94278 4.09723 11.8939 4.0977C11.9851 4.0977 12.0687 4.08549 12.1321 4.19305C12.3984 4.64537 12.8019 4.85909 13.3275 4.85674C14.2415 4.85251 15.1556 4.86097 16.0696 4.8511C16.2481 4.84923 16.2894 4.89479 16.2889 5.07139C16.2833 8.90371 16.2847 12.7356 16.2847 16.5679C16.2847 17.1667 15.9761 17.4735 15.374 17.4735C11.9287 17.4735 8.48341 17.4735 5.03766 17.4735C4.43926 17.4735 4.1269 17.1625 4.1269 16.5651C4.12643 15.5106 4.1269 14.4556 4.1269 13.4011C4.1269 13.3368 4.13066 13.271 4.12033 13.2081C4.10013 13.0836 4.02169 13.0108 3.89628 12.9967C3.77181 12.9826 3.68068 13.0362 3.62714 13.1498C3.59332 13.2217 3.59942 13.2987 3.59942 13.3744C3.59942 14.4406 3.59849 15.5073 3.59942 16.5735C3.60036 17.449 4.15227 18 5.02686 18C8.47824 18 11.9292 18 15.3805 18C16.2692 18 16.8117 17.4551 16.8117 16.5627C16.8117 12.6252 16.8108 8.68765 16.8155 4.75012C16.8155 4.55754 16.7535 4.42085 16.6192 4.28746L16.6206 4.28887ZM4.42047 4.99061C4.51957 4.98873 4.55903 5.01832 4.54964 5.11884C4.54306 5.18835 4.54729 5.25928 4.5487 5.32973C4.55292 5.54908 4.61962 5.65007 4.82676 5.72663C5.13207 5.83936 5.40872 5.99906 5.66002 6.20479C5.86058 6.36872 5.95546 6.37435 6.18468 6.24425C6.36097 6.14404 6.49891 6.1799 6.59849 6.35181C6.75067 6.61531 6.90238 6.87929 7.05363 7.14326C7.07383 7.17849 7.09355 7.21465 7.10952 7.24284C7.11563 7.29732 7.07899 7.31047 7.04987 7.32738C6.97425 7.37201 6.89722 7.41428 6.8216 7.4589C6.66237 7.55284 6.59661 7.68671 6.63324 7.87271C6.69712 8.19775 6.69431 8.52466 6.64076 8.8511C6.60083 9.09347 6.64358 9.18694 6.85635 9.31376C7.0386 9.42273 7.07743 9.5685 6.97284 9.75106C6.82723 10.0047 6.67646 10.256 6.53742 10.5134C6.47683 10.6256 6.41906 10.6754 6.30492 10.5801C6.265 10.5467 6.21474 10.5261 6.16871 10.5002C5.9564 10.3823 5.85729 10.387 5.67364 10.5378C5.41765 10.7478 5.13583 10.9103 4.82676 11.0282C4.61117 11.1104 4.55151 11.2034 4.54823 11.4411C4.54541 11.6527 4.43644 11.7586 4.22131 11.7586C3.93996 11.7586 3.65861 11.7482 3.37772 11.7623C3.2091 11.7708 3.1579 11.7093 3.17904 11.5533C3.18702 11.496 3.17951 11.4364 3.17951 11.3776C3.17951 11.2114 3.09872 11.0982 2.9456 11.0423C2.61258 10.9201 2.30821 10.7496 2.0386 10.5186C1.88078 10.3837 1.72343 10.4039 1.55433 10.5059C1.28801 10.6665 1.28566 10.6618 1.13348 10.3969C0.976127 10.1231 0.820186 9.84782 0.658607 9.57633C0.613516 9.50023 0.611167 9.45232 0.699941 9.41757C0.726715 9.40723 0.750669 9.38845 0.776033 9.37389C1.11986 9.17426 1.13583 9.13387 1.07993 8.74025C1.04423 8.4899 1.04517 8.23814 1.08416 7.98732C1.13911 7.6341 1.11093 7.57398 0.799049 7.39314C0.667845 7.31674 0.640602 7.21184 0.71732 7.07844C0.878429 6.79991 1.0447 6.52372 1.19783 6.24096C1.2603 6.12588 1.31478 6.07797 1.43127 6.17426C1.48482 6.21841 1.55151 6.24659 1.61258 6.28088C1.75584 6.36026 1.89628 6.35369 2.02122 6.24847C2.2974 6.01597 2.60271 5.83654 2.94231 5.71395C3.12174 5.64913 3.18186 5.51151 3.18139 5.32785C3.18092 4.99389 3.18515 4.99389 3.5238 4.99389C3.82253 4.99389 4.12127 4.99765 4.42 4.99201L4.42047 4.99061ZM15.7126 4.32785C14.9165 4.32926 14.1203 4.32973 13.3242 4.32832C12.815 4.32738 12.4862 4.00611 12.4843 3.4993C12.4811 2.65101 12.4834 1.80272 12.4834 0.986379C13.5933 2.09488 14.714 3.21465 15.8329 4.33255C15.816 4.34476 15.7624 4.32738 15.7126 4.32738V4.32785Z" fill="white"/>
<path d="M5.49332 13.7484C5.33879 13.7611 5.23921 13.863 5.23733 14.0063C5.23545 14.1505 5.33315 14.2571 5.48533 14.2721C5.53184 14.2768 5.57881 14.274 5.62578 14.274C8.69388 14.274 11.762 14.274 14.8306 14.274C14.8658 14.274 14.901 14.275 14.9358 14.274C15.1129 14.267 15.2275 14.166 15.2298 14.0147C15.2326 13.8635 15.118 13.7555 14.9438 13.7475C14.8968 13.7451 14.8503 13.747 14.8033 13.747C13.281 13.747 11.7587 13.747 10.2364 13.747C8.71408 13.747 7.18003 13.747 5.65161 13.747C5.599 13.747 5.54593 13.7442 5.49379 13.7484H5.49332Z" fill="white"/>
<path d="M14.8429 15.3299C13.3089 15.3299 11.7748 15.3299 10.2408 15.3299C8.70671 15.3299 7.17265 15.3299 5.6386 15.3299C5.57989 15.3299 5.52023 15.3238 5.4634 15.3341C5.32765 15.36 5.24264 15.4412 5.23935 15.585C5.23606 15.7371 5.32061 15.824 5.46481 15.8527C5.51554 15.8626 5.57002 15.8569 5.62263 15.8569C8.69684 15.8569 11.7706 15.8569 14.8448 15.8569C14.903 15.8569 14.9641 15.8626 15.0195 15.8489C15.1543 15.8156 15.2328 15.7254 15.2285 15.584C15.2243 15.4511 15.1454 15.367 15.0181 15.3374C14.9622 15.3243 14.9016 15.3299 14.8434 15.3299H14.8429Z" fill="white"/>
<path d="M7.03 12.1725C6.90318 12.2021 6.82474 12.2824 6.82052 12.4186C6.81582 12.5624 6.89285 12.6507 7.02719 12.6845C7.08261 12.6986 7.14367 12.6925 7.20192 12.6925C8.4781 12.6925 9.75429 12.6925 11.0309 12.6925C12.3076 12.6925 13.5603 12.6925 14.8247 12.6925C14.8835 12.6925 14.9431 12.6981 14.9999 12.6878C15.1451 12.661 15.231 12.5708 15.2277 12.4215C15.2249 12.2806 15.1394 12.196 15.0028 12.1702C14.9516 12.1603 14.8975 12.1655 14.8449 12.1655C12.2982 12.1655 9.75147 12.1655 7.20473 12.1655C7.14649 12.1655 7.08543 12.1594 7.03 12.1725Z" fill="white"/>
<path d="M8.44632 10.995C8.51912 11.0988 8.62528 11.1115 8.74129 11.1115C9.76572 11.1101 10.7901 11.1106 11.8141 11.1106C12.5398 11.1106 13.266 11.1106 13.9916 11.1106C14.3134 11.1106 14.6356 11.1139 14.9574 11.1087C15.1203 11.1059 15.2298 10.9927 15.2303 10.8471C15.2303 10.7015 15.1208 10.5948 14.9578 10.584C14.917 10.5812 14.8761 10.5831 14.8348 10.5831C12.8211 10.5831 10.8075 10.5831 8.7939 10.5831C8.73566 10.5831 8.67553 10.5784 8.6187 10.5887C8.42659 10.6226 8.33641 10.8386 8.44538 10.995H8.44632Z" fill="white"/>
<path d="M14.9804 5.83896C14.9339 5.83426 14.8869 5.83708 14.84 5.83708C12.8729 5.83708 10.9062 5.83708 8.93909 5.83708C8.89212 5.83708 8.84468 5.83332 8.79864 5.83943C8.65116 5.85963 8.56708 5.94793 8.55628 6.09495C8.54641 6.2321 8.65679 6.34671 8.80522 6.36221C8.85736 6.36785 8.91043 6.36409 8.96304 6.36409C9.93486 6.36409 10.9067 6.36409 11.8785 6.36409C12.8503 6.36409 13.8456 6.36409 14.8287 6.36409C14.8813 6.36409 14.9349 6.36832 14.9865 6.36127C15.1331 6.3406 15.219 6.25465 15.228 6.10575C15.2364 5.96672 15.1288 5.85446 14.98 5.83849L14.9804 5.83896Z" fill="white"/>
<path d="M15.0067 7.42384C14.9617 7.41445 14.9133 7.41914 14.8668 7.41914C13.0058 7.41914 11.1444 7.41914 9.2834 7.41914C9.24817 7.41914 9.21295 7.41726 9.17819 7.42102C9.026 7.43652 8.92784 7.54221 8.92971 7.6864C8.93159 7.82966 9.03117 7.93206 9.18523 7.94521C9.23173 7.94944 9.2787 7.94662 9.32567 7.94662C10.2444 7.94662 11.1636 7.94662 12.0824 7.94662C13.0011 7.94662 13.9203 7.94662 14.8391 7.94662C14.8973 7.94662 14.9579 7.95273 15.0138 7.94004C15.1491 7.90904 15.2308 7.82074 15.2284 7.67936C15.2266 7.53845 15.143 7.45296 15.0067 7.42431V7.42384Z" fill="white"/>
<path d="M14.9969 9.00546C14.9457 8.99654 14.8916 9.00123 14.839 9.00123C13.9203 9.00123 13.0011 9.00123 12.0823 9.00123C11.1636 9.00123 10.2444 9.00123 9.32565 9.00123C9.27868 9.00123 9.23171 8.99889 9.18521 9.00264C9.03068 9.01533 8.9311 9.11678 8.92875 9.26004C8.9264 9.41082 9.02974 9.51556 9.19366 9.52777C9.22278 9.53012 9.25238 9.52871 9.2815 9.52871C11.1486 9.52871 13.0156 9.52871 14.8827 9.52871C14.9236 9.52871 14.9659 9.53247 15.0053 9.52402C15.1415 9.49489 15.2261 9.41035 15.2275 9.26991C15.2289 9.12054 15.1425 9.03177 14.9969 9.00593V9.00546Z" fill="white"/>
<path d="M2.17481 8.374C2.17387 9.31388 2.92962 10.0701 3.86903 10.0696C4.80515 10.0696 5.56372 9.3073 5.56184 8.37024C5.55996 7.44445 4.80092 6.68494 3.87419 6.68165C2.93807 6.6779 2.17574 7.43741 2.17481 8.374ZM5.03436 8.38433C5.03061 9.0236 4.50783 9.54262 3.86762 9.54215C3.21614 9.54168 2.69759 9.01937 2.70228 8.36836C2.70651 7.7197 3.23493 7.20115 3.88406 7.20866C4.52145 7.21618 5.03812 7.74413 5.03436 8.38433Z" fill="white"/>
</svg>
