<svg xmlns="http://www.w3.org/2000/svg" width="56" height="56" viewBox="0 0 56 56">
  <g id="product" transform="translate(-18 -62.602)">
    <circle id="Oval" cx="28" cy="28" r="28" transform="translate(18 62.602)" fill="#f3f2f2"/>
    <circle id="Oval-2" data-name="Oval" cx="20" cy="20" r="20" transform="translate(26 70.602)" fill="#00a7e8"/>
    <g id="Group_11379" data-name="Group 11379" transform="translate(291.039 468.541)">
      <path id="Path_20893" data-name="Path 20893" d="M-254.036-377.917q0-2.156,0-4.311c0-.178.018-.357.024-.535a.36.36,0,0,1,.2-.321c.949-.552,1.892-1.114,2.84-1.666,1.771-1.031,3.542-2.062,5.329-3.067.041-.023.084-.044.125-.067a.374.374,0,0,1,.394,0c.72.409,1.443.812,2.161,1.223q3.047,1.746,6.075,3.525a.531.531,0,0,1,.29.5c.042,1.408.022,2.816.025,4.224,0,1.579-.006,3.159-.011,4.738,0,.175-.016.35-.018.525a.45.45,0,0,1-.243.416c-.551.33-1.1.659-1.657.981q-2.918,1.7-5.866,3.34c-.258.143-.523.275-.779.422a.3.3,0,0,1-.332,0c-.666-.355-1.325-.724-1.982-1.1-1.922-1.084-3.838-2.176-5.737-3.3-.226-.134-.447-.275-.672-.411a.276.276,0,0,1-.139-.222,7.965,7.965,0,0,1-.038-.863q0-2.019,0-4.038Zm8.233,4.437q0-2.024,0-4.048a.179.179,0,0,0-.1-.181c-.533-.3-1.062-.611-1.593-.917l-5.468-3.151c-.115-.066-.116-.065-.116.069q.013,4.092.024,8.183a.162.162,0,0,0,.1.162c.573.327,1.144.658,1.716.988,1.753,1.011,3.5,2.03,5.268,3.017.157.088.158.088.163-.086C-245.775-370.788-245.792-372.134-245.8-373.48Zm8.245-4.138q0-2.046,0-4.092c0-.065.014-.131-.092-.07q-1.44.832-2.883,1.657a.116.116,0,0,0-.068.111c0,.346-.013.693-.021,1.039q-.017.782-.034,1.564c0,.046.007.1-.045.126-.258.151-.508.315-.779.445-.063.03-.1.017-.106-.053s-.019-.152-.022-.228c-.034-.711,0-1.422-.038-2.133-.011-.2-.01-.205-.184-.106q-1.438.824-2.876,1.648a.188.188,0,0,0-.107.19c0,1.2-.01,2.392-.012,3.589,0,1.506-.011,3.012.022,4.518,0,.142.005.142.13.074l.019-.011q3.481-1.966,6.937-3.976a.281.281,0,0,0,.158-.276Q-237.529-375.61-237.557-377.618Zm-7.763-.937a.935.935,0,0,0,.3-.12c.876-.466,1.73-.969,2.583-1.474.251-.149.252-.153.005-.316-.629-.418-1.281-.8-1.932-1.18q-2.432-1.431-4.866-2.858a.191.191,0,0,0-.22,0c-.217.127-.439.246-.657.371-.765.439-1.531.877-2.285,1.336-.1.063-.109.092-.013.164s.226.16.344.232c1.169.708,2.359,1.381,3.543,2.065,1,.578,2.005,1.149,3.008,1.723A.3.3,0,0,0-245.321-378.555Zm4.238-2.393a.168.168,0,0,0,.114-.039c.212-.122.424-.243.635-.367.7-.416,1.424-.8,2.105-1.253.152-.1.151-.1,0-.195q-2-1.161-4-2.32c-.982-.567-1.965-1.133-2.961-1.676a.206.206,0,0,0-.223-.013c-.938.512-1.86,1.053-2.782,1.592-.083.048-.062.078,0,.119.162.1.322.215.486.316,1.643,1.012,3.311,1.98,4.979,2.949.473.275.946.55,1.434.8A1,1,0,0,0-241.082-380.948Z" fill="#fff" stroke="#fff" stroke-width="1"/>
    </g>
  </g>
</svg>
