<svg width="15" height="18" viewBox="0 0 15 18" fill="none" xmlns="http://www.w3.org/2000/svg">
<path d="M14.9927 1.8004C14.9797 1.61477 14.8789 1.51597 14.6898 1.50499C14.6314 1.5015 14.5725 1.50349 14.5142 1.50349C11.7367 1.50349 8.95977 1.5025 6.18283 1.50599C6.0466 1.50599 5.99371 1.48004 5.98223 1.32884C5.93832 0.750998 5.50119 0.235529 4.93582 0.0668663C4.86396 0.0454092 4.79261 0.0224551 4.72125 0H4.26416C4.25568 0.00748503 4.2482 0.0199601 4.23872 0.0219561C3.50269 0.19511 3.08752 0.656188 3.00369 1.40768C2.99321 1.50349 2.94281 1.50299 2.87444 1.50299C2.62245 1.502 2.37045 1.499 2.11846 1.50449C1.91187 1.50898 1.80858 1.61677 1.80109 1.82186C1.79909 1.88024 1.80059 1.93912 1.80059 1.9975C1.80059 6.56188 1.79959 11.1257 1.80458 15.6901C1.80458 15.8618 1.76067 15.9062 1.59201 15.9007C1.18832 15.8877 0.783625 15.8952 0.379434 15.8972C0.107478 15.8987 0.00468331 15.9995 0.0016893 16.266C-0.00030671 16.4356 -0.000805712 16.6058 0.0016893 16.7754C0.0131663 17.494 0.520152 17.9985 1.24021 17.999C5.41187 18.0005 9.58353 17.9995 13.7552 18C13.8969 18 14.0351 17.982 14.1699 17.9381C14.7003 17.764 14.9942 17.3199 14.9942 16.6881C14.9942 11.7725 14.9942 6.85679 14.9942 1.94112C14.9942 1.89421 14.9957 1.84731 14.9922 1.8004H14.9927ZM3.60448 1.37126C3.66686 0.946108 4.04161 0.611277 4.47474 0.600299C4.90937 0.589321 5.29909 0.903693 5.38293 1.32585C5.40987 1.46257 5.37394 1.51297 5.22674 1.50649C4.97624 1.49501 4.72474 1.50349 4.47325 1.50349C4.22225 1.50349 3.97075 1.5 3.71975 1.50499C3.61596 1.50699 3.58951 1.47156 3.60398 1.37126H3.60448ZM12.612 17.4017C12.583 17.3992 12.5536 17.4017 12.5241 17.4017C8.79261 17.4017 5.06057 17.4017 1.32903 17.4017C0.799593 17.4017 0.560073 17.1377 0.598995 16.6078C0.604983 16.524 0.632428 16.491 0.714264 16.4975C0.760671 16.501 0.808076 16.4975 0.854983 16.4975C2.77065 16.4975 4.68632 16.4975 6.60199 16.4975C8.51766 16.4975 10.4448 16.4975 12.3665 16.4975C12.6314 16.4975 12.596 16.4731 12.5955 16.7171C12.595 16.9132 12.6175 17.1043 12.7018 17.2814C12.7567 17.3962 12.7083 17.4102 12.612 17.4017ZM14.3944 9.54591C14.3944 11.9187 14.3944 14.2914 14.3944 16.6637C14.3944 16.7685 14.4029 16.8743 14.37 16.9775C14.2821 17.251 14.0117 17.4306 13.7337 17.3977C13.4373 17.3628 13.2118 17.1233 13.1988 16.8164C13.1908 16.6292 13.1983 16.4416 13.1958 16.254C13.1928 16.009 13.087 15.9042 12.84 15.8977C12.7871 15.8962 12.7347 15.8977 12.6818 15.8977C9.33103 15.8977 5.97973 15.8977 2.62893 15.8972C2.36147 15.8972 2.40039 15.9301 2.40039 15.6617C2.39939 11.2151 2.40039 6.76846 2.3959 2.32186C2.3959 2.1502 2.42933 2.09681 2.61247 2.0988C3.48522 2.10978 4.35848 2.10629 5.23123 2.1008C5.35997 2.0998 5.40139 2.13074 5.39939 2.26497C5.39091 2.75699 5.39889 3.249 5.3939 3.74102C5.39141 3.98104 5.24271 4.15419 5.02814 4.18812C4.80808 4.22256 4.61297 4.11327 4.53213 3.91317C4.50269 3.83982 4.50269 3.76447 4.50219 3.68862C4.50119 3.41317 4.4967 3.13772 4.50418 2.86277C4.50718 2.74551 4.48023 2.7001 4.35099 2.6996C3.90139 2.6986 3.90089 2.69361 3.90139 3.14222C3.90139 3.35329 3.8964 3.56437 3.90438 3.77495C3.92584 4.36178 4.38742 4.80689 4.95977 4.7989C5.53113 4.79092 5.98073 4.3508 5.99271 3.77096C6.00269 3.27295 6.00019 2.77495 5.99271 2.27695C5.99071 2.13972 6.02814 2.0998 6.16836 2.0998C8.85149 2.10379 11.5346 2.10429 14.2178 2.0998C14.3685 2.0998 14.3989 2.14471 14.3989 2.28693C14.3944 4.70659 14.3959 7.12575 14.3959 9.54541L14.3944 9.54591Z" fill="white"/>
<path d="M11.102 8.69731C12.4298 8.69332 13.5067 7.61248 13.4997 6.29013C13.4922 4.96378 12.4129 3.89542 11.0845 3.90041C9.76765 3.9054 8.69579 4.98125 8.69629 6.29811C8.69629 7.62197 9.77862 8.70081 11.102 8.69682V8.69731ZM11.4927 4.54562C11.8914 4.64242 12.2242 4.84402 12.4862 5.16089C12.5276 5.21079 12.5376 5.24522 12.4667 5.28065C12.1179 5.4523 11.7706 5.62745 11.3989 5.81308C11.3989 5.39692 11.3999 5.00819 11.3979 4.61897C11.3979 4.54612 11.4243 4.52865 11.4927 4.54562ZM11.2123 6.60749C11.2632 6.5566 11.3225 6.52266 11.3854 6.49123C11.8036 6.28364 12.2212 6.07456 12.6389 5.86648C12.8315 5.77017 12.8335 5.77117 12.8704 5.99023C13.0566 7.09602 12.2123 8.09851 11.0171 8.09652C10.7597 8.10001 10.4513 8.0052 10.1624 7.83703C10.0725 7.78464 10.0675 7.74821 10.1444 7.67286C10.5037 7.32107 10.858 6.96428 11.2123 6.60749ZM10.6763 4.54911C10.7921 4.52466 10.8026 4.56707 10.8011 4.66039C10.7971 4.89991 10.7996 5.13943 10.7996 5.43085C10.7866 5.64691 10.8789 5.94382 10.7681 6.17436C10.6609 6.39841 10.4159 6.55709 10.2307 6.74322C10.0621 6.91338 9.8884 7.07905 9.72373 7.2527C9.64789 7.33304 9.61395 7.31508 9.55856 7.23075C8.91236 6.24272 9.51665 4.79412 10.6758 4.54911H10.6763Z" fill="white"/>
<path d="M7.14813 10.5035C5.98246 10.5015 4.81729 10.5015 3.65162 10.5035C3.40362 10.5035 3.30082 10.6067 3.30033 10.8587C3.29833 12.0184 3.29833 13.1781 3.30033 14.3378C3.30033 14.5968 3.40561 14.6966 3.66609 14.6971C4.23995 14.6986 4.8138 14.6971 5.38815 14.6971C5.96799 14.6971 6.54783 14.6981 7.12767 14.6971C7.38715 14.6966 7.49693 14.5918 7.49743 14.3403C7.49893 13.1806 7.49843 12.0209 7.49743 10.8612C7.49743 10.6122 7.39314 10.5035 7.14813 10.5035ZM6.90112 13.96C6.90112 14.0643 6.87817 14.1013 6.76589 14.1008C5.85771 14.0963 4.95003 14.0958 4.04184 14.1008C3.92009 14.1013 3.89813 14.0568 3.89863 13.9486C3.90212 13.0524 3.90362 12.1556 3.89713 11.2594C3.89613 11.1182 3.94903 11.0978 4.07078 11.0998C4.52188 11.1057 4.97298 11.1023 5.42408 11.1023C5.86919 11.1023 6.3148 11.1047 6.75991 11.1003C6.8627 11.0993 6.90262 11.1227 6.90162 11.2355C6.89713 12.1437 6.89763 13.0514 6.90162 13.9595L6.90112 13.96Z" fill="white"/>
<path d="M8.58422 12.3045C10.0782 12.2995 11.5722 12.3015 13.0658 12.3015C13.5064 12.3015 13.5004 12.3015 13.5039 11.8629C13.5049 11.7262 13.4595 11.6987 13.3327 11.6992C12.5418 11.7047 11.7509 11.7017 10.96 11.7017C10.2454 11.7017 9.53033 11.7017 8.81576 11.7017C8.3961 11.7017 8.40309 11.7017 8.3956 12.1219C8.39311 12.2716 8.44051 12.3045 8.58372 12.304L8.58422 12.3045Z" fill="white"/>
<path d="M13.3107 12.8965C11.8182 12.9025 10.3261 12.9 8.83363 12.9C8.39451 12.9 8.4 12.9 8.39651 13.3361C8.39551 13.4669 8.43044 13.5033 8.56267 13.5018C9.35858 13.4953 10.1545 13.4988 10.9504 13.4988H13.0921C13.5018 13.4988 13.4943 13.4988 13.5043 13.0896C13.5083 12.9339 13.4654 12.8955 13.3107 12.8965Z" fill="white"/>
<path d="M12.1246 14.0957C11.0303 14.1012 9.93596 14.0987 8.84214 14.0987C8.39154 14.0987 8.39604 14.0987 8.39653 14.5448C8.39653 14.6686 8.43346 14.702 8.55472 14.7005C9.15751 14.6945 9.76031 14.698 10.3626 14.698C10.8656 14.698 11.3691 14.698 11.8721 14.698C12.3027 14.698 12.2967 14.698 12.3012 14.2699C12.3027 14.1306 12.2613 14.0952 12.1241 14.0957H12.1246Z" fill="white"/>
<path d="M13.332 10.5001C12.8934 10.5066 12.4548 10.5026 12.0162 10.5026C11.6534 10.5026 11.2911 10.5026 10.9283 10.5026C10.4872 10.5026 10.4932 10.5026 10.4912 10.9417C10.4907 11.0784 10.5371 11.1059 10.6634 11.1054C11.4648 11.1004 12.2657 11.1029 13.0671 11.1029C13.5077 11.1029 13.5017 11.1029 13.5042 10.6633C13.5052 10.5255 13.4573 10.4981 13.332 10.5001Z" fill="white"/>
<path d="M5.7004 7.19085C5.7004 7.55911 5.7004 7.92737 5.7004 8.29614C5.7004 8.70232 5.7004 8.69634 6.11607 8.70232C6.25878 8.70432 6.30519 8.66889 6.30369 8.51919C6.29621 7.72428 6.3002 6.92887 6.3002 6.13396C6.3002 5.69434 6.3002 5.69933 5.86607 5.69534C5.73882 5.69434 5.69441 5.72278 5.69741 5.85851C5.70639 6.30262 5.7009 6.74723 5.7009 7.19135L5.7004 7.19085Z" fill="white"/>
<path d="M3.29894 8.25107C3.29894 8.71764 3.29894 8.71414 3.76151 8.70017C3.8683 8.69718 3.90373 8.66375 3.90223 8.55746C3.89724 8.20067 3.90023 7.84389 3.90023 7.4871C3.90023 7.2356 3.90023 6.9841 3.90023 6.73261C3.90023 6.29049 3.90023 6.29598 3.46361 6.29299C3.33087 6.29199 3.29445 6.33141 3.29594 6.46115C3.30193 7.05746 3.29844 7.65426 3.29844 8.25057L3.29894 8.25107Z" fill="white"/>
<path d="M7.4979 7.65053C7.4979 7.44594 7.4979 7.24085 7.4979 7.03626C7.4979 6.59864 7.49791 6.60363 7.06327 6.59963C6.93603 6.59864 6.89311 6.62708 6.89561 6.76281C6.90409 7.25981 6.8991 7.75732 6.8991 8.25433C6.8991 8.71441 6.8991 8.71091 7.36018 8.70093C7.46447 8.69844 7.5029 8.67349 7.5004 8.56271C7.49341 8.25882 7.4979 7.95442 7.4979 7.65003V7.65053Z" fill="white"/>
<path d="M4.50082 7.7919C4.50082 7.94959 4.50082 8.10727 4.50082 8.26546C4.50082 8.71456 4.50082 8.70957 4.9574 8.70109C5.07816 8.69859 5.10411 8.65518 5.10261 8.5459C5.09762 8.1427 5.10062 7.73951 5.10062 7.33632C5.10062 6.88671 5.10062 6.8917 4.65152 6.8927C4.52327 6.8927 4.49483 6.93911 4.49832 7.05588C4.50531 7.30089 4.50032 7.54689 4.50032 7.7919H4.50082Z" fill="white"/>
<path d="M9.29492 10.7944C9.29492 10.9996 9.39539 11.1023 9.59632 11.1023C9.79725 11.1023 9.89672 11.0046 9.89472 10.8093C9.89472 10.6044 9.79459 10.502 9.59432 10.502C9.39472 10.502 9.29492 10.5993 9.29492 10.7939V10.7944Z" fill="white"/>
</svg>
