<svg width="18" height="18" viewBox="0 0 18 18" fill="none" xmlns="http://www.w3.org/2000/svg">
<path d="M9.50063 18C8.3299 18 7.15916 17.9995 5.98843 17.9984L4.46735 17.9974C4.39428 17.9974 4.31136 17.9886 4.20615 17.9694C3.50858 17.844 2.99862 17.2864 2.93746 16.5815C2.92917 16.4862 2.92554 16.3794 2.92554 16.2462C2.92554 13.5342 2.92503 10.8222 2.92503 8.11016V6.08275C2.92503 5.74174 2.85713 5.67229 2.52286 5.67229H1.27128C0.984164 5.67229 0.696533 5.67229 0.408902 5.67177C0.095877 5.67125 0.000518254 5.57486 0.000518254 5.26028C0 3.64436 0 2.02793 0 0.411494C0 0.100023 0.100541 0 0.410975 0C1.92946 0 6.98503 0 6.98503 0H17.5382C17.9181 0 18 0.0813659 18 0.457618C18 2.05436 18 3.65162 18 5.24836C18 5.58056 17.9109 5.67177 17.5844 5.67229L17.1604 5.67333C16.9267 5.67385 16.6935 5.67488 16.4597 5.67488C16.0685 5.67488 15.7487 5.67281 15.4533 5.66814H15.4383C15.3522 5.66814 15.2429 5.67851 15.1626 5.75884C15.0817 5.83969 15.0708 5.95215 15.0713 6.05165C15.075 8.45272 15.075 10.8937 15.075 13.2543C15.075 14.267 15.075 15.2797 15.075 16.2929C15.075 16.5624 15.0542 16.8754 14.8988 17.1552C14.5899 17.7118 14.1276 17.9943 13.5249 17.9959C12.3189 17.999 11.0398 18 9.50063 18ZM3.88069 3.09968C3.80036 3.09968 3.69826 3.10901 3.62519 3.18208C3.55159 3.25567 3.54227 3.35725 3.54227 3.43758C3.54434 6.10866 3.54486 8.77974 3.54538 11.4508C3.54538 13.0906 3.54538 14.7303 3.54641 16.3701C3.54641 16.992 3.93458 17.3786 4.55908 17.3791C5.69302 17.3791 6.82644 17.3791 7.96038 17.3791C9.78671 17.3791 11.613 17.3791 13.4394 17.3781C13.5254 17.3781 13.6249 17.376 13.7239 17.3532C14.1877 17.247 14.4541 16.8744 14.4546 16.3317C14.4551 14.763 14.4546 13.1937 14.4546 11.625V8.70978C14.4546 6.98866 14.4546 5.20845 14.4567 3.45779C14.4567 3.37643 14.4567 3.265 14.3748 3.1826C14.2991 3.10693 14.1934 3.09812 14.1203 3.09812C12.4464 3.10123 10.6771 3.10227 8.86007 3.10227C7.20114 3.10227 5.54117 3.10123 3.88224 3.09916H3.88069V3.09968ZM16.2374 5.04987C16.5131 5.04987 16.7691 5.05194 17.021 5.05712H17.0397C17.1205 5.05712 17.2226 5.04779 17.2978 4.97213C17.375 4.89491 17.3838 4.78608 17.3833 4.70005C17.376 3.4863 17.376 2.24041 17.3833 0.997639C17.3838 0.89347 17.3734 0.786191 17.2952 0.706899C17.2154 0.626569 17.1024 0.616204 17.0127 0.616204C15.2812 0.62035 13.5425 0.620868 12.0701 0.620868H6.51964C4.66999 0.620868 2.81982 0.620868 0.97069 0.619314H0.932857C0.876886 0.619314 0.773235 0.619314 0.696533 0.696533C0.641598 0.751468 0.615168 0.830761 0.616204 0.93804C0.625014 2.27358 0.621905 3.6086 0.617759 4.73788C0.617759 4.81199 0.626051 4.90579 0.696533 4.97679C0.767016 5.04779 0.863411 5.05557 0.929748 5.05557H0.938558C1.25521 5.05194 1.53196 5.05039 1.78435 5.05039C2.06317 5.05039 2.31763 5.05246 2.56328 5.0566H2.58091C2.66331 5.0566 2.76799 5.04676 2.8447 4.96902C2.92243 4.88973 2.93073 4.78193 2.92917 4.69694C2.9214 4.24606 2.92295 3.78636 2.92451 3.34222C2.92451 3.20644 2.92554 3.07066 2.92554 2.93487C2.92554 2.57158 3.01417 2.48296 3.37539 2.48296H14.6246C14.9858 2.48296 15.0745 2.57158 15.075 2.93435L15.076 3.30283C15.077 3.76615 15.0786 4.24554 15.0719 4.71611C15.0708 4.7897 15.0781 4.89595 15.1532 4.97213C15.2268 5.04624 15.3253 5.05609 15.4035 5.05609H15.4165C15.7104 5.05194 15.9788 5.04987 16.2374 5.04987Z" fill="white"/>
<path d="M9.002 15.5256C8.91856 15.5256 8.82683 15.4759 8.72836 15.3785C8.25675 14.9089 7.78617 14.4378 7.3156 13.9673L6.75329 13.405C6.70717 13.3588 6.66104 13.3132 6.61492 13.2676C6.51179 13.1655 6.40502 13.0598 6.30397 12.9541C6.15004 12.7934 6.13968 12.6172 6.27598 12.4814C6.33817 12.4198 6.41073 12.3871 6.48639 12.3871C6.57501 12.3871 6.66519 12.4301 6.74759 12.512C7.23993 12.9997 7.7359 13.5008 8.2158 13.9854L8.23809 14.0082C8.26193 14.032 8.28421 14.0652 8.30857 14.1005C8.32256 14.1207 8.33604 14.1409 8.35055 14.1606L8.43658 14.2767L8.69001 14.1165V7.4015C8.69001 7.38284 8.69001 7.36367 8.69001 7.34449C8.68949 7.29474 8.68897 7.24706 8.69312 7.20353C8.70918 7.04494 8.83875 6.92211 8.99422 6.91797H9.002C9.15955 6.91797 9.29066 7.04079 9.30777 7.20353C9.31243 7.24758 9.31191 7.29474 9.31088 7.34553C9.31088 7.36419 9.31088 7.38232 9.31088 7.40098V14.1875L9.46946 14.1906C9.60732 14.1906 9.67987 14.1005 9.71511 14.0569C9.72081 14.0502 9.726 14.0429 9.73222 14.0367C10.1743 13.5957 10.6215 13.1458 11.0543 12.7105L11.2517 12.512C11.3336 12.4296 11.4129 12.3897 11.4953 12.3897C11.5285 12.3897 11.5637 12.3964 11.6005 12.4089C11.7254 12.4529 11.7928 12.5353 11.812 12.6685C11.827 12.7732 11.7923 12.8613 11.6985 12.9546L11.074 13.5786C10.4785 14.174 9.86333 14.7892 9.25542 15.3925C9.16628 15.4811 9.08129 15.5256 9.00251 15.5256H9.002Z" fill="white"/>
</svg>
