<svg width="18" height="18" viewBox="0 0 18 18" fill="none" xmlns="http://www.w3.org/2000/svg">
<path d="M16.6366 5.61152C15.4153 3.80064 13.5601 2.59705 11.4124 2.22257C11.098 2.16771 10.7884 2.13384 10.4917 2.12239C10.3424 2.11666 10.2231 2.06085 10.1163 1.94636C9.39498 1.17497 8.6131 0.648308 7.72675 0.336319C7.26306 0.173168 6.79603 0.069649 6.33806 0.0290999C6.29465 0.0252835 6.25505 0.0152655 6.22071 0.00620162C6.2126 0.00429343 6.20449 0.00190819 6.19638 0H5.3334C5.21986 0.0209901 5.10537 0.039595 4.99422 0.0577228C4.7223 0.102565 4.44179 0.148362 4.17465 0.22469C1.91726 0.870136 0.251881 2.87517 0.0305311 5.21414C0.0262376 5.25993 0.0162196 5.30239 0.00715572 5.3396C0.00477048 5.35009 0.00238524 5.36059 0 5.37108V6.19972C0.0224213 6.32232 0.0415032 6.44683 0.059631 6.56704C0.0939785 6.79173 0.12928 7.02358 0.187957 7.24397C0.472278 8.31209 1.02231 9.23613 1.82232 9.98939C2.01934 10.175 2.11619 10.3834 2.13718 10.6663C2.25644 12.2678 2.85036 13.7757 3.8555 15.0275C4.86017 16.2788 6.20592 17.188 7.74821 17.6575C8.49909 17.886 9.27334 18.0019 10.05 18.0019C11.8308 18.0019 13.5873 17.3855 14.996 16.2669C16.4319 15.1262 17.4347 13.51 17.8201 11.7158C18.2771 9.58819 17.8564 7.42001 16.6366 5.61104V5.61152ZM2.74541 9.81336C2.43438 9.51043 2.11285 9.19749 1.83759 8.84447C1.17354 7.99246 0.80001 6.96776 0.785698 5.95738C0.787606 3.05692 2.9763 0.784744 5.76751 0.784744C5.86244 0.784744 5.95881 0.787606 6.05374 0.792854C7.31553 0.864411 8.41226 1.35577 9.31341 2.2531C10.5418 3.47625 11.7869 4.72325 12.991 5.92875L13.6693 6.60807C13.9837 6.92244 14.0037 7.32793 13.7199 7.61703C13.5901 7.74917 13.4279 7.81929 13.251 7.81929C13.0544 7.81929 12.8564 7.72961 12.6938 7.56741L12.5769 7.45101C11.7902 6.66675 10.9769 5.85576 10.1826 5.05242C10.1692 5.03858 10.1587 5.02952 10.1511 5.02284C10.1454 5.02809 10.1387 5.03476 10.1306 5.04431C9.97174 5.22177 9.79427 5.39923 9.60298 5.5724C9.59868 5.57621 9.59487 5.58003 9.59153 5.58337C9.59582 5.58766 9.60059 5.59291 9.60679 5.59911C10.2904 6.27604 10.9816 6.96824 11.6505 7.63706L12.6313 8.61787C13.0129 8.99951 13.3946 9.38115 13.7762 9.76327C13.9818 9.96935 14.0452 10.2169 13.9589 10.4793C13.874 10.7388 13.6822 10.8986 13.4046 10.9425C13.3702 10.9478 13.3359 10.9506 13.3025 10.9506C13.0535 10.9506 12.8736 10.7989 12.7601 10.6849C12.2964 10.2188 11.8308 9.75373 11.3657 9.2886L10.3772 8.30064C9.79284 7.71673 9.18842 7.11279 8.59688 6.516C8.58543 6.50455 8.57685 6.49644 8.56969 6.49024C8.5654 6.49453 8.56063 6.4993 8.5549 6.50598C8.39795 6.68201 8.22001 6.85995 8.02633 7.03407C8.02061 7.03932 8.01536 7.04409 8.01155 7.04791C8.01679 7.05411 8.02395 7.06174 8.03349 7.07081C9.33726 8.36933 10.6596 9.69314 11.9386 10.9726L12.6423 11.6762C12.6871 11.7206 12.7334 11.7664 12.7758 11.8198C12.9981 12.0998 12.9743 12.4958 12.7205 12.7405C12.5931 12.8631 12.4261 12.9309 12.2501 12.9309C12.0941 12.9309 11.9396 12.876 11.8155 12.7763C11.7659 12.7367 11.723 12.6933 11.682 12.6518L10.8338 11.8041C9.6025 10.5738 8.32926 9.30101 7.0813 8.04541C7.06604 8.03015 7.05459 8.02013 7.04648 8.01345C7.0398 8.01965 7.03073 8.0292 7.01881 8.04255C6.87188 8.20809 6.70682 8.37315 6.52793 8.53344C6.50837 8.55109 6.49644 8.56349 6.48976 8.5716C6.49644 8.58066 6.50741 8.59402 6.52745 8.61358C7.41094 9.48896 8.30493 10.3839 9.16934 11.2488L9.9393 12.0192C9.9393 12.0192 10.5056 12.585 10.6592 12.7391C11.0079 13.0883 11.0456 13.49 10.7574 13.7872C10.6234 13.925 10.4612 13.998 10.289 13.998C10.0881 13.998 9.883 13.8993 9.696 13.7123L8.59402 12.6103C6.92721 10.9444 5.20412 9.22134 3.51346 7.52257C3.48531 7.49395 3.46719 7.48011 3.45669 7.47296C3.44763 7.48011 3.43331 7.49395 3.41089 7.51923C3.27589 7.6757 3.11894 7.83313 2.93098 8.0001C2.91572 8.01345 2.9057 8.02395 2.89902 8.0311C2.9057 8.03921 2.91524 8.05019 2.93051 8.06497C3.37511 8.50147 3.82259 8.94942 4.25527 9.38258C4.50095 9.62826 4.74663 9.87442 4.99278 10.1196C5.19124 10.3171 5.26947 10.5242 5.23226 10.7531C5.1879 11.0255 5.0257 11.2178 4.77573 11.2946C4.6994 11.318 4.62355 11.3299 4.54961 11.3299C4.36737 11.3299 4.19707 11.2569 4.05682 11.119C3.78347 10.8509 3.46623 10.5385 3.15758 10.2208C3.02353 10.0829 2.8828 9.9455 2.74637 9.81288L2.74541 9.81336ZM17.2028 10.3095C17.0812 13.8625 14.3248 16.8126 10.7918 17.1713C10.5413 17.1966 10.2885 17.2095 10.04 17.2095C6.71302 17.2095 3.78347 14.8581 3.0741 11.6185L2.95722 11.0852L3.32073 11.493C3.6914 11.9086 4.09212 12.1108 4.54674 12.1108C4.59016 12.1108 4.635 12.1089 4.67984 12.1051C5.21986 12.0612 5.61342 11.7845 5.9173 11.2345L6.03513 11.0212L6.16394 11.2283C6.18159 11.2564 6.19638 11.2827 6.20973 11.3075C6.22882 11.3423 6.24551 11.3723 6.26126 11.3881L6.37479 11.5021C7.2955 12.4261 8.24721 13.3812 9.18842 14.3157C9.49373 14.6187 9.87871 14.7856 10.2737 14.7856C10.6406 14.7856 10.9983 14.6392 11.2817 14.373C11.4377 14.2265 11.5517 14.0572 11.6214 13.8706C11.6691 13.7423 11.7554 13.677 11.8785 13.677C11.9004 13.677 11.9233 13.6789 11.9496 13.6832C12.0474 13.6989 12.1447 13.7065 12.2396 13.7065C12.689 13.7065 13.0859 13.5319 13.3578 13.2152C13.6417 12.8846 13.7566 12.4362 13.6822 11.9529C13.6579 11.796 13.7137 11.6924 13.8578 11.6271C14.342 11.4076 14.6711 11.0093 14.7603 10.5342C14.8496 10.059 14.6878 9.56863 14.3162 9.18938L14.3124 9.18556C14.1836 9.05389 14.05 8.91746 13.9155 8.78961C13.8754 8.75145 13.8082 8.68752 13.8182 8.59068C13.8287 8.49098 13.915 8.43707 13.9522 8.41417C14.3797 8.14846 14.6439 7.75537 14.6964 7.30694C14.7489 6.85709 14.581 6.41153 14.2237 6.05231C13.3306 5.15498 12.4209 4.24764 11.6486 3.47911C11.6323 3.46289 11.6023 3.44667 11.5703 3.42902C11.5493 3.41757 11.5283 3.40612 11.5078 3.39324L11.3547 3.29783L11.5799 3.07314L11.6552 3.08889C14.445 3.6623 17.3378 6.38815 17.2033 10.3095H17.2028Z" fill="white"/>
</svg>
