<svg xmlns="http://www.w3.org/2000/svg" width="20.046" height="20" viewBox="0 0 20.046 20">
  <g id="Reports" transform="translate(-437.938 -46.984)">
    <path id="Path_20880" data-name="Path 20880" d="M446.706,46.984q3.188,0,6.375,0a2.33,2.33,0,0,1,2.393,2.379c0,1.854,0,3.708,0,5.561a.658.658,0,0,1-.207.53.625.625,0,0,1-1.046-.468c0-.989,0-1.979,0-2.969,0-.885,0-1.77,0-2.655a1.079,1.079,0,0,0-1.131-1.125q-3.313,0-6.626,0h-6.1a1.088,1.088,0,0,0-1.171,1.175q0,5.279,0,10.559a1.139,1.139,0,0,0,.528,1.053,1.113,1.113,0,0,0,.61.158h5.624c.422,0,.844-.006,1.265,0a.611.611,0,0,1,.586.552.628.628,0,0,1-.436.667,1.12,1.12,0,0,1-.335.032q-3.257,0-6.513,0a2.99,2.99,0,0,1-1-.131,2.33,2.33,0,0,1-1.578-2.192c-.005-1.866,0-3.733,0-5.6q0-2.568,0-5.135a2.336,2.336,0,0,1,2.391-2.4Q443.518,46.982,446.706,46.984Z" fill="#fff"/>
    <path id="Path_20881" data-name="Path 20881" d="M896.691,451.9q0,1.954,0,3.908a1.041,1.041,0,0,1-1.066,1.075q-3.313.007-6.626,0a1.041,1.041,0,0,1-1.076-1.09q0-3.9,0-7.791a1.051,1.051,0,0,1,1.1-1.095q3.282,0,6.563,0a1.054,1.054,0,0,1,1.108,1.111q0,1.942,0,3.883Zm-4.384-.611c1,0,2,0,2.994,0,.111,0,.14-.03.139-.14q-.007-1.428,0-2.856c0-.111-.029-.14-.14-.139q-2.994,0-5.988,0c-.11,0-.141.029-.14.14q.007,1.422,0,2.843c0,.121.033.153.153.153C890.319,451.287,891.313,451.289,892.307,451.289Zm-.013,4.342c1,0,2,0,3,0,.105,0,.143-.021.143-.136q-.007-1.415,0-2.829c0-.1-.028-.127-.126-.126q-3,0-6.01,0c-.108,0-.131.036-.131.136q0,1.4,0,2.8c0,.121.033.153.153.152C890.316,455.629,891.3,455.631,892.294,455.631Z" transform="translate(-438.709 -389.903)" fill="#fff"/>
    <path id="Path_20882" data-name="Path 20882" d="M518.035,148.244c-.077.091-.149.188-.233.272q-2.05,2.042-4.1,4.08a.631.631,0,0,1-.979-.006q-1.05-1.075-2.1-2.154c-.086-.09-.129-.082-.213,0q-1.626,1.633-3.258,3.261a.656.656,0,0,1-.533.228.626.626,0,0,1-.395-1.071c.322-.327.649-.65.974-.974q1.431-1.429,2.862-2.858a.614.614,0,0,1,.721-.152.757.757,0,0,1,.229.171c.7.72,1.407,1.439,2.106,2.162.08.083.122.083.2,0q1.88-1.875,3.765-3.745c.026-.026.05-.054.076-.083-.042-.044-.091-.024-.133-.024l-2.705,0a.625.625,0,0,1-.231-1.211.7.7,0,0,1,.246-.04q2.442,0,4.885,0c.084,0,.116.02.116.111,0,1.645,0,3.29,0,4.935a.621.621,0,0,1-.621.612.628.628,0,0,1-.628-.632c0-.668,0-1.336,0-2q0-.419,0-.838Z" transform="translate(-66.388 -96.633)" fill="#fff"/>
  </g>
</svg>
