<svg xmlns="http://www.w3.org/2000/svg" width="19.996" height="20" viewBox="0 0 19.996 20">
  <g id="Info" transform="translate(673.994 224.141)">
    <path id="Path_20904" data-name="Path 20904" d="M-673.994-214.4a9.752,9.752,0,0,1,2.908-6.688,9.84,9.84,0,0,1,5.18-2.851,9.3,9.3,0,0,1,6.5.982,9.988,9.988,0,0,1,5.151,6.709,9.249,9.249,0,0,1-1.084,6.966,9.952,9.952,0,0,1-6.205,4.794,9.342,9.342,0,0,1-7.9-1.359,10.01,10.01,0,0,1-4.334-6.311A10.023,10.023,0,0,1-673.994-214.4Zm9.981,8.435a8.322,8.322,0,0,0,1.664-.158,7.786,7.786,0,0,0,5.283-3.591,8.184,8.184,0,0,0,1.082-6.08,7.7,7.7,0,0,0-4.068-5.565,8.206,8.206,0,0,0-5.594-.805,7.727,7.727,0,0,0-5.484,3.914,8.272,8.272,0,0,0-.946,5.441A7.79,7.79,0,0,0-670-208.493,8.07,8.07,0,0,0-664.013-205.964Z" transform="translate(0 0)" fill="#fff"/>
    <path id="Path_20905" data-name="Path 20905" d="M-371.567,84.591c.1,0,.238-.051.287.011s-.032.185-.059.28q-.914,3.181-1.83,6.361c-.052.179-.09.363-.132.545a.475.475,0,0,0,0,.235.281.281,0,0,0,.354.192.634.634,0,0,0,.243-.148,5.308,5.308,0,0,0,.887-1.091c.068-.1.116-.131.227-.055.171.116.177.108.067.29a6.48,6.48,0,0,1-1.263,1.584,2.512,2.512,0,0,1-1.422.667,1.391,1.391,0,0,1-1.169-.345,1.218,1.218,0,0,1-.311-1.177c.117-.622.329-1.219.5-1.826.327-1.147.661-2.291.991-3.437a3.71,3.71,0,0,0,.106-.538.568.568,0,0,0-.561-.682,2.96,2.96,0,0,0-.324,0c-.071,0-.091-.009-.075-.088a.359.359,0,0,1,.356-.323c.946-.137,1.888-.3,2.832-.453A1.92,1.92,0,0,1-371.567,84.591Z" transform="translate(-290.817 -301)" fill="#fff"/>
    <path id="Path_20906" data-name="Path 20906" d="M-271.167-85.174a1.355,1.355,0,0,1-1.355,1.372,1.361,1.361,0,0,1-1.366-1.364,1.353,1.353,0,0,1,1.358-1.369A1.347,1.347,0,0,1-271.167-85.174Z" transform="translate(-390.111 -134.169)" fill="#fff"/>
  </g>
</svg>
