<svg xmlns="http://www.w3.org/2000/svg" width="20" height="20" viewBox="0 0 20 20">
  <g id="Contact" transform="translate(-271 -175)">
    <path id="Path_20931" data-name="Path 20931" d="M271,185.756v-1.511c.026-.114.062-.227.077-.342a9.869,9.869,0,0,1,6.258-8.2,12.407,12.407,0,0,1,2.909-.7h1.511a1.455,1.455,0,0,0,.251.07,9.957,9.957,0,0,1,8.58,7.1c.194.653.258,1.327.414,1.985v1.689a2.583,2.583,0,0,0-.077.3,9.842,9.842,0,0,1-6.3,8.172,12.646,12.646,0,0,1-2.779.687h-1.689a.987.987,0,0,0-.2-.07,9.941,9.941,0,0,1-8.55-7.146C271.2,187.119,271.144,186.43,271,185.756Zm18.4-.733a8.393,8.393,0,1,0-8.451,8.372A8.408,8.408,0,0,0,289.4,185.023Z" fill="#fff"/>
    <path id="Path_20932" data-name="Path 20932" d="M334.092,252.69a3.372,3.372,0,0,1-1.66-.413,8.789,8.789,0,0,1-4.661-5.1,3.448,3.448,0,0,1-.055-2.013,1.823,1.823,0,0,1,1.787-1.386.563.563,0,0,1,.561.333c.279.5.561,1.009.88,1.488a.679.679,0,0,1-.134.98,1.182,1.182,0,0,1-.1.084c-.837.638-.873.511-.191,1.526a6.372,6.372,0,0,0,2.14,1.964.477.477,0,0,0,.69-.105c.894-.957.9-.952,2.026-.293.217.127.436.25.652.378a.883.883,0,0,1,.447,1.229c-.335.994-1.179,1.2-2.069,1.323A2.235,2.235,0,0,1,334.092,252.69Z" transform="translate(-51.562 -62.668)" fill="#fff"/>
    <path id="Path_20933" data-name="Path 20933" d="M391.993,239.394c0,.255.037.537-.332.554-.344.016-.385-.225-.409-.5a2.654,2.654,0,0,0-2.566-2.752c-.087-.014-.175-.03-.263-.042a.352.352,0,0,1-.341-.426.346.346,0,0,1,.413-.306,3.433,3.433,0,0,1,3.227,2.137A4.067,4.067,0,0,1,391.993,239.394Z" transform="translate(-106.67 -55.504)" fill="#fff"/>
    <path id="Path_20934" data-name="Path 20934" d="M384.3,255.818a2.311,2.311,0,0,1,2.111,2.119c.008.238-.06.423-.306.462s-.387-.1-.424-.345a1.6,1.6,0,0,0-1.526-1.514.347.347,0,0,1-.337-.43C383.854,255.84,384.05,255.8,384.3,255.818Z" transform="translate(-102.787 -73.63)" fill="#fff"/>
  </g>
</svg>
