<svg xmlns="http://www.w3.org/2000/svg" width="20.005" height="20" viewBox="0 0 20.005 20">
  <g id="settings" transform="translate(-406.05 -14.148)">
    <path id="Path_20883" data-name="Path 20883" d="M424.136,18.635a1.5,1.5,0,0,1-.358.931c-.21.281-.409.57-.616.854a.128.128,0,0,0-.017.155,7.274,7.274,0,0,1,.451,1.087.132.132,0,0,0,.121.1c.418.069.836.141,1.254.21a1.315,1.315,0,0,1,1.078,1.257c0,.6.008,1.2,0,1.794a1.337,1.337,0,0,1-1.212,1.324c-.382.05-.76.125-1.141.185a.113.113,0,0,0-.106.087,7.154,7.154,0,0,1-.456,1.1.129.129,0,0,0,.019.155c.234.326.463.655.7.979a1.329,1.329,0,0,1-.13,1.762q-.608.611-1.218,1.219a1.331,1.331,0,0,1-1.736.125c-.325-.235-.653-.466-.977-.7a.146.146,0,0,0-.176-.02,7.086,7.086,0,0,1-1.077.446.13.13,0,0,0-.1.12c-.068.422-.138.844-.212,1.266a1.331,1.331,0,0,1-1.309,1.077q-.839,0-1.679,0a1.331,1.331,0,0,1-1.383-1.182c-.063-.384-.128-.768-.188-1.153a.149.149,0,0,0-.117-.135,6.446,6.446,0,0,1-1.025-.422.137.137,0,0,0-.165.019q-.5.358-1,.712a1.312,1.312,0,0,1-1.75-.138q-.619-.608-1.225-1.227a1.312,1.312,0,0,1-.127-1.706q.355-.5.716-1a.136.136,0,0,0,.01-.166,6.846,6.846,0,0,1-.455-1.086c-.02-.062-.058-.073-.109-.082-.406-.069-.812-.142-1.219-.208a1.326,1.326,0,0,1-1.147-1.307q-.011-.88,0-1.76A1.337,1.337,0,0,1,407.226,22c.385-.056.768-.127,1.152-.189a.141.141,0,0,0,.126-.111,7.047,7.047,0,0,1,.441-1.079.133.133,0,0,0-.018-.157c-.239-.332-.473-.667-.714-1a1.306,1.306,0,0,1,.089-1.7c.43-.453.873-.894,1.326-1.325a1.287,1.287,0,0,1,1.584-.134c.369.245.724.512,1.083.772a.116.116,0,0,0,.144.013,6.983,6.983,0,0,1,1.1-.463.107.107,0,0,0,.085-.095c.069-.41.147-.819.208-1.231a1.339,1.339,0,0,1,1.326-1.152c.571,0,1.142,0,1.713,0a1.34,1.34,0,0,1,1.341,1.167c.057.385.129.768.191,1.152a.146.146,0,0,0,.116.133,6.81,6.81,0,0,1,1.1.454.164.164,0,0,0,.2-.019c.322-.233.647-.461.969-.693a1.316,1.316,0,0,1,1.75.139q.615.612,1.227,1.227A1.283,1.283,0,0,1,424.136,18.635Zm-13.707,1.874a.53.53,0,0,1-.079.3,6.932,6.932,0,0,0-.714,1.749.606.606,0,0,1-.476.456c-.172.04-.347.064-.521.094-.38.064-.76.125-1.14.19-.052.009-.113,0-.113.095,0,.531,0,1.063,0,1.594,0,.063.023.083.085.094.536.089,1.07.187,1.607.273a.687.687,0,0,1,.6.544,6.422,6.422,0,0,0,.69,1.634.66.66,0,0,1-.036.77c-.31.438-.62.875-.936,1.308-.057.078-.047.117.017.179q.549.539,1.089,1.087c.051.051.082.056.142.013.438-.315.882-.623,1.318-.941a.686.686,0,0,1,.809-.053,6.96,6.96,0,0,0,1.631.666.647.647,0,0,1,.493.564c.09.539.183,1.078.271,1.618.01.06.026.087.092.087q.792,0,1.585,0c.061,0,.084-.019.094-.083.088-.54.183-1.079.274-1.618a.652.652,0,0,1,.5-.571,6.18,6.18,0,0,0,1.579-.643.765.765,0,0,1,.95.036c.4.309.827.593,1.239.892a.1.1,0,0,0,.163-.012c.354-.36.71-.719,1.072-1.071.08-.078.072-.127.013-.209-.312-.431-.62-.865-.927-1.3a.654.654,0,0,1-.041-.76,6.856,6.856,0,0,0,.7-1.69.652.652,0,0,1,.573-.5c.524-.086,1.047-.179,1.573-.26.108-.017.127-.063.126-.156q0-.764,0-1.527c0-.061-.014-.086-.079-.1-.536-.088-1.07-.185-1.606-.271a.659.659,0,0,1-.586-.512,6.624,6.624,0,0,0-.683-1.648.682.682,0,0,1,.036-.809c.311-.432.617-.867.928-1.3a.11.11,0,0,0-.013-.173q-.54-.532-1.072-1.072c-.065-.066-.109-.077-.19-.018q-.656.484-1.323.955a.618.618,0,0,1-.7.046,7.387,7.387,0,0,0-1.8-.739.6.6,0,0,1-.455-.493c-.1-.549-.191-1.1-.278-1.652-.013-.084-.039-.106-.123-.106-.5,0-1,.006-1.5,0-.117,0-.149.037-.166.142-.085.525-.177,1.049-.266,1.573a.669.669,0,0,1-.525.579,6.689,6.689,0,0,0-1.665.7.649.649,0,0,1-.75-.04q-.665-.471-1.326-.949c-.065-.047-.1-.04-.153.014q-.54.548-1.088,1.088c-.062.061-.068.1-.016.171.323.447.641.9.96,1.347A.656.656,0,0,1,410.429,20.509Z" transform="translate(0)" fill="#fff"/>
    <path id="Path_20884" data-name="Path 20884" d="M658,261.473a4.432,4.432,0,1,1-4.4-4.444A4.441,4.441,0,0,1,658,261.473Zm-4.433,3.076a3.089,3.089,0,1,0-3.086-3.088A3.1,3.1,0,0,0,653.571,264.549Z" transform="translate(-237.518 -237.314)" fill="#fff"/>
  </g>
</svg>
