<svg width="18" height="18" viewBox="0 0 18 18" fill="none" xmlns="http://www.w3.org/2000/svg">
<path d="M17.037 14.0452C16.8299 13.8921 16.6218 13.7399 16.409 13.5948C16.3226 13.5356 16.2874 13.4778 16.3001 13.3655C16.3184 13.204 16.3146 13.0377 16.3001 12.8752C16.2911 12.7803 16.3123 12.7249 16.3898 12.6713C16.6115 12.5187 16.8299 12.3609 17.0459 12.1997C17.3813 11.9494 17.4691 11.568 17.2686 11.2044C17.076 10.8564 16.8773 10.5116 16.6716 10.1706C16.4621 9.82352 16.0873 9.7075 15.712 9.86532C15.534 9.94 15.348 10.0039 15.1859 10.1053C14.952 10.2514 14.7514 10.2514 14.5438 10.0645C14.4762 10.0039 14.3837 9.96819 14.2977 9.93155C14.2169 9.89726 14.1836 9.84512 14.1761 9.75917C14.1549 9.50271 14.1249 9.24672 14.1023 8.98979C14.0629 8.53606 13.7759 8.2594 13.3235 8.2533C12.9544 8.24813 12.5856 8.25001 12.2165 8.25236C11.7289 8.25565 11.4424 8.52103 11.3973 9.00576C11.3799 9.19224 11.347 9.37918 11.3494 9.56518C11.3522 9.79909 11.2583 9.94047 11.0389 10.0203C10.9365 10.0574 10.8449 10.1288 10.7557 10.1941C10.6904 10.2416 10.6364 10.2439 10.5631 10.2096C10.3142 10.0927 10.0633 9.98087 9.8111 9.8719C9.41185 9.69951 9.03844 9.82023 8.8158 10.1965C8.62228 10.5238 8.43158 10.8531 8.24511 11.1842C8.03139 11.5638 8.11594 11.9438 8.4701 12.2063C8.68193 12.3632 8.89518 12.5182 9.11265 12.6666C9.19015 12.7197 9.22256 12.7742 9.20706 12.8686C9.17935 13.0372 9.17935 13.2077 9.20706 13.3764C9.22256 13.4698 9.19203 13.5271 9.11453 13.5802C8.89236 13.7324 8.67395 13.8902 8.45836 14.0513C8.115 14.3082 8.03421 14.6868 8.24417 15.0616C8.43017 15.3933 8.62134 15.7225 8.81486 16.0499C9.04173 16.4337 9.4142 16.552 9.82472 16.3721C10.0708 16.2641 10.3156 16.1518 10.5603 16.0396C10.6209 16.0119 10.673 15.9907 10.7369 16.0405C10.9083 16.1744 11.1596 16.2237 11.2808 16.3806C11.4081 16.545 11.3437 16.8089 11.3799 17.0274C11.3846 17.056 11.3893 17.0856 11.3893 17.1147C11.3851 17.5497 11.5739 17.8522 11.9915 17.9996H13.5034C13.8252 17.8879 14.0511 17.6878 14.0962 17.3331C14.1272 17.0894 14.1568 16.8442 14.1671 16.599C14.1737 16.4421 14.2146 16.3388 14.3724 16.2772C14.5016 16.227 14.6218 16.1471 14.7341 16.064C14.8181 16.0011 14.8848 16.0076 14.9717 16.049C15.2094 16.1622 15.4494 16.2707 15.6904 16.3754C16.0906 16.5497 16.4654 16.4308 16.688 16.056C16.882 15.7291 17.0722 15.3994 17.2582 15.0678C17.4715 14.6882 17.3869 14.3012 17.0384 14.0433L17.037 14.0452ZM16.5607 14.785C16.3992 15.0494 16.2427 15.3176 16.0962 15.5905C16.0389 15.6972 15.9835 15.692 15.8895 15.6474C15.5988 15.5102 15.3015 15.3867 15.0117 15.2477C14.8271 15.1589 14.6655 15.1701 14.5072 15.3012C14.2756 15.4933 14.0168 15.6403 13.7359 15.7479C13.5645 15.8136 13.4795 15.9362 13.4635 16.1194C13.4339 16.4576 13.3931 16.7949 13.3639 17.133C13.3564 17.2213 13.3273 17.2575 13.2366 17.2547C13.0788 17.2495 12.9205 17.2533 12.7622 17.2533C12.6101 17.2533 12.4574 17.2462 12.3057 17.2556C12.1831 17.2636 12.1436 17.2143 12.1343 17.0978C12.107 16.7653 12.068 16.4337 12.037 16.1016C12.0206 15.925 11.9309 15.8099 11.7669 15.7474C11.4804 15.638 11.2183 15.4858 10.9816 15.2909C10.8336 15.1692 10.6777 15.1603 10.5067 15.2392C10.2042 15.3792 9.89753 15.5107 9.59598 15.6525C9.50955 15.6929 9.46446 15.6864 9.41561 15.5985C9.26296 15.3219 9.10373 15.049 8.94121 14.7779C8.89189 14.6962 8.89894 14.6502 8.97926 14.5943C9.24887 14.4078 9.51096 14.2105 9.78104 14.025C9.95013 13.909 10.0201 13.7578 9.98348 13.5581C9.92994 13.2669 9.93088 12.9762 9.98348 12.6849C10.0201 12.4839 9.94544 12.336 9.77681 12.2204C9.51143 12.0382 9.25544 11.8428 8.99006 11.6601C8.90598 11.6023 8.88532 11.56 8.94309 11.4661C9.10514 11.2016 9.26108 10.9334 9.4081 10.6605C9.46399 10.5567 9.51472 10.5558 9.61054 10.6009C9.90645 10.7413 10.2089 10.8677 10.5044 11.0081C10.6843 11.0941 10.8407 11.0757 10.9933 10.9513C11.2305 10.7573 11.494 10.6079 11.7806 10.4971C11.9285 10.4398 12.0178 10.3317 12.0337 10.1687C12.0671 9.83103 12.1056 9.49332 12.1333 9.15513C12.1427 9.04146 12.1746 8.99261 12.3005 8.99637C12.6049 9.00623 12.9097 9.00295 13.2141 8.99778C13.3132 8.9959 13.3569 9.01751 13.3653 9.1293C13.3902 9.46185 13.4349 9.79299 13.4621 10.1255C13.4776 10.3172 13.5678 10.4431 13.7453 10.5083C14.0281 10.6131 14.2831 10.7653 14.5156 10.956C14.6622 11.0762 14.8139 11.0964 14.9882 11.0147C15.2897 10.8728 15.5969 10.7427 15.8989 10.6018C15.9849 10.5619 16.0361 10.5506 16.091 10.6521C16.2409 10.9301 16.4001 11.203 16.5636 11.4736C16.6152 11.5595 16.5993 11.6037 16.5218 11.6577C16.2479 11.8484 15.9797 12.0471 15.7068 12.2392C15.5457 12.3529 15.4814 12.4999 15.5208 12.6948C15.5795 12.9856 15.5767 13.2763 15.5199 13.5675C15.4837 13.7535 15.5443 13.8977 15.7007 14.0081C15.9736 14.2002 16.2404 14.4003 16.5152 14.5901C16.5993 14.6483 16.6185 14.6925 16.5617 14.785H16.5607Z" fill="white"/>
<path d="M6.75056 7.49693C8.81631 7.49787 10.4964 5.82432 10.504 3.75951C10.511 1.69422 8.82101 0 6.75196 0C4.68386 0 2.99387 1.6914 2.99904 3.75763C3.0042 5.82056 4.68527 7.496 6.75056 7.49693ZM6.75854 0.747298C8.40955 0.753404 9.74585 2.09488 9.7482 3.74823C9.75008 5.40112 8.4119 6.74635 6.7623 6.75011C5.1019 6.75386 3.75573 5.41192 3.75526 3.75152C3.75526 2.09253 5.10565 0.741192 6.75854 0.747298Z" fill="white"/>
<path d="M8.24431 9.43392C8.27202 9.27469 8.18842 9.11452 8.04093 9.04124C7.9592 9.00038 7.87184 9.00132 7.78353 9.00132C6.319 9.00132 4.85493 8.99756 3.3904 9.00273C1.49561 9.00837 0.00759459 10.502 0.00148845 12.3992C-0.00132977 13.3597 0.000549044 14.3202 0.00148845 15.2808C0.00148845 15.618 0.133475 15.7514 0.466964 15.7514C1.43361 15.7519 2.39979 15.7514 3.36644 15.7514C4.32135 15.7514 5.27579 15.7514 6.23069 15.7514C6.57264 15.7514 6.75441 15.618 6.75019 15.3705C6.74643 15.1286 6.57264 15.0046 6.23586 15.0041C4.47259 15.0041 2.7098 15.0018 0.946532 15.0079C0.781196 15.0084 0.74268 14.9595 0.744559 14.8012C0.752074 14.0163 0.747847 13.2315 0.748317 12.4466C0.748317 12.2117 0.769453 11.9788 0.826757 11.7505C1.12455 10.5607 2.16212 9.75331 3.41341 9.74909C4.84836 9.74392 6.2833 9.74815 7.71871 9.74768C7.78917 9.74768 7.85962 9.74956 7.92914 9.7411C8.09401 9.72091 8.21519 9.59972 8.24384 9.43298L8.24431 9.43392Z" fill="white"/>
<path d="M12.7628 11.252C11.7299 11.2477 10.8816 12.088 10.876 13.1204C10.8704 14.1463 11.7233 15.0021 12.752 15.0035C13.7736 15.0044 14.6209 14.1627 14.6275 13.1402C14.6336 12.1068 13.7938 11.2562 12.7628 11.252ZM12.7609 14.2473C12.132 14.251 11.6313 13.7536 11.6318 13.1256C11.6318 12.5075 12.1273 12.0063 12.7445 11.9997C13.3593 11.9927 13.8793 12.5094 13.8793 13.127C13.8793 13.7414 13.3776 14.244 12.7609 14.2477V14.2473Z" fill="white"/>
</svg>
