<svg width="22" height="22" viewBox="0 0 22 22" fill="none" xmlns="http://www.w3.org/2000/svg">
<path d="M4.49008 17.6567V14.7367C4.49008 13.7667 5.25008 12.8967 6.33008 12.8967C7.30008 12.8967 8.17008 13.6567 8.17008 14.7367V17.5467C8.17008 19.4967 6.55008 21.1167 4.60008 21.1167C2.65008 21.1167 1.03008 19.4867 1.03008 17.5467V11.3867C0.920077 5.76674 5.36008 1.21674 10.9801 1.21674C16.6001 1.21674 21.0301 5.76674 21.0301 11.2767V17.4367C21.0301 19.3867 19.4101 21.0067 17.4601 21.0067C15.5101 21.0067 13.8901 19.3867 13.8901 17.4367V14.6267C13.8901 13.6567 14.6501 12.7867 15.7301 12.7867C16.7001 12.7867 17.5701 13.5467 17.5701 14.6267V17.6567" stroke="#F05A28" stroke-width="1.5" stroke-linecap="round" stroke-linejoin="round"/>
</svg>
