<svg width="18" height="18" viewBox="0 0 18 18" fill="none" xmlns="http://www.w3.org/2000/svg">
<path d="M8.99863 18.0005C6.59977 18.0005 4.34027 17.0604 2.63609 15.3541C0.932993 13.6488 -0.0032708 11.3893 8.58569e-06 8.99261C0.00656735 4.03637 4.04294 0.00218626 8.99754 0C11.4013 0 13.6614 0.939543 15.365 2.64537C17.0676 4.35065 18.0033 6.6096 18 9.00737C17.9929 13.9636 13.9565 17.9983 9.00246 18.0005H8.99809H8.99863ZM8.99863 0.981628C6.86102 0.981628 4.84858 1.81732 3.33186 3.33404C1.81515 4.8513 0.980544 6.86429 0.981091 9.00245C0.982184 13.4127 4.57365 17.0091 8.98606 17.0194H9.00574C13.4176 17.0194 17.0124 13.4258 17.0189 9.00901C17.0222 6.87085 16.1887 4.85677 14.6725 3.33841C13.1563 1.82006 11.1428 0.983268 9.00301 0.982175H8.99863V0.981628Z" fill="white"/>
<path d="M5.14246 8.18254C4.90143 8.18254 4.75003 8.10547 4.65001 7.93276C4.54835 7.75677 4.556 7.58569 4.67297 7.4097L4.82655 7.17796C5.20149 6.61226 5.58901 6.02689 5.97707 5.45683C6.07326 5.31527 6.21974 5.23438 6.37824 5.23438C6.47335 5.23438 6.56736 5.26389 6.65153 5.31909C6.88108 5.47104 6.93902 5.75525 6.78871 5.99574C6.65699 6.20671 6.51762 6.41441 6.37005 6.63412C6.30227 6.73524 6.23286 6.83854 6.16181 6.94567L5.99346 7.20036H10.0473C10.9869 7.20036 11.9264 7.20036 12.866 7.20091C13.0676 7.20091 13.2398 7.2818 13.3387 7.42282C13.4251 7.54579 13.4426 7.69774 13.3879 7.85023C13.3191 8.04207 13.1868 8.14647 12.9725 8.17871C12.9556 8.18145 12.9354 8.18145 12.919 8.18145H12.8539L9.59368 8.1809C8.11031 8.1809 6.62584 8.1809 5.14246 8.18254Z" fill="white"/>
<path d="M11.6252 12.7657C11.529 12.7657 11.4328 12.7356 11.3464 12.6788C11.1202 12.529 11.0639 12.2442 11.2131 12.001C11.2776 11.8961 11.3486 11.7911 11.4175 11.6889C11.4497 11.6414 11.482 11.5933 11.5137 11.5457L12.0089 10.7997H5.13529C5.0626 10.7997 4.99264 10.798 4.92978 10.7767C4.70132 10.6991 4.55921 10.4849 4.58381 10.2553C4.6095 10.0192 4.80407 9.83554 5.0462 9.81914C5.06096 9.81805 5.07572 9.81805 5.09102 9.81805H5.13748H8.36931C9.86744 9.81805 11.3656 9.81805 12.8632 9.81641C13.0676 9.81641 13.2059 9.87489 13.3113 10.0066C13.4496 10.1788 13.4573 10.3865 13.3332 10.5767C12.8539 11.3091 12.4248 11.9529 12.0209 12.5454C11.9258 12.6848 11.7815 12.7646 11.6246 12.7646L11.6252 12.7657Z" fill="white"/>
</svg>
