<svg width="32" height="32" viewBox="0 0 32 32" fill="none" xmlns="http://www.w3.org/2000/svg">
<path d="M18.2942 10.5278C17.4356 11.1399 16.3849 11.5 15.25 11.5C12.3505 11.5 10 9.1495 10 6.25C10 3.3505 12.3505 1 15.25 1C17.1295 1 18.7783 1.98763 19.7058 3.47221M7 28.1307H10.9154C11.4259 28.1307 11.9333 28.1915 12.4282 28.313L16.5653 29.3183C17.463 29.537 18.3982 29.5583 19.3052 29.3821L23.8795 28.4922C25.0878 28.2568 26.1994 27.6782 27.0705 26.8308L30.3068 23.6826C31.2311 22.785 31.2311 21.3286 30.3068 20.4296C29.4747 19.6202 28.1571 19.529 27.2157 20.2155L23.4439 22.9673C22.9037 23.3621 22.2465 23.5747 21.5705 23.5747H17.9282L20.2466 23.5746C21.5533 23.5746 22.6118 22.545 22.6118 21.2739V20.8137C22.6118 19.7582 21.8733 18.8379 20.8211 18.5828L17.2429 17.7126C16.6606 17.5714 16.0642 17.5 15.4647 17.5C14.0175 17.5 11.3978 18.6982 11.3978 18.6982L7 20.5373M28 7.75C28 10.6495 25.6495 13 22.75 13C19.8505 13 17.5 10.6495 17.5 7.75C17.5 4.8505 19.8505 2.5 22.75 2.5C25.6495 2.5 28 4.8505 28 7.75ZM1 19.9L1 28.6C1 29.4401 1 29.8601 1.16349 30.181C1.3073 30.4632 1.53677 30.6927 1.81901 30.8365C2.13988 31 2.55992 31 3.4 31H4.6C5.44008 31 5.86012 31 6.18099 30.8365C6.46323 30.6927 6.6927 30.4632 6.83651 30.181C7 29.8601 7 29.4401 7 28.6V19.9C7 19.0599 7 18.6399 6.83651 18.319C6.6927 18.0368 6.46323 17.8073 6.18099 17.6635C5.86012 17.5 5.44008 17.5 4.6 17.5L3.4 17.5C2.55992 17.5 2.13988 17.5 1.81901 17.6635C1.53677 17.8073 1.3073 18.0368 1.16349 18.319C1 18.6399 1 19.0599 1 19.9Z" stroke="white" stroke-width="2" stroke-linecap="round" stroke-linejoin="round"/>
</svg>
