<svg width="20" height="20" viewBox="0 0 20 20" fill="none" xmlns="http://www.w3.org/2000/svg">
<g clip-path="url(#clip0_11_53)">
<path d="M2.18318 20C1.99759 19.9463 1.80711 19.9023 1.6264 19.8388C0.688674 19.4969 0.0293336 18.5885 2.95914e-05 17.6068C-0.00973842 17.2649 0.136782 17.1135 0.473778 17.1086C0.68379 17.1086 0.888918 17.1086 1.09893 17.1086C1.42128 17.1086 1.42128 17.1086 1.42128 16.7961C1.42128 14.5152 1.42616 12.2393 1.42128 9.95847C1.42128 9.05004 1.68501 8.2393 2.30528 7.5653C2.92555 6.89131 3.69722 6.52501 4.61541 6.49082C5.30406 6.4664 5.9927 6.48594 6.73507 6.48594C6.63739 6.37361 6.55925 6.29058 6.49087 6.20267C5.8413 5.40169 5.66548 4.49815 5.91944 3.5067C5.9634 3.33087 6.09038 3.24296 6.26132 3.199C6.88648 3.03783 7.49698 3.06714 8.10259 3.30157C8.14167 3.31622 8.18562 3.33087 8.24423 3.35041C8.24423 3.02318 8.24423 2.71549 8.31749 2.40779C8.52262 1.55798 9.01102 0.923057 9.76315 0.488381C9.92433 0.395585 10.0708 0.429773 10.2223 0.517685C10.6716 0.786305 11.033 1.14284 11.3016 1.59705C11.3798 1.5824 11.3846 1.51402 11.4139 1.47007C11.917 0.556757 12.6887 0.0732402 13.7241 0.00486417C14.0025 -0.0146719 14.1929 0.136732 14.1978 0.376049C14.2076 0.605597 14.0562 0.761885 13.7925 0.781421C13.3822 0.810725 13.0013 0.918173 12.6691 1.17214C12.3077 1.44565 12.0684 1.79729 11.9561 2.23685C11.9365 2.315 11.917 2.36384 12.0293 2.38826C13.8853 2.82294 14.5837 5.02074 13.3529 6.4371C13.348 6.44198 13.348 6.44687 13.3431 6.45663C13.3871 6.51524 13.4506 6.48594 13.5043 6.48594C14.1343 6.48594 14.7693 6.48594 15.3993 6.48594C17.0257 6.49571 18.3297 7.53112 18.7058 9.10865C18.7741 9.40169 18.7839 9.69961 18.7839 10.0024C18.7839 12.2735 18.7839 14.5494 18.7839 16.8205C18.7839 17.1135 18.7839 17.1135 19.0867 17.1135C19.2479 17.1135 19.4139 17.1086 19.5751 17.1135C19.8633 17.1233 20.0147 17.2796 20.0098 17.5726C20 18.7204 19.1014 19.7655 17.9487 19.9658C17.9048 19.9756 17.856 19.9609 17.8218 20.0049C12.6056 20 7.39441 20 2.18318 20ZM0.840078 17.8901C0.85473 17.9487 0.859614 17.9927 0.869382 18.0366C1.09405 18.7594 1.76804 19.2185 2.61297 19.2185C7.53605 19.2185 12.4591 19.2185 17.3822 19.2185C17.5238 19.2185 17.6704 19.2088 17.812 19.1844C18.4811 19.0671 19.0672 18.5055 19.1502 17.8901C19.077 17.8901 19.0086 17.8901 18.9353 17.8901C16.5861 17.8901 14.232 17.8901 11.8828 17.8901C11.8096 17.8901 11.7412 17.895 11.6679 17.8852C11.4481 17.8559 11.3114 17.6947 11.3163 17.4896C11.3212 17.2894 11.4579 17.1428 11.6728 17.1135C11.7412 17.1038 11.8144 17.1086 11.8877 17.1086C13.8462 17.1086 15.8096 17.1038 17.768 17.1135C17.9439 17.1135 17.9976 17.0745 17.9976 16.8938C17.9927 15.3065 17.9927 13.7143 17.9927 12.127C17.9927 12.0586 17.9878 11.9902 17.9829 11.8974C17.9048 11.9463 17.8608 11.9756 17.812 12.0097C17.1624 12.4347 16.4835 12.4249 15.8389 11.9902C15.624 11.8437 15.4091 11.6923 15.1942 11.5458C14.7595 11.2478 14.4371 11.2478 14.0074 11.5409C13.7827 11.6972 13.558 11.8535 13.3334 12.0049C12.7033 12.4249 12.0098 12.4249 11.3749 12.0049C11.1453 11.8535 10.9255 11.6972 10.7009 11.5409C10.2857 11.2576 9.92921 11.2576 9.50919 11.5458C9.23568 11.7314 8.97195 11.9365 8.68379 12.0977C8.14655 12.4054 7.58489 12.4054 7.04765 12.1025C6.74484 11.9316 6.46157 11.7167 6.16853 11.5165C5.79246 11.2674 5.43104 11.2625 5.05986 11.5165C4.81566 11.6825 4.58123 11.8535 4.33703 12.0146C3.69722 12.4298 3.05742 12.4249 2.41273 12.0244C2.35412 11.9902 2.31016 11.9218 2.22225 11.9316C2.21737 11.9804 2.21248 12.0244 2.21248 12.0684C2.21248 13.6898 2.21737 15.3113 2.2076 16.9328C2.2076 17.1087 2.28086 17.1135 2.41761 17.1135C4.32726 17.1086 6.23202 17.1135 8.14167 17.1135C8.51773 17.1135 8.69844 17.2454 8.69356 17.514C8.68867 17.7729 8.51285 17.895 8.14655 17.895C5.79734 17.895 3.44325 17.895 1.09405 17.895C1.00613 17.8901 0.927991 17.8901 0.840078 17.8901ZM2.6667 8.35651C3.68257 8.35651 4.6496 8.35651 5.61664 8.35651C5.70943 8.35651 5.79734 8.35163 5.88526 8.38582C6.05131 8.44442 6.13922 8.57141 6.14411 8.73746C6.14899 8.91329 6.06108 9.04516 5.88526 9.10865C5.79734 9.14284 5.70455 9.13795 5.61664 9.13795C4.57634 9.13795 3.53117 9.14284 2.49087 9.13307C2.34435 9.13307 2.27598 9.16237 2.24667 9.32355C2.16853 9.80218 2.21248 10.2857 2.19295 10.7643C2.18806 10.8913 2.2369 10.9695 2.33947 11.0329C2.49576 11.1306 2.64228 11.2381 2.79368 11.3406C3.17463 11.5995 3.53605 11.5995 3.917 11.3406C4.14655 11.1844 4.3761 11.0232 4.61053 10.8669C5.2601 10.4322 5.94875 10.4322 6.59832 10.8718C6.83275 11.0281 7.05742 11.1892 7.29185 11.3455C7.66303 11.5946 8.02933 11.5946 8.40052 11.3504C8.68867 11.1599 8.96218 10.9499 9.2601 10.7741C9.812 10.4518 10.3785 10.4518 10.9304 10.7692C11.2381 10.9499 11.5214 11.1697 11.8242 11.3651C12.171 11.5897 12.5226 11.5897 12.8694 11.3651C13.1136 11.2039 13.3529 11.0329 13.5922 10.8669C14.2516 10.4224 14.9402 10.4273 15.5995 10.8718C15.8437 11.0378 16.0782 11.2088 16.3224 11.3699C16.6594 11.5897 17.0061 11.5897 17.348 11.3699C17.5287 11.2527 17.7045 11.1306 17.8804 11.0085C17.9341 10.9743 17.9927 10.9402 17.9878 10.862C17.9781 10.3736 18.0318 9.88521 17.9487 9.40169C17.7241 8.13673 16.6887 7.26738 15.3944 7.26738C11.873 7.2625 8.35168 7.26738 4.83031 7.26738C4.74728 7.26738 4.65937 7.26738 4.57634 7.27715C3.7949 7.34552 3.16975 7.69229 2.6667 8.35651ZM11.4872 3.10621C10.5592 3.10621 9.79734 3.873 9.80223 4.80096C9.80711 5.71915 10.5641 6.47617 11.4823 6.48105C12.4054 6.48594 13.1722 5.71915 13.1771 4.79119C13.1771 3.86323 12.4152 3.10132 11.4872 3.10621ZM9.18196 6.05126C9.18684 4.74723 8.04399 3.73136 6.76926 3.89742C6.67646 3.90718 6.61786 3.92184 6.6032 4.03417C6.40784 5.30401 7.47744 6.52501 8.76682 6.47617C9.19661 6.46152 9.16242 6.52013 9.18196 6.05126ZM9.17707 3.89742C9.5043 3.1697 9.99759 2.68618 10.7107 2.44687C10.7986 2.41756 10.7839 2.36872 10.7595 2.29546C10.6472 1.99265 10.4665 1.72892 10.2369 1.50425C9.97317 1.2454 9.9341 1.2454 9.67036 1.50914C9.58245 1.59705 9.49942 1.68985 9.42616 1.78753C8.9866 2.43221 8.90357 3.11109 9.17707 3.89742Z" fill="black"/>
<path d="M10.3883 17.4994C10.3883 17.6996 10.2027 17.8852 9.99759 17.8852C9.79735 17.8852 9.61176 17.6996 9.61176 17.4945C9.61176 17.2894 9.79735 17.1086 10.0025 17.1086C10.2027 17.1135 10.3883 17.2991 10.3883 17.4994Z" fill="black"/>
<path d="M7.27229 9.13798C7.06716 9.14287 6.88157 8.96216 6.87668 8.75703C6.8718 8.5519 7.05251 8.36631 7.25764 8.36142C7.46276 8.35654 7.64836 8.53725 7.65324 8.74238C7.65812 8.94262 7.47742 9.1331 7.27229 9.13798Z" fill="black"/>
</g>
<defs>
<clipPath id="clip0_11_53">
<rect width="20" height="20" fill="white"/>
</clipPath>
</defs>
</svg>
