<svg width="20" height="20" viewBox="0 0 20 20" fill="none" xmlns="http://www.w3.org/2000/svg">
<path d="M20 15.1198C19.9323 15.4479 19.8959 15.7864 19.8021 16.1146C19.1302 18.4948 16.8906 20.1146 14.4219 20C11.8594 19.8802 9.68752 17.8125 9.44794 15.2656C9.18752 12.4844 10.9584 10.0781 13.6823 9.51561C13.8177 9.48956 14.0104 9.52602 14.0781 9.41665C14.1459 9.31248 14.099 9.14061 14.099 8.99477C14.099 7.47915 14.099 5.96352 14.099 4.44269C14.0104 4.43227 13.9844 4.50519 13.9427 4.54165C13.5469 4.93227 13.1615 5.32811 12.7656 5.71352C12.4167 6.04686 11.8959 5.91144 11.7761 5.45831C11.7188 5.24477 11.7761 5.05206 11.9271 4.90102C12.7084 4.11456 13.4896 3.32811 14.2761 2.55206C14.5104 2.31769 14.849 2.31248 15.0834 2.54686C15.8802 3.32811 16.6667 4.11456 17.4479 4.90623C17.6875 5.14581 17.6667 5.5104 17.4375 5.72915C17.2084 5.95311 16.8542 5.95311 16.6094 5.71873C16.1719 5.29165 15.7448 4.85415 15.3125 4.42186C15.2448 4.46352 15.2709 4.52081 15.2709 4.56769C15.2709 6.1354 15.2709 7.70311 15.2656 9.27602C15.2656 9.42706 15.3177 9.45311 15.4479 9.47394C17.6198 9.85936 19.0677 11.0989 19.7761 13.1927C19.8906 13.5364 19.9219 13.901 19.9948 14.2552C20 14.5469 20 14.8333 20 15.1198ZM18.8281 14.6875C18.8281 12.4271 16.9688 10.5833 14.6875 10.5833C12.4271 10.5833 10.5886 12.4271 10.5886 14.6823C10.5886 16.9635 12.4323 18.8281 14.6927 18.8229C16.9688 18.8281 18.8281 16.9687 18.8281 14.6875Z" fill="black"/>
<path d="M5.74479 0C6.14583 0.0729167 6.55208 0.119792 6.94271 0.260417C9.04688 1.03646 10.2969 2.53125 10.5469 4.76042C10.8646 7.56771 8.92708 10.0625 6.14583 10.5104C5.96354 10.5417 5.89583 10.5885 5.89583 10.7917C5.90625 11.8333 5.90625 12.875 5.89583 13.9167C5.89583 14.0573 5.92708 14.1042 6.07812 14.1042C6.58333 14.0937 7.09375 14.099 7.59896 14.099C7.97917 14.099 8.23958 14.3438 8.23958 14.6875C8.23958 15.0312 7.97396 15.2708 7.59375 15.2708C7.09375 15.2708 6.58854 15.2812 6.08854 15.2656C5.92188 15.2604 5.88542 15.3125 5.89062 15.474C5.90104 15.9688 5.89583 16.4635 5.89583 16.9583C5.89583 17.349 5.65104 17.6198 5.30208 17.6146C4.96354 17.6094 4.72396 17.349 4.72396 16.9635C4.72396 16.4479 4.71875 15.9375 4.72396 15.4219C4.72396 15.3021 4.69271 15.2656 4.57292 15.2708C4.05729 15.276 3.54688 15.276 3.03125 15.2708C2.65104 15.2708 2.38542 15.0312 2.38021 14.6927C2.375 14.3438 2.64583 14.099 3.03646 14.099C3.53125 14.099 4.02604 14.0937 4.52083 14.1042C4.67708 14.1094 4.72917 14.0781 4.72917 13.9062C4.71875 12.8542 4.72396 11.7969 4.72917 10.7448C4.72917 10.6042 4.69792 10.5521 4.54688 10.526C2.375 10.1406 0.927083 8.90104 0.21875 6.80729C0.104167 6.45833 0.0729167 6.09896 0 5.74479C0 5.45833 0 5.17188 0 4.88542C0.0104167 4.82812 0.0260417 4.77604 0.0364583 4.71875C0.359375 2.55729 1.54687 1.09375 3.57812 0.302083C3.99479 0.135417 4.44271 0.078125 4.88542 0C5.17188 0 5.45833 0 5.74479 0ZM1.17188 5.29687C1.16667 7.5625 3.02083 9.40625 5.30208 9.41146C7.5625 9.41667 9.40625 7.57812 9.41146 5.32292C9.41667 3.03646 7.57812 1.17188 5.31771 1.17188C3.04167 1.16667 1.17708 3.02083 1.17188 5.29687Z" fill="black"/>
</svg>
