<svg width="41" height="41" viewBox="0 0 41 41" fill="none" xmlns="http://www.w3.org/2000/svg">
<circle cx="20.5" cy="20.5" r="20.5" fill="white"/>
<path d="M21 26.5H21.01M17.2 31H24.8C25.9201 31 26.4802 31 26.908 30.782C27.2843 30.5903 27.5903 30.2843 27.782 29.908C28 29.4802 28 28.9201 28 27.8V14.2C28 13.0799 28 12.5198 27.782 12.092C27.5903 11.7157 27.2843 11.4097 26.908 11.218C26.4802 11 25.9201 11 24.8 11H17.2C16.0799 11 15.5198 11 15.092 11.218C14.7157 11.4097 14.4097 11.7157 14.218 12.092C14 12.5198 14 13.0799 14 14.2V27.8C14 28.9201 14 29.4802 14.218 29.908C14.4097 30.2843 14.7157 30.5903 15.092 30.782C15.5198 31 16.0799 31 17.2 31ZM21.5 26.5C21.5 26.7761 21.2761 27 21 27C20.7239 27 20.5 26.7761 20.5 26.5C20.5 26.2239 20.7239 26 21 26C21.2761 26 21.5 26.2239 21.5 26.5Z" stroke="black" stroke-linecap="round" stroke-linejoin="round"/>
</svg>
