<svg width="24" height="24" viewBox="0 0 24 24" fill="none" xmlns="http://www.w3.org/2000/svg">
<path d="M22 12V17C22 20 20 22 17 22H7C4 22 2 20 2 17V12C2 9.28 3.64 7.38 6.19 7.06C6.45 7.02 6.72 7 7 7H17C17.26 7 17.51 7.01 17.75 7.05C20.33 7.35 22 9.26 22 12Z" stroke="white" stroke-width="1.5" stroke-linecap="round" stroke-linejoin="round"/>
<path d="M21.9999 12.5H18.9999C17.8999 12.5 16.9999 13.4 16.9999 14.5C16.9999 15.6 17.8999 16.5 18.9999 16.5H21.9999M17.7509 7.04996C17.5109 7.00996 17.2609 6.99996 17.0009 6.99996H7.00092C6.72092 6.99996 6.45092 7.01996 6.19092 7.05996C6.33092 6.77996 6.53092 6.51996 6.77092 6.27996L10.0209 3.01996C10.6809 2.36654 11.5722 2 12.5009 2C13.4297 2 14.3209 2.36654 14.9809 3.01996L16.7309 4.78996C17.3709 5.41996 17.7109 6.21996 17.7509 7.04996Z" stroke="white" stroke-width="1.5" stroke-linecap="round" stroke-linejoin="round"/>
</svg>
