<svg xmlns="http://www.w3.org/2000/svg" width="56" height="56" viewBox="0 0 56 56">
  <g id="order" transform="translate(-326 -62.602)">
    <g id="Group_11365" data-name="Group 11365" transform="translate(308)">
      <circle id="Oval" cx="28" cy="28" r="28" transform="translate(18 62.602)" fill="#f3f2f2"/>
      <circle id="Oval-2" data-name="Oval" cx="20" cy="20" r="20" transform="translate(26 70.602)" fill="#6236ff"/>
      <g id="Group_11383" data-name="Group 11383" transform="translate(432.85 159.04)">
        <path id="Path_20899" data-name="Path 20899" d="M-386-58.451c-2.378,0-4.757-.038-7.133.012a3.039,3.039,0,0,1-3.185-2.925c-.36-4.032-.837-8.053-1.265-12.079-.1-.919-.2-1.838-.275-2.758-.022-.267-.112-.35-.375-.341-.543.018-1.086.014-1.629,0a.945.945,0,0,1-.988-.957.942.942,0,0,1,.97-.931q1.387-.024,2.774-.006a.912.912,0,0,1,1.014.924q.182,1.618.343,3.238c.06.6.053.6.635.6q9.776,0,19.551,0a1.907,1.907,0,0,1,2.068,1.581,2.556,2.556,0,0,1-.087,1.044q-1.085,5.094-2.179,10.186a2.858,2.858,0,0,1-2.973,2.4q-3.633,0-7.266,0Zm.585-13.325q-4.821,0-9.642-.005c-.311,0-.436.033-.384.408.134.958.2,1.925.307,2.887.251,2.377.5,4.755.763,7.131a.965.965,0,0,0,1.128,1q7.221,0,14.442,0a1.021,1.021,0,0,0,1.178-.931c.713-3.337,1.411-6.678,2.148-10.01.1-.474-.052-.492-.428-.49C-379.074-71.771-382.244-71.776-385.414-71.776Z" transform="translate(0 0)" fill="#fff"/>
        <path id="Path_20900" data-name="Path 20900" d="M-273.525,30.6a.975.975,0,0,1-.264.682q-1.829,2.285-3.658,4.57a.972.972,0,0,1-1.466.22q-1.322-.874-2.635-1.761a.963.963,0,0,1-.372-1.394.965.965,0,0,1,1.431-.187c.577.377,1.156.753,1.719,1.15.229.162.35.142.526-.083.978-1.247,1.971-2.481,2.966-3.715a.97.97,0,0,1,1.577-.056A.814.814,0,0,1-273.525,30.6Z" transform="translate(-108.3 -98.562)" fill="#fff"/>
      </g>
    </g>
  </g>
</svg>
