<svg xmlns="http://www.w3.org/2000/svg" width="56" height="56" viewBox="0 0 56 56">
  <g id="sale" transform="translate(-326 -62.602)">
    <g id="Group_11365" data-name="Group 11365" transform="translate(308)">
      <circle id="Oval" cx="28" cy="28" r="28" transform="translate(18 62.602)" fill="#f3f2f2"/>
      <circle id="Oval-2" data-name="Oval" cx="20" cy="20" r="20" transform="translate(26 70.602)" fill="#3dc955"/>
      <g id="Group_11378" data-name="Group 11378" transform="translate(40.643 157.212)">
        <path id="Path_20891" data-name="Path 20891" d="M5.537-57H-2.829a2.041,2.041,0,0,1-2.2-2.2q0-8.432,0-16.864a2.083,2.083,0,0,1,.011-.332.718.718,0,0,1,.733-.6.7.7,0,0,1,.671.623,3.637,3.637,0,0,1,.013.432q0,8.3,0,16.6c0,.762.155.916.92.916h16.6c.133,0,.267,0,.4.009a.7.7,0,0,1,.654.712.717.717,0,0,1-.667.7c-.1.009-.2,0-.3,0Z" transform="translate(0 0)" fill="#fff" stroke="#fff" stroke-width="1"/>
        <path id="Path_20892" data-name="Path 20892" d="M40.358,10.166H38.706c-.133,0-.267,0-.4,0a.714.714,0,0,1-.72-.719.7.7,0,0,1,.7-.7c1.6-.009,3.2,0,4.8-.007.155,0,.214.048.213.209,0,1.6,0,3.2-.007,4.8a.707.707,0,0,1-1.413-.014c-.011-.833,0-1.666,0-2.5,0-.12,0-.24,0-.388a.542.542,0,0,0-.3.218Q39.133,13.5,36.7,15.947c-.2.2-.292.194-.485,0-1.263-1.282-2.544-2.545-3.807-3.827-.185-.187-.28-.187-.464,0-1.154,1.171-2.321,2.328-3.483,3.491a.725.725,0,0,1-.779.239.692.692,0,0,1-.49-.539.767.767,0,0,1,.282-.74q1.617-1.611,3.229-3.227c.424-.424.857-.84,1.268-1.276.165-.175.254-.156.415.006,1.281,1.295,2.576,2.576,3.856,3.872.171.173.256.189.436.006,1.169-1.187,2.352-2.361,3.528-3.54C40.264,10.349,40.354,10.308,40.358,10.166Z" transform="translate(-30.059 -80.025)" fill="#fff" stroke="#fff" stroke-width="1"/>
      </g>
    </g>
  </g>
</svg>
