<svg xmlns="http://www.w3.org/2000/svg" width="19.233" height="20" viewBox="0 0 19.233 20">
  <g id="Services" transform="translate(-578.916 -275.75)">
    <path id="Path_20854" data-name="Path 20854" d="M590.464,295.75H586.6a.931.931,0,0,1-.5-.768c-.1-.705-.233-1.4-.339-2.109a.483.483,0,0,0-.329-.427,5.078,5.078,0,0,1-1.188-.691.423.423,0,0,0-.47-.059c-.705.277-1.415.543-2.126.8a.689.689,0,0,1-.981-.357q-.814-1.4-1.615-2.808a.675.675,0,0,1,.189-1c.574-.478,1.147-.957,1.732-1.421a.48.48,0,0,0,.2-.5,5.094,5.094,0,0,1,.009-1.375.418.418,0,0,0-.182-.438c-.574-.46-1.138-.931-1.705-1.4a.714.714,0,0,1-.212-1.1q.781-1.359,1.571-2.714c.283-.485.522-.567,1.061-.366.688.257,1.377.513,2.06.783a.424.424,0,0,0,.468-.063,5.169,5.169,0,0,1,1.221-.7.429.429,0,0,0,.292-.377c.113-.715.248-1.426.347-2.142a.939.939,0,0,1,.494-.771h3.862a.911.911,0,0,1,.493.767c.1.716.231,1.427.346,2.14a.436.436,0,0,0,.288.381,5.135,5.135,0,0,1,1.194.68.474.474,0,0,0,.529.075c.692-.276,1.392-.536,2.091-.794a.687.687,0,0,1,.983.348q.8,1.386,1.6,2.774a.7.7,0,0,1-.183,1.054c-.573.479-1.147.955-1.73,1.42a.45.45,0,0,0-.188.468,5.505,5.505,0,0,1,0,1.375.422.422,0,0,0,.165.443c.592.473,1.175.957,1.757,1.442a.682.682,0,0,1,.192,1.023q-.8,1.406-1.615,2.8a.68.68,0,0,1-.981.344c-.689-.255-1.377-.51-2.06-.781a.492.492,0,0,0-.561.059,4.472,4.472,0,0,1-1.159.67.48.48,0,0,0-.325.429c-.107.7-.241,1.4-.339,2.107A.913.913,0,0,1,590.464,295.75Zm-1.057-12.32c0-.46,0-.919,0-1.379.008-.681.427-.945,1.057-.673a4.755,4.755,0,0,1,.972,8.134,1.453,1.453,0,0,0-.728,1.536.412.412,0,0,1,0,.1c-.023.22.062.258.254.168a5.9,5.9,0,0,0,1.4-.865.846.846,0,0,1,.957-.144c.628.253,1.266.482,1.9.725.15.057.259.091.362-.1.3-.555.617-1.1.945-1.642.11-.181.071-.277-.081-.4-.529-.424-1.041-.868-1.573-1.288a.82.82,0,0,1-.35-.837,6.224,6.224,0,0,0,0-2.057.793.793,0,0,1,.332-.81c.549-.436,1.079-.894,1.627-1.331a.216.216,0,0,0,.06-.34c-.324-.542-.643-1.087-.945-1.642-.1-.187-.2-.2-.383-.127-.641.251-1.291.481-1.931.734a.789.789,0,0,1-.867-.117,6.2,6.2,0,0,0-1.781-1.03.788.788,0,0,1-.538-.689c-.1-.67-.227-1.335-.323-2.005-.033-.227-.118-.31-.351-.3-.586.015-1.172.023-1.758,0-.275-.01-.348.1-.383.345-.093.659-.223,1.313-.319,1.971a.79.79,0,0,1-.542.688,5.848,5.848,0,0,0-1.754,1.007.813.813,0,0,1-.9.132c-.641-.253-1.29-.481-1.93-.735-.186-.074-.281-.05-.38.132q-.446.816-.929,1.611a.25.25,0,0,0,.074.4c.54.428,1.059.883,1.6,1.307a.805.805,0,0,1,.331.842,5.785,5.785,0,0,0,0,2.023.808.808,0,0,1-.347.837c-.506.4-.988.825-1.5,1.219-.217.169-.285.293-.114.554.32.489.6,1,.88,1.52.1.188.2.206.377.136.641-.25,1.291-.479,1.931-.733a.826.826,0,0,1,.925.149,5.558,5.558,0,0,0,1.247.792c.4.192.4.187.406-.238,0-.184-.013-.369.007-.551a.622.622,0,0,0-.347-.659,4.772,4.772,0,0,1,.564-8.4c.66-.314,1.082-.038,1.086.691,0,.919,0,1.838,0,2.758,0,.12-.033.246.083.352a.964.964,0,0,0,1.306.154,1.028,1.028,0,0,1,.12-.068.365.365,0,0,0,.235-.407C589.4,284.395,589.406,283.912,589.407,283.43Zm1.356-.307a.682.682,0,0,0-.051.393c0,.62,0,1.241,0,1.861a.823.823,0,0,1-.475.807c-.447.235-.882.492-1.318.747a.716.716,0,0,1-.78,0c-.437-.254-.871-.513-1.318-.747a.815.815,0,0,1-.471-.807c.007-.632,0-1.264,0-1.9,0-.114.048-.248-.066-.346a3.451,3.451,0,0,0,2.292,6.083,3.469,3.469,0,0,0,3.258-2.376A3.42,3.42,0,0,0,590.763,283.123Zm-1.361,9.328h0c0-.539-.011-1.079,0-1.617.008-.268-.024-.4-.352-.339a3.731,3.731,0,0,1-1.132,0c-.2-.026-.267.014-.266.222q.009,1.738,0,3.476c0,.2.07.26.262.255.39-.012.781-.018,1.17,0,.237.01.323-.063.317-.307C589.391,293.575,589.4,293.013,589.4,292.451Z" fill="#fff"/>
  </g>
</svg>
