<svg xmlns="http://www.w3.org/2000/svg" width="17.924" height="20" viewBox="0 0 17.924 20">
  <g id="About_Us" data-name="About Us" transform="translate(-442.144 -8.982)">
    <path id="Path_20885" data-name="Path 20885" d="M446.856,510.759a22.573,22.573,0,0,1-4.281-.426,15.309,15.309,0,0,1-3.092-.939,6.326,6.326,0,0,1-.86-.434.931.931,0,0,1-.477-.908,10.74,10.74,0,0,1,.373-2.364,5.38,5.38,0,0,1,1.315-2.376,4.973,4.973,0,0,1,2.6-1.459,1.764,1.764,0,0,1,1.234.178,6.866,6.866,0,0,0,2.923.816,7.637,7.637,0,0,0,3.33-.5,3.624,3.624,0,0,0,.649-.3,1.542,1.542,0,0,1,1.231-.183,5.017,5.017,0,0,1,3.6,2.985,8.734,8.734,0,0,1,.666,3.331.887.887,0,0,1-.483.786,8.776,8.776,0,0,1-1.694.761,18.92,18.92,0,0,1-4.7.95C448.5,510.731,447.8,510.76,446.856,510.759Zm.107-1.528a25.653,25.653,0,0,0,2.66-.128,17.212,17.212,0,0,0,3.2-.613,6.883,6.883,0,0,0,1.193-.45.642.642,0,0,0,.384-.659,5.51,5.51,0,0,0-.743-2.454,2.986,2.986,0,0,0-2.187-1.553,1.508,1.508,0,0,0-.872.066,9.424,9.424,0,0,1-3,.683,7.67,7.67,0,0,1-2-.13,7.1,7.1,0,0,1-1.844-.5,1.763,1.763,0,0,0-1.018-.126,2.808,2.808,0,0,0-1.739.957,4.895,4.895,0,0,0-.773,1.331,5.216,5.216,0,0,0-.4,1.874.416.416,0,0,0,.087.261.784.784,0,0,0,.327.264,10.645,10.645,0,0,0,2.107.68A21.389,21.389,0,0,0,446.963,509.231Z" transform="translate(4 -481.777)" fill="#fff"/>
    <path id="Path_20886" data-name="Path 20886" d="M608.648,14.115a5.142,5.142,0,1,1,5.132,5.141A5.143,5.143,0,0,1,608.648,14.115Zm1.429,0a3.713,3.713,0,1,0,3.728-3.7A3.71,3.71,0,0,0,610.077,14.115Z" transform="translate(-162.681)" fill="#fff"/>
  </g>
</svg>
