<svg xmlns="http://www.w3.org/2000/svg" width="17.004" height="20" viewBox="0 0 17.004 20">
  <g id="Features" transform="translate(-603.076 -289.983)">
    <path id="Path_20855" data-name="Path 20855" d="M610.07,302.74v-3.868c0-.974,0-.974-.963-.974-1.348,0-2.7.007-4.043,0a1.83,1.83,0,0,1-1.983-2c-.006-1.313-.008-2.625,0-3.938a1.823,1.823,0,0,1,1.965-1.968q4.752-.006,9.5,0a1.827,1.827,0,0,1,1.947,1.937q.02,2.021,0,4.043a1.836,1.836,0,0,1-1.925,1.964,3.538,3.538,0,0,1-.629,0c-.491-.073-.543.192-.518.582.015.244.075.337.337.31a1.615,1.615,0,0,1,1.525.637.273.273,0,0,0,.356.1,1.593,1.593,0,0,1,1.834.538c.124.148.22.145.4.106a1.666,1.666,0,0,1,2.192,1.739c-.009,1.364.069,2.733-.07,4.092a4.349,4.349,0,0,1-3.932,3.88,12.8,12.8,0,0,1-3.246-.059,4.63,4.63,0,0,1-2.815-1.6c-1.042-1.227-2.066-2.469-3.083-3.717a1.674,1.674,0,0,1,.139-2.4,1.716,1.716,0,0,1,2.367.141,5.5,5.5,0,0,1,.453.576Zm1.155-3.033c0,1.277,0,2.554,0,3.831a.83.83,0,0,1-.5.846.838.838,0,0,1-1-.238c-.333-.335-.673-.663-1-1-.274-.285-.58-.445-.906-.128-.3.288-.18.592.062.882.974,1.169,1.938,2.346,2.91,3.517a3.559,3.559,0,0,0,2.311,1.33,12.246,12.246,0,0,0,3.089.009,3.15,3.15,0,0,0,2.774-2.916c.045-.433.029-.873.031-1.31,0-.857,0-1.714,0-2.571,0-.376-.13-.695-.54-.7-.438,0-.579.322-.567.723,0,.1-.005.21,0,.315.026.411-.072.75-.548.8-.371.036-.579-.272-.586-.821-.005-.385.007-.77-.01-1.154a.49.49,0,0,0-.533-.523.512.512,0,0,0-.537.527,4.3,4.3,0,0,0,0,.524c.012.413-.091.763-.581.755s-.57-.373-.565-.777.01-.805-.007-1.207a.489.489,0,0,0-.507-.5.5.5,0,0,0-.552.506,4.9,4.9,0,0,0-.006.524c.011.406-.081.75-.558.8-.377.037-.584-.263-.585-.811,0-1.627-.005-3.254,0-4.88,0-.406-.066-.784-.543-.8-.5-.013-.549.38-.548.779C611.23,297.258,611.227,298.483,611.225,299.707Zm-1.379-8.461q-2.335,0-4.67,0c-.665,0-.833.168-.835.837,0,1.207,0,2.414,0,3.621,0,.814.153.965.989.967,1.259,0,2.519,0,3.778,0,.935,0,.935,0,.989-.943a1.632,1.632,0,0,1,1.642-1.573,1.609,1.609,0,0,1,1.651,1.554c.064.94.064.94,1.012.927.649-.009.81-.159.814-.8q.009-1.889,0-3.778c0-.651-.163-.808-.8-.809Q612.129,291.243,609.847,291.246Z" fill="#fff"/>
    <path id="Path_20856" data-name="Path 20856" d="M632.294,317.145a.587.587,0,0,1-.493-.225c-.256-.279-.514-.556-.769-.835a.546.546,0,0,1,.009-.856.505.505,0,0,1,.807.049c.328.448.561.334.847-.029a9.379,9.379,0,0,1,.737-.791.579.579,0,0,1,.869-.045.548.548,0,0,1-.006.858c-.512.558-1.034,1.106-1.552,1.659A.525.525,0,0,1,632.294,317.145Z" transform="translate(-24.862 -21.625)" fill="#fff"/>
  </g>
</svg>
