<svg xmlns="http://www.w3.org/2000/svg" width="16.564" height="13.093" viewBox="0 0 16.564 13.093">
  <g id="Group_31128" data-name="Group 31128" transform="translate(-162 -471)">
    <g id="upload" transform="translate(162 471)">
      <path id="Path_32498" data-name="Path 32498" d="M.518,9.926a.518.518,0,0,1,.518.518v3.623A1.035,1.035,0,0,0,2.071,15.1H14.494a1.035,1.035,0,0,0,1.035-1.035V10.444a.518.518,0,0,1,1.035,0v3.623a2.071,2.071,0,0,1-2.071,2.071H2.071A2.071,2.071,0,0,1,0,14.067V10.444a.518.518,0,0,1,.518-.518ZM5.176,6.669a.518.518,0,0,0,.732,0L8.282,4.294l2.374,2.374a.518.518,0,1,0,.732-.732L8.648,3.2a.518.518,0,0,0-.733,0L5.176,5.936a.518.518,0,0,0,0,.733Z" transform="translate(0 -3.044)" fill="#fff" fill-rule="evenodd"/>
      <path id="Path_32499" data-name="Path 32499" d="M17.6,4.5a.727.727,0,0,1,.727.727V16.86a.727.727,0,1,1-1.454,0V5.227A.727.727,0,0,1,17.6,4.5Z" transform="translate(-9.32 -4.494)" fill="#fff" fill-rule="evenodd"/>
    </g>
  </g>
</svg>
