<svg xmlns="http://www.w3.org/2000/svg" width="90.092" height="30" viewBox="0 0 90.092 30">
  <g id="Group_4443" data-name="Group 4443" transform="translate(2222.092 -2.471)">
    <path id="Path_3423" data-name="Path 3423" d="M-1810.5,29.9a2.571,2.571,0,0,0-.018-.287.155.155,0,0,0-.151-.146q-.316-.017-.634-.017-19.525,0-39.051,0-5.517,0-11.033.009-.288,0-.576-.018a.152.152,0,0,1-.149-.147c-.011-.192-.016-.384-.016-.577q0-9.215,0-18.431c0-1.213,0-2.427,0-3.64,0-.5-.006-.5-.518-.5q-3.148,0-6.3,0a2.783,2.783,0,0,0-.345.019.164.164,0,0,0-.148.153c-.012.211-.015.423-.015.635q0,14.011,0,28.022c0,.982-.138.839.868.84q14.3.006,28.6,0v0h28.653c.212,0,.424,0,.635-.009a.182.182,0,0,0,.189-.178c.008-.1.012-.192.012-.288Q-1810.5,32.62-1810.5,29.9Z" transform="translate(-321.503 -3.349)" fill="#fdfdff"/>
    <path id="Path_3424" data-name="Path 3424" d="M-2197.448,3.165c-.056-.013-.112-.031-.168-.042a35.945,35.945,0,0,0-4.869-.593,34.052,34.052,0,0,0-5.481.112,18.666,18.666,0,0,0-3.566.685,9.455,9.455,0,0,0-5.948,5.117,14.543,14.543,0,0,0-1.185,3.671c-.285,1.532-.542,3.07-.8,4.607q-.606,3.557-1.2,7.117-.683,4.042-1.372,8.083c-.1.557-.108.544.444.544h6.3c.115,0,.231,0,.346-.011a.209.209,0,0,0,.193-.182c.012-.056.019-.114.029-.171q.465-2.82.931-5.64c.072-.437.152-.872.22-1.31a.25.25,0,0,1,.262-.246q.231-.007.462-.007h7.625c.709,0,.652-.023.652.666q0,3.178,0,6.355c0,.557-.016.546.53.546,2,0,4.005,0,6.008,0,.862,0,.757.1.758-.779q0-10.689,0-21.378c0-.905,0-1.811.029-2.715a31,31,0,0,1,.195-3.227c.027-.19.074-.379.089-.57C-2196.934,3.373-2197.022,3.265-2197.448,3.165Zm-7.03,5.722c-.183,1.728-.058,3.461-.1,4.859,0,1.814,0,3.3,0,4.777,0,.51-.006.516-.505.516q-3.492,0-6.984,0c-.1,0-.192,0-.288-.008a.163.163,0,0,1-.175-.179,1.54,1.54,0,0,1,.022-.229c.3-1.821.6-3.643.91-5.463a9.32,9.32,0,0,1,.521-1.827,3.958,3.958,0,0,1,2.99-2.538,10.482,10.482,0,0,1,3.386-.165C-2204.513,8.649-2204.459,8.706-2204.478,8.887Z" fill="#fdfdff"/>
    <path id="Path_3425" data-name="Path 3425" d="M-1575.679,26.232a.126.126,0,0,0,.106.169,2.361,2.361,0,0,0,.344.02q1.56,0,3.12,0c.058,0,.115,0,.173,0,.24-.012.283-.043.367-.284.044-.127.08-.257.119-.386q.426-1.409.851-2.819c.045-.147.087-.3.14-.44a.255.255,0,0,1,.262-.183c.135,0,.27,0,.4,0q2.571,0,5.142,0c.758,0,.622-.076.846.646.285.919.544,1.846.83,2.765.254.817.1.7.919.7,1.194.007,2.388,0,3.582,0,.811,0,.742.053.5-.707q-2.044-6.529-4.091-13.056-.906-2.892-1.817-5.783c-.1-.326-.11-.331-.439-.333-.79,0-1.579,0-2.369,0s-1.579,0-2.368,0c-.327,0-.327.009-.441.334-.025.073-.051.145-.074.219q-2.992,9.347-5.983,18.694C-1575.6,25.935-1575.642,26.083-1575.679,26.232Zm6.468-7.848c.013-.056.032-.111.049-.166q.921-3.033,1.842-6.065c.028-.09.067-.177.1-.268.177.088.172.257.214.4q.74,2.455,1.477,4.912c.111.368.226.734.329,1.1.071.256.024.32-.227.33-.192.008-.385,0-.577,0h-2.768c-.1,0-.192,0-.288-.01C-1569.2,18.61-1569.246,18.533-1569.212,18.384Z" transform="translate(-589.338 -3.709)" fill="#fdfdff"/>
    <path id="Path_3426" data-name="Path 3426" d="M-1744.487,26.21a.187.187,0,0,0,.176.193,3.17,3.17,0,0,0,.345.017q1.848,0,3.7,0c.508,0,.508-.006.515-.51,0-.1,0-.193,0-.289V19.844c0-.154,0-.308,0-.462.01-.318.039-.352.378-.356.6-.007,1.194-.005,1.791,0a29.643,29.643,0,0,0,3.116-.087,5.483,5.483,0,0,0,4.72-3.227,7.4,7.4,0,0,0,.637-3.939,5.886,5.886,0,0,0-4.559-4.991,15.45,15.45,0,0,0-2.641-.24q-3.812-.006-7.625,0c-.134,0-.269,0-.4.018a.157.157,0,0,0-.147.15c-.009.1-.01.192-.01.288q0,1.906,0,3.813a2.834,2.834,0,0,0,.011.288.189.189,0,0,0,.185.184c.134.01.269.011.4.011h5.718c.135,0,.27,0,.4-.008a.2.2,0,0,0,.207-.223c.006-.347.007-.693.016-1.04a2.187,2.187,0,0,1,.038-.34.084.084,0,0,1,.135-.049,1.893,1.893,0,0,1,.258.229q1.578,1.608,3.153,3.219c.067.069.133.14.193.214a.153.153,0,0,1,.006.209c-.075.087-.155.171-.237.252q-1.609,1.577-3.22,3.152a2.609,2.609,0,0,1-.214.192.115.115,0,0,1-.1.012.122.122,0,0,1-.058-.085c-.009-.1-.009-.192-.009-.288,0-.366,0-.732,0-1.1a.168.168,0,0,0-.177-.182c-.134-.007-.269-.012-.4-.012h-5.718c-.135,0-.269,0-.4.012a.172.172,0,0,0-.179.181c-.006.154-.008.308-.008.462q0,2.4,0,4.795,0,2.426,0,4.853C-1744.5,25.9-1744.495,26.057-1744.487,26.21Z" transform="translate(-435.431 -3.708)" fill="#fdfdff"/>
    <path id="Path_3427" data-name="Path 3427" d="M-1389.4,17.482a2.175,2.175,0,0,1,.283,1.1c-.013,2.369-.007,4.739-.006,7.108,0,.173,0,.347.015.519a.192.192,0,0,0,.186.186c.153.011.308.011.462.011h3.351c.72,0,.665.023.665-.652,0-2.389.008-4.777-.007-7.166a2.168,2.168,0,0,1,.285-1.093q2.821-5.173,5.625-10.354c.082-.152.158-.307.231-.464a.094.094,0,0,0-.069-.131,2.863,2.863,0,0,0-.4-.022c-.982,0-1.965,0-2.947,0-.789,0-.615-.088-.952.578-1.052,2.078-2.089,4.164-3.133,6.247-.078.155-.157.309-.243.46-.055.1-.161.09-.22-.015-.076-.134-.146-.271-.215-.409l-3.143-6.242c-.078-.155-.158-.308-.238-.462a.259.259,0,0,0-.229-.15c-.115-.006-.231-.007-.346-.007q-2.167,0-4.333,0a.9.9,0,0,0-.519.081c.107.2.2.393.3.578Q-1392.2,12.332-1389.4,17.482Z" transform="translate(-753.798 -3.688)" fill="#fdfdff"/>
  </g>
</svg>
