<svg xmlns="http://www.w3.org/2000/svg" data-name="Layer 1" viewBox="0 0 24 24"><path d="M13.5,20h-3a.5.5,0,0,0,0,1h3a.5.5,0,0,0,0-1Zm5-20H5.5A1.5,1.5,0,0,0,4,1.5v21A1.5,1.5,0,0,0,5.5,24h13A1.5,1.5,0,0,0,20,22.5V1.5A1.5,1.5,0,0,0,18.5,0ZM19,22.5a.5.5,0,0,1-.5.5H5.5a.5.5,0,0,1-.5-.5V1.5A.5.5,0,0,1,5.5,1h13a.5.5,0,0,1,.5.5ZM12,6a6,6,0,1,0,4.46,2A6,6,0,0,0,12,6Zm2.24,1.55a4.92,4.92,0,0,1,.54.31L15,8l.07.05.19.17h0a5.51,5.51,0,0,1-.77.33h0c-.07-.2-.14-.39-.22-.58l0-.08a5.52,5.52,0,0,0-.26-.5Zm-3.44.56,0-.06a3.68,3.68,0,0,1,.24-.39l.15-.2.12-.13a1.42,1.42,0,0,1,.27-.21l.07,0a.62.62,0,0,1,.63,0l.07,0a1.42,1.42,0,0,1,.27.21l.12.13.15.2a3.69,3.69,0,0,1,.24.39l0,.06a5.87,5.87,0,0,1,.31.73h0a7.93,7.93,0,0,1-3,0A5.87,5.87,0,0,1,10.81,8.11ZM8,9a6.26,6.26,0,0,0,1.2.55h0c-.06.29-.11.59-.15.91v.07c0,.32-.06.65-.08,1H7A5,5,0,0,1,8,9Zm0,6A5,5,0,0,1,7,12.5H9c0,.34,0,.67.08,1v.07c0,.31.09.62.15.91h0A6.27,6.27,0,0,0,8,15ZM10,16.55l-.21-.1a4.92,4.92,0,0,1-.54-.31l-.3-.22-.19-.17a5.52,5.52,0,0,1,.77-.33h0c.07.2.14.39.22.58l0,.08a5.52,5.52,0,0,0,.26.5Zm-.2-8.63,0,.08c-.08.18-.16.37-.22.58a5.46,5.46,0,0,1-.77-.33h0l.19-.17.31-.22a4.93,4.93,0,0,1,.53-.31l.12-.06L10,7.42A5.52,5.52,0,0,0,9.77,7.92Zm3.43,8,0,.06a3.68,3.68,0,0,1-.24.39l-.15.2-.12.13a1.42,1.42,0,0,1-.27.21l-.07,0a.62.62,0,0,1-.63,0l-.07,0a1.42,1.42,0,0,1-.27-.21l-.12-.13-.15-.2a3.69,3.69,0,0,1-.24-.39l0-.06a5.87,5.87,0,0,1-.31-.73h0a7.93,7.93,0,0,1,3,0A5.87,5.87,0,0,1,13.19,15.89Zm.71-2.51v0c0,.28-.08.54-.13.8h0a9,9,0,0,0-3.54,0c-.05-.25-.1-.52-.13-.79v0Q10,13,10,12.5h4Q14,13,13.91,13.38ZM10,11.5q0-.45.07-.87v0c0-.28.08-.54.13-.79h0c.27.06.55.11.83.14A7.82,7.82,0,0,0,12,10a7.84,7.84,0,0,0,.94-.06c.28,0,.56-.08.83-.13h0c.05.25.1.52.13.79v0q.05.42.07.87Zm5.06,4.41-.31.22a4.93,4.93,0,0,1-.53.31l-.12.06-.15.07a5.52,5.52,0,0,0,.26-.5l0-.08c.08-.18.16-.37.22-.58a5.46,5.46,0,0,1,.77.33h0ZM16,15a6.26,6.26,0,0,0-1.2-.55h0c.06-.29.11-.59.15-.91v-.07c0-.32.06-.65.08-1h2A5,5,0,0,1,16,15ZM15,11.5h0c0-.34,0-.67-.08-1v-.07c0-.31-.09-.62-.15-.91h0A6.27,6.27,0,0,0,16,9h0a5,5,0,0,1,1,2.52ZM8.5,4h7a.5.5,0,0,0,0-1h-7a.5.5,0,0,0,0,1Z"/></svg>