<svg xmlns="http://www.w3.org/2000/svg" xmlns:xlink="http://www.w3.org/1999/xlink" version="1.1" width="256" height="256" viewBox="0 0 256 256" xml:space="preserve">

<defs>
</defs>
<g style="stroke: none; stroke-width: 0; stroke-dasharray: none; stroke-linecap: butt; stroke-linejoin: miter; stroke-miterlimit: 10; fill: none; fill-rule: nonzero; opacity: 1;" transform="translate(1.4065934065934016 1.4065934065934016) scale(2.81 2.81)" >
	<path d="M 41.635 42.425 l -7.031 -1.426 l -12.785 -8.913 c 1.653 -4.645 0.1 -9.999 -4.135 -12.964 c -5.084 -3.56 -12.091 -2.324 -15.651 2.76 c -3.56 5.084 -2.324 12.091 2.76 15.651 c 4.208 2.947 9.729 2.599 13.527 -0.489 l 13.442 9.441 l 5.014 3.511 l 40.872 28.59 c 4.013 2.81 9.543 1.834 12.353 -2.178 L 41.635 42.425 z M 15.982 31.648 c -1.835 2.62 -5.446 3.257 -8.066 1.422 c -2.62 -1.835 -3.257 -5.446 -1.422 -8.066 s 5.446 -3.257 8.066 -1.422 C 17.18 25.417 17.817 29.028 15.982 31.648 z" style="stroke: none; stroke-width: 1; stroke-dasharray: none; stroke-linecap: butt; stroke-linejoin: miter; stroke-miterlimit: 10; fill: rgb(174,173,179); fill-rule: nonzero; opacity: 1;" transform=" matrix(1 0 0 1 0 0) " stroke-linecap="round" />
	<path d="M 77.647 11.416 L 38.251 39.002 c -0.476 -0.111 -0.966 -0.183 -1.475 -0.183 c -3.326 0 -6.04 2.502 -6.435 5.722 l -12.02 8.417 c -3.798 -3.088 -9.318 -3.436 -13.527 -0.489 c -5.084 3.56 -6.319 10.567 -2.76 15.651 c 3.56 5.084 10.567 6.32 15.651 2.76 c 4.235 -2.965 5.787 -8.319 4.135 -12.964 l 10.826 -7.58 c 1.127 0.932 2.554 1.515 4.131 1.515 c 3.242 0 5.91 -2.375 6.41 -5.476 L 90 13.594 C 87.19 9.582 81.66 8.606 77.647 11.416 z M 14.56 66.418 c -2.62 1.835 -6.231 1.198 -8.066 -1.422 c -1.835 -2.62 -1.198 -6.231 1.422 -8.066 c 2.62 -1.835 6.231 -1.198 8.066 1.422 C 17.817 60.972 17.18 64.583 14.56 66.418 z" style="stroke: none; stroke-width: 1; stroke-dasharray: none; stroke-linecap: butt; stroke-linejoin: miter; stroke-miterlimit: 10; fill: rgb(207,205,210); fill-rule: nonzero; opacity: 1;" transform=" matrix(1 0 0 1 0 0) " stroke-linecap="round" />
	<circle cx="36.772" cy="45.331999999999994" r="2.172" style="stroke: none; stroke-width: 1; stroke-dasharray: none; stroke-linecap: butt; stroke-linejoin: miter; stroke-miterlimit: 10; fill: rgb(174,173,179); fill-rule: nonzero; opacity: 1;" transform="  matrix(1 0 0 1 0 0) "/>
</g>
</svg>