<svg xmlns="http://www.w3.org/2000/svg" xmlns:xlink="http://www.w3.org/1999/xlink" version="1.1" width="256" height="256" viewBox="0 0 256 256" xml:space="preserve">

<defs>
</defs>
<g style="stroke: none; stroke-width: 0; stroke-dasharray: none; stroke-linecap: butt; stroke-linejoin: miter; stroke-miterlimit: 10; fill: none; fill-rule: nonzero; opacity: 1;" transform="translate(1.4065934065934016 1.4065934065934016) scale(2.81 2.81)" >
	<path d="M 65.499 70.778 h 22.258 c 1.239 0 2.243 -1.004 2.243 -2.243 V 46.277 c 0 -0.683 -0.826 -1.025 -1.309 -0.542 l -2.706 2.706 c -0.876 0.876 -2.296 0.876 -3.172 0 L 45.516 11.144 c -0.876 -0.876 -2.296 -0.876 -3.172 0 L 30.366 23.122 c -0.876 0.876 -0.876 2.296 0 3.172 l 37.297 37.297 c 0.876 0.876 0.876 2.296 0 3.172 l -2.706 2.706 C 64.473 69.952 64.816 70.778 65.499 70.778 z" style="stroke: none; stroke-width: 1; stroke-dasharray: none; stroke-linecap: butt; stroke-linejoin: miter; stroke-miterlimit: 10; fill: rgb(59,142,204); fill-rule: nonzero; opacity: 1;" transform=" matrix(1 0 0 1 0 0) " stroke-linecap="round" />
	<path d="M 0 43.723 l 0 -22.258 c 0 -1.239 1.004 -2.243 2.243 -2.243 h 22.258 c 0.683 0 1.025 0.826 0.542 1.309 l -2.706 2.706 c -0.876 0.876 -0.876 2.296 0 3.172 l 37.297 37.297 c 0.876 0.876 0.876 2.296 0 3.172 L 47.656 78.856 c -0.876 0.876 -2.296 0.876 -3.172 0 L 7.187 41.559 c -0.876 -0.876 -2.296 -0.876 -3.172 0 l -2.706 2.706 C 0.826 44.749 0 44.407 0 43.723 z" style="stroke: none; stroke-width: 1; stroke-dasharray: none; stroke-linecap: butt; stroke-linejoin: miter; stroke-miterlimit: 10; fill: rgb(248,174,8); fill-rule: nonzero; opacity: 1;" transform=" matrix(1 0 0 1 0 0) " stroke-linecap="round" />
</g>
</svg>