<svg xmlns="http://www.w3.org/2000/svg" xmlns:xlink="http://www.w3.org/1999/xlink" version="1.1" width="256" height="256" viewBox="0 0 256 256" xml:space="preserve">

<defs>
</defs>
<g style="stroke: none; stroke-width: 0; stroke-dasharray: none; stroke-linecap: butt; stroke-linejoin: miter; stroke-miterlimit: 10; fill: none; fill-rule: nonzero; opacity: 1;" transform="translate(1.4065934065934016 1.4065934065934016) scale(2.81 2.81)" >
	<path d="M 87.002 47.199 c -1.027 0 -2.028 -0.528 -2.588 -1.477 C 76.221 31.818 61.118 23.182 45 23.182 c -16.117 0 -31.221 8.637 -39.415 22.54 c -0.841 1.427 -2.678 1.903 -4.108 1.061 c -1.427 -0.841 -1.902 -2.68 -1.061 -4.108 C 9.684 26.95 26.768 17.182 45 17.182 c 18.233 0 35.316 9.768 44.584 25.493 c 0.841 1.428 0.365 3.267 -1.062 4.108 C 88.044 47.064 87.52 47.199 87.002 47.199 z" style="stroke: none; stroke-width: 1; stroke-dasharray: none; stroke-linecap: butt; stroke-linejoin: miter; stroke-miterlimit: 10; fill: rgb(0,87,214); fill-rule: nonzero; opacity: 1;" transform=" matrix(1 0 0 1 0 0) " stroke-linecap="round" />
	<path d="M 72.52 55.716 c -1.027 0.001 -2.028 -0.527 -2.588 -1.477 C 64.75 45.444 55.196 39.981 45 39.981 c -10.196 0 -19.749 5.463 -24.932 14.259 c -0.841 1.428 -2.68 1.901 -4.107 1.062 c -1.428 -0.842 -1.903 -2.681 -1.062 -4.108 C 21.156 40.576 32.69 33.981 45 33.981 s 23.844 6.595 30.102 17.212 c 0.841 1.428 0.365 3.267 -1.062 4.108 C 73.562 55.582 73.038 55.716 72.52 55.716 z" style="stroke: none; stroke-width: 1; stroke-dasharray: none; stroke-linecap: butt; stroke-linejoin: miter; stroke-miterlimit: 10; fill: rgb(0,87,214); fill-rule: nonzero; opacity: 1;" transform=" matrix(1 0 0 1 0 0) " stroke-linecap="round" />
	<path d="M 58.037 64.233 c -1.027 0.001 -2.028 -0.527 -2.588 -1.477 c -2.173 -3.687 -6.177 -5.977 -10.449 -5.977 c -4.273 0 -8.277 2.29 -10.45 5.977 c -0.84 1.428 -2.679 1.901 -4.107 1.062 c -1.428 -0.842 -1.903 -2.681 -1.062 -4.108 c 3.246 -5.509 9.231 -8.931 15.619 -8.931 s 12.372 3.422 15.619 8.931 c 0.841 1.428 0.365 3.267 -1.062 4.108 C 59.079 64.099 58.555 64.233 58.037 64.233 z" style="stroke: none; stroke-width: 1; stroke-dasharray: none; stroke-linecap: butt; stroke-linejoin: miter; stroke-miterlimit: 10; fill: rgb(0,87,214); fill-rule: nonzero; opacity: 1;" transform=" matrix(1 0 0 1 0 0) " stroke-linecap="round" />
	<circle cx="45" cy="68.9" r="3.92" style="stroke: none; stroke-width: 1; stroke-dasharray: none; stroke-linecap: butt; stroke-linejoin: miter; stroke-miterlimit: 10; fill: rgb(0,87,214); fill-rule: nonzero; opacity: 1;" transform="  matrix(1 0 0 1 0 0) "/>
</g>
</svg>