<svg xmlns="http://www.w3.org/2000/svg" xmlns:xlink="http://www.w3.org/1999/xlink" version="1.1" width="256" height="256" viewBox="0 0 256 256" xml:space="preserve">

<defs>
</defs>
<g style="stroke: none; stroke-width: 0; stroke-dasharray: none; stroke-linecap: butt; stroke-linejoin: miter; stroke-miterlimit: 10; fill: none; fill-rule: nonzero; opacity: 1;" transform="translate(1.4065934065934016 1.4065934065934016) scale(2.81 2.81)" >
	<circle cx="45" cy="45" r="45" style="stroke: none; stroke-width: 1; stroke-dasharray: none; stroke-linecap: butt; stroke-linejoin: miter; stroke-miterlimit: 10; fill: rgb(32,196,203); fill-rule: nonzero; opacity: 1;" transform="  matrix(1 0 0 1 0 0) "/>
	<path d="M 53.329 56.008 h -23.05 c -1.657 0 -3 -1.343 -3 -3 s 1.343 -3 3 -3 h 23.05 c 1.657 0 3 1.343 3 3 S 54.986 56.008 53.329 56.008 z" style="stroke: none; stroke-width: 1; stroke-dasharray: none; stroke-linecap: butt; stroke-linejoin: miter; stroke-miterlimit: 10; fill: rgb(27,167,173); fill-rule: nonzero; opacity: 1;" transform=" matrix(1 0 0 1 0 0) " stroke-linecap="round" />
	<path d="M 53.329 66.816 h -23.05 c -1.657 0 -3 -1.343 -3 -3 s 1.343 -3 3 -3 h 23.05 c 1.657 0 3 1.343 3 3 S 54.986 66.816 53.329 66.816 z" style="stroke: none; stroke-width: 1; stroke-dasharray: none; stroke-linecap: butt; stroke-linejoin: miter; stroke-miterlimit: 10; fill: rgb(27,167,173); fill-rule: nonzero; opacity: 1;" transform=" matrix(1 0 0 1 0 0) " stroke-linecap="round" />
	<path d="M 41.804 81.715 c -1.657 0 -3 -1.343 -3 -3 V 44.394 l -18.94 -19.179 c -1.164 -1.179 -1.152 -3.078 0.027 -4.243 c 1.178 -1.163 3.078 -1.152 4.243 0.027 l 19.805 20.056 c 0.554 0.562 0.865 1.319 0.865 2.108 v 35.553 C 44.804 80.372 43.461 81.715 41.804 81.715 z" style="stroke: none; stroke-width: 1; stroke-dasharray: none; stroke-linecap: butt; stroke-linejoin: miter; stroke-miterlimit: 10; fill: rgb(27,167,173); fill-rule: nonzero; opacity: 1;" transform=" matrix(1 0 0 1 0 0) " stroke-linecap="round" />
	<path d="M 41.804 81.715 c -1.657 0 -3 -1.343 -3 -3 V 43.162 c 0 -0.789 0.311 -1.546 0.865 -2.108 l 19.805 -20.056 c 1.164 -1.179 3.063 -1.191 4.243 -0.027 c 1.179 1.165 1.19 3.064 0.026 4.243 l -18.94 19.179 v 34.321 C 44.804 80.372 43.461 81.715 41.804 81.715 z" style="stroke: none; stroke-width: 1; stroke-dasharray: none; stroke-linecap: butt; stroke-linejoin: miter; stroke-miterlimit: 10; fill: rgb(27,167,173); fill-rule: nonzero; opacity: 1;" transform=" matrix(1 0 0 1 0 0) " stroke-linecap="round" />
	<path d="M 56.721 52.616 H 33.67 c -1.657 0 -3 -1.343 -3 -3 s 1.343 -3 3 -3 h 23.05 c 1.657 0 3 1.343 3 3 S 58.378 52.616 56.721 52.616 z" style="stroke: none; stroke-width: 1; stroke-dasharray: none; stroke-linecap: butt; stroke-linejoin: miter; stroke-miterlimit: 10; fill: rgb(255,255,255); fill-rule: nonzero; opacity: 1;" transform=" matrix(1 0 0 1 0 0) " stroke-linecap="round" />
	<path d="M 56.721 63.426 H 33.67 c -1.657 0 -3 -1.343 -3 -3 s 1.343 -3 3 -3 h 23.05 c 1.657 0 3 1.343 3 3 S 58.378 63.426 56.721 63.426 z" style="stroke: none; stroke-width: 1; stroke-dasharray: none; stroke-linecap: butt; stroke-linejoin: miter; stroke-miterlimit: 10; fill: rgb(255,255,255); fill-rule: nonzero; opacity: 1;" transform=" matrix(1 0 0 1 0 0) " stroke-linecap="round" />
	<path d="M 45.196 78.323 c -1.657 0 -3 -1.343 -3 -3 V 41.002 l -18.94 -19.179 c -1.164 -1.179 -1.152 -3.078 0.027 -4.243 c 1.178 -1.164 3.079 -1.152 4.243 0.027 L 47.33 37.663 c 0.555 0.562 0.865 1.319 0.865 2.108 v 35.553 C 48.195 76.98 46.853 78.323 45.196 78.323 z" style="stroke: none; stroke-width: 1; stroke-dasharray: none; stroke-linecap: butt; stroke-linejoin: miter; stroke-miterlimit: 10; fill: rgb(255,255,255); fill-rule: nonzero; opacity: 1;" transform=" matrix(1 0 0 1 0 0) " stroke-linecap="round" />
	<path d="M 45.196 78.323 c -1.657 0 -3 -1.343 -3 -3 V 39.771 c 0 -0.789 0.311 -1.546 0.865 -2.108 l 19.805 -20.056 c 1.165 -1.179 3.064 -1.19 4.243 -0.027 c 1.179 1.165 1.19 3.064 0.026 4.243 L 48.196 41.002 v 34.321 C 48.196 76.98 46.853 78.323 45.196 78.323 z" style="stroke: none; stroke-width: 1; stroke-dasharray: none; stroke-linecap: butt; stroke-linejoin: miter; stroke-miterlimit: 10; fill: rgb(255,255,255); fill-rule: nonzero; opacity: 1;" transform=" matrix(1 0 0 1 0 0) " stroke-linecap="round" />
</g>
</svg>